<?xml version="1.0" encoding="utf-8"?>
<!-- Generator: Adobe Illustrator 16.0.0, SVG Export Plug-In . SVG Version: 6.00 Build 0)  -->
<!DOCTYPE svg PUBLIC "-//W3C//DTD SVG 1.1//EN" "http://www.w3.org/Graphics/SVG/1.1/DTD/svg11.dtd">
<svg version="1.1" id="Layer_1" xmlns="http://www.w3.org/2000/svg" xmlns:xlink="http://www.w3.org/1999/xlink" x="0px" y="0px"
	 width="1024px" height="1098.727px" viewBox="0 0 1024 1098.727" enable-background="new 0 0 1024 1098.727" xml:space="preserve">
<rect x="-0.002" fill="#FFFFFF" width="1024.004" height="1024"/>
<g>
	<rect x="0.001" y="1024.002" fill="#132028" width="1024.003" height="74.725"/>
	<g>
		<g>
			<path fill="#FFFFFF" d="M334.035,1050.005h3.956c3.112,0,5.677,0.819,7.691,2.458c2.029,1.621,3.042,3.957,3.042,7.001
				c0,3.135-1.002,5.525-3.021,7.182c-2.007,1.659-4.605,2.486-7.786,2.486h-3.883V1050.005z M336.421,1066.957h0.832
				c1.241,0,2.406-0.127,3.509-0.376c1.094-0.242,2.059-0.661,2.879-1.245c0.822-0.58,1.478-1.344,1.964-2.279
				c0.494-0.941,0.737-2.105,0.737-3.491c0-1.366-0.243-2.531-0.724-3.515c-0.48-0.97-1.153-1.728-2.018-2.275
				c-0.863-0.55-1.812-0.958-2.857-1.216c-1.04-0.249-2.197-0.385-3.49-0.385h-0.832V1066.957z"/>
			<path fill="#FFFFFF" d="M352.226,1063.576c0.032,1.059,0.375,1.984,1.017,2.769c0.661,0.775,1.51,1.162,2.561,1.162
				c0.833,0,1.512-0.183,2.046-0.567c0.532-0.382,1.04-0.964,1.511-1.741l1.926,1.095c-0.557,1.015-1.32,1.807-2.296,2.383
				c-0.97,0.571-2.044,0.868-3.211,0.868c-1.772,0-3.197-0.595-4.259-1.776c-1.053-1.206-1.574-2.689-1.574-4.467
				c0-1.871,0.496-3.422,1.495-4.627c0.983-1.182,2.407-1.772,4.29-1.772c1.826,0,3.203,0.591,4.138,1.772
				c0.945,1.184,1.418,2.697,1.418,4.55v0.353H352.226z M359.006,1061.849c-0.139-0.913-0.48-1.642-1.053-2.168
				c-0.571-0.528-1.308-0.81-2.222-0.81c-0.44,0-0.851,0.077-1.23,0.226c-0.385,0.138-0.718,0.353-1.022,0.614
				c-0.287,0.279-0.534,0.604-0.729,0.961c-0.196,0.362-0.325,0.764-0.391,1.177H359.006z"/>
			<path fill="#FFFFFF" d="M368.012,1059.981c-0.345-0.7-0.846-1.044-1.518-1.044c-0.319,0-0.611,0.107-0.867,0.338
				c-0.255,0.226-0.378,0.513-0.378,0.828c0,0.306,0.095,0.562,0.291,0.766c0.195,0.215,0.459,0.416,0.794,0.605
				c0.224,0.097,0.392,0.181,0.512,0.232c0.115,0.063,0.313,0.15,0.584,0.269c0.135,0.064,0.255,0.127,0.358,0.154
				c0.095,0.037,0.172,0.059,0.223,0.104c0.845,0.384,1.515,0.84,2.005,1.343c0.492,0.511,0.735,1.184,0.735,2.036
				c0,1.117-0.404,2.052-1.217,2.811c-0.794,0.751-1.746,1.121-2.87,1.121c-0.453,0-0.896-0.066-1.314-0.193
				c-0.427-0.125-0.823-0.306-1.183-0.535c-0.365-0.236-0.681-0.503-0.968-0.835c-0.276-0.331-0.495-0.701-0.64-1.111l1.954-0.879
				c0.551,1.012,1.274,1.517,2.15,1.517c0.36,0,0.688-0.094,0.995-0.285c0.302-0.193,0.524-0.442,0.671-0.745
				c0.143-0.295,0.173-0.61,0.088-0.957c-0.084-0.35-0.351-0.683-0.788-0.979l-2.235-1.194c-0.391-0.201-0.723-0.395-1.013-0.602
				c-0.286-0.212-0.526-0.43-0.71-0.654c-0.186-0.232-0.327-0.481-0.416-0.761c-0.091-0.277-0.142-0.602-0.142-0.982
				c0-0.962,0.335-1.764,1.018-2.432c0.67-0.679,1.504-1.014,2.485-1.014c1.485,0,2.57,0.696,3.248,2.081L368.012,1059.981z"/>
			<path fill="#FFFFFF" d="M376.211,1051.826c0,0.426-0.152,0.785-0.459,1.099c-0.303,0.301-0.676,0.438-1.116,0.438
				c-0.442,0-0.81-0.138-1.116-0.438c-0.303-0.313-0.457-0.673-0.457-1.099c0-0.439,0.153-0.812,0.457-1.136
				c0.306-0.315,0.673-0.46,1.116-0.46c0.44,0,0.813,0.145,1.116,0.46C376.059,1051.015,376.211,1051.387,376.211,1051.826z
				 M375.773,1069.132h-2.286v-11.878h2.286V1069.132z"/>
			<path fill="#FFFFFF" d="M390.551,1068.91c0,2.23-0.43,3.955-1.274,5.194c-0.84,1.223-2.354,1.828-4.515,1.828
				c-1.672,0-3.046-0.481-4.111-1.448c-1.048-0.964-1.597-2.272-1.625-3.929h2.278c0,1.062,0.334,1.88,0.981,2.473
				c0.648,0.589,1.508,0.876,2.58,0.876c1.299,0,2.192-0.384,2.675-1.143c0.478-0.765,0.72-1.841,0.72-3.218v-2.265h-0.047
				c-0.476,0.713-1.062,1.268-1.764,1.663c-0.704,0.403-1.462,0.602-2.272,0.602c-1.762,0-3.147-0.618-4.165-1.854
				c-1.012-1.239-1.52-2.765-1.52-4.569c0-1.716,0.514-3.169,1.545-4.369c1.039-1.229,2.378-1.85,4.035-1.85
				c1.747,0,3.124,0.799,4.14,2.389h0.047v-2.036h2.29V1068.91z M384.533,1067.507c1.2,0,2.139-0.407,2.815-1.245
				c0.696-0.838,1.04-1.867,1.04-3.068c0-1.178-0.344-2.191-1.04-3.022c-0.676-0.823-1.615-1.233-2.815-1.233
				c-1.133,0-2.044,0.413-2.743,1.266c-0.671,0.829-1.015,1.819-1.015,2.99c0,1.201,0.343,2.226,1.015,3.045
				C382.488,1067.086,383.399,1067.507,384.533,1067.507z"/>
			<path fill="#FFFFFF" d="M395.807,1058.852h0.04c0.343-0.621,0.838-1.108,1.479-1.441c0.637-0.34,1.346-0.509,2.104-0.509
				c0.778,0,1.436,0.122,1.98,0.353c0.544,0.238,0.976,0.577,1.309,1.018c0.328,0.44,0.565,0.982,0.704,1.607
				c0.151,0.642,0.216,1.359,0.216,2.176v7.077h-2.277v-6.796c0-1.175-0.174-2.021-0.511-2.566
				c-0.338-0.561-1.039-0.832-2.104-0.832c-0.395,0-0.722,0.034-0.995,0.107c-0.271,0.077-0.503,0.189-0.708,0.327
				c-0.204,0.147-0.371,0.321-0.51,0.494c-0.13,0.187-0.261,0.393-0.374,0.616c-0.052,0.113-0.104,0.266-0.143,0.453
				c-0.043,0.181-0.078,0.376-0.112,0.576c-0.034,0.19-0.066,0.382-0.081,0.578c-0.013,0.201-0.019,0.348-0.019,0.47v1.121v5.451
				h-2.289v-11.878h2.289V1058.852z"/>
			<path fill="#FFFFFF" d="M413.945,1047.105h2.284v12.129h0.048c1.053-1.554,2.429-2.333,4.14-2.333c1.66,0,3.001,0.62,4.037,1.85
				c1.03,1.2,1.548,2.653,1.548,4.369c0,1.805-0.518,3.33-1.524,4.569c-1.021,1.236-2.4,1.854-4.159,1.854
				c-0.81,0-1.571-0.198-2.276-0.602c-0.7-0.396-1.289-0.95-1.765-1.663h-0.048v1.853h-2.284V1047.105z M419.853,1067.507
				c1.209,0,2.145-0.407,2.826-1.245c0.693-0.838,1.032-1.867,1.032-3.068c0-1.178-0.339-2.191-1.032-3.022
				c-0.681-0.823-1.617-1.233-2.826-1.233c-1.133,0-2.044,0.413-2.738,1.266c-0.678,0.829-1.013,1.819-1.013,2.99
				c0,1.201,0.335,2.226,1.013,3.045C417.809,1067.086,418.72,1067.507,419.853,1067.507z"/>
			<path fill="#FFFFFF" d="M426.329,1057.254h2.665l4.007,7.544l3.728-7.544h2.569l-9.619,18.679h-2.591l4.671-8.833
				L426.329,1057.254z"/>
			<path fill="#FFFFFF" d="M450.817,1064.332l-2.183,4.8h-2.565l9.139-19.945l9.129,19.945h-2.559l-2.176-4.8H450.817z
				 M455.208,1054.418l-3.408,7.736h6.805L455.208,1054.418z"/>
			<path fill="#FFFFFF" d="M468.075,1069.132h-2.282v-22.026h2.282V1069.132z"/>
			<path fill="#FFFFFF" d="M473.708,1069.132h-2.285v-22.026h2.285V1069.132z"/>
			<path fill="#FFFFFF" d="M482.385,1060.053v1.899h-5.557v-1.899H482.385z"/>
			<path fill="#FFFFFF" d="M491.259,1049.418c-0.706-0.322-1.21-0.482-1.514-0.482c-0.495,0-0.846,0.148-1.063,0.466
				c-0.224,0.312-0.375,0.692-0.46,1.156c-0.05,0.335-0.075,0.604-0.095,0.799c-0.003,0.199-0.003,0.462-0.003,0.806v5.092h3.135
				v2.131h-3.135v9.747h-2.292v-9.747h-1.036v-2.131h1.036v-5.779c0-3.115,1.281-4.677,3.841-4.677c0.556,0,1.086,0.111,1.586,0.308
				V1049.418z"/>
			<path fill="#FFFFFF" d="M494.789,1059.181h0.076c0.29-0.705,0.705-1.266,1.273-1.669c0.563-0.404,1.221-0.61,1.98-0.61
				c0.632,0,1.248,0.193,1.886,0.586l-1.044,2.078c-0.375-0.331-0.842-0.479-1.396-0.479c-1.177,0-1.949,0.475-2.339,1.42
				c-0.169,0.44-0.289,0.877-0.344,1.307c-0.054,0.425-0.092,0.932-0.092,1.488v5.831h-2.275v-11.878h2.275V1059.181z"/>
			<path fill="#FFFFFF" d="M502.641,1063.576c0.027,1.059,0.371,1.984,1.018,2.769c0.655,0.775,1.503,1.162,2.556,1.162
				c0.819,0,1.514-0.183,2.043-0.567c0.533-0.382,1.038-0.964,1.505-1.741l1.927,1.095c-0.551,1.015-1.316,1.807-2.289,2.383
				c-0.973,0.571-2.047,0.868-3.213,0.868c-1.769,0-3.195-0.595-4.254-1.776c-1.053-1.206-1.577-2.689-1.577-4.467
				c0-1.871,0.5-3.422,1.493-4.627c0.981-1.182,2.407-1.772,4.288-1.772c1.827,0,3.21,0.591,4.146,1.772
				c0.938,1.184,1.406,2.697,1.406,4.55v0.353H502.641z M509.414,1061.849c-0.138-0.913-0.488-1.642-1.053-2.168
				c-0.565-0.528-1.304-0.81-2.224-0.81c-0.44,0-0.847,0.077-1.231,0.226c-0.375,0.138-0.72,0.353-1.008,0.614
				c-0.302,0.279-0.546,0.604-0.75,0.961c-0.188,0.362-0.319,0.764-0.381,1.177H509.414z"/>
			<path fill="#FFFFFF" d="M515.031,1063.576c0.027,1.059,0.364,1.984,1.007,2.769c0.654,0.775,1.515,1.162,2.562,1.162
				c0.831,0,1.515-0.183,2.041-0.567c0.537-0.382,1.035-0.964,1.515-1.741l1.923,1.095c-0.548,1.015-1.309,1.807-2.293,2.383
				c-0.978,0.571-2.043,0.868-3.212,0.868c-1.782,0-3.197-0.595-4.27-1.776c-1.041-1.206-1.563-2.689-1.563-4.467
				c0-1.871,0.493-3.422,1.5-4.627c0.976-1.182,2.41-1.772,4.286-1.772c1.819,0,3.203,0.591,4.129,1.772
				c0.956,1.184,1.423,2.697,1.423,4.55v0.353H515.031z M521.801,1061.849c-0.132-0.913-0.49-1.642-1.063-2.168
				c-0.562-0.528-1.298-0.81-2.211-0.81c-0.446,0-0.851,0.077-1.236,0.226c-0.379,0.138-0.712,0.353-1.008,0.614
				c-0.302,0.279-0.552,0.604-0.736,0.961c-0.198,0.362-0.33,0.764-0.398,1.177H521.801z"/>
			<path fill="#FFFFFF" d="M531.47,1060.053v1.899h-5.565v-1.899H531.47z"/>
			<path fill="#FFFFFF" d="M543.317,1067.279h-0.054c-0.471,0.713-1.061,1.268-1.762,1.663c-0.704,0.403-1.465,0.602-2.269,0.602
				c-1.764,0-3.149-0.618-4.159-1.854c-1.018-1.239-1.535-2.765-1.535-4.569c0-1.716,0.52-3.169,1.555-4.369
				c1.034-1.229,2.376-1.85,4.035-1.85c1.708,0,3.087,0.779,4.135,2.333h0.054v-12.129h2.279v22.026h-2.279V1067.279z
				 M539.586,1067.507c1.197,0,2.145-0.407,2.814-1.245c0.694-0.838,1.046-1.867,1.046-3.068c0-1.178-0.352-2.191-1.046-3.022
				c-0.67-0.823-1.617-1.233-2.814-1.233c-1.136,0-2.049,0.413-2.739,1.266c-0.677,0.829-1.016,1.819-1.016,2.99
				c0,1.201,0.339,2.226,1.016,3.045C537.537,1067.086,538.45,1067.507,539.586,1067.507z"/>
			<path fill="#FFFFFF" d="M549.331,1058.728c1.237-1.216,2.743-1.826,4.524-1.826c1.772,0,3.268,0.61,4.477,1.826
				c1.24,1.211,1.854,2.728,1.854,4.496c0,1.771-0.614,3.268-1.854,4.499c-1.209,1.211-2.704,1.821-4.477,1.821
				c-1.781,0-3.287-0.61-4.524-1.821c-1.219-1.231-1.83-2.729-1.83-4.499C547.501,1061.455,548.112,1059.938,549.331,1058.728z
				 M549.784,1063.224c0,1.094,0.41,2.068,1.203,2.906c0.773,0.827,1.737,1.228,2.868,1.228c1.106,0,2.07-0.4,2.859-1.228
				c0.799-0.838,1.192-1.813,1.192-2.906c0-1.119-0.394-2.101-1.192-2.92c-0.789-0.815-1.753-1.218-2.859-1.218
				c-1.131,0-2.095,0.402-2.868,1.218C550.194,1061.123,549.784,1062.104,549.784,1063.224z"/>
			<path fill="#FFFFFF" d="M566.339,1064.826l3.491-8.228l3.48,8.228l3.458-7.572h2.58l-6.038,12.29l-3.48-7.942l-3.491,7.942
				l-6.043-12.29h2.587L566.339,1064.826z"/>
			<path fill="#FFFFFF" d="M582.782,1058.852h0.049c0.336-0.621,0.825-1.108,1.468-1.441c0.646-0.34,1.349-0.509,2.105-0.509
				c0.781,0,1.447,0.122,1.984,0.353c0.54,0.238,0.974,0.577,1.309,1.018c0.327,0.44,0.563,0.982,0.7,1.607
				c0.146,0.642,0.218,1.359,0.218,2.176v7.077h-2.282v-6.796c0-1.175-0.156-2.021-0.505-2.566
				c-0.339-0.561-1.035-0.832-2.113-0.832c-0.381,0-0.711,0.034-0.986,0.107c-0.264,0.077-0.505,0.189-0.711,0.327
				c-0.2,0.147-0.37,0.321-0.505,0.494c-0.14,0.187-0.265,0.393-0.376,0.616c-0.05,0.113-0.102,0.266-0.143,0.453
				c-0.045,0.181-0.086,0.376-0.113,0.576c-0.037,0.19-0.054,0.382-0.084,0.578c-0.004,0.201-0.015,0.348-0.015,0.47v1.121v5.451
				h-2.284v-11.878h2.284V1058.852z"/>
			<path fill="#FFFFFF" d="M596.153,1069.132h-2.288v-22.026h2.288V1069.132z"/>
			<path fill="#FFFFFF" d="M600.16,1058.728c1.225-1.216,2.74-1.826,4.521-1.826c1.774,0,3.264,0.61,4.494,1.826
				c1.229,1.211,1.84,2.728,1.84,4.496c0,1.771-0.61,3.268-1.84,4.499c-1.23,1.211-2.72,1.821-4.494,1.821
				c-1.781,0-3.297-0.61-4.521-1.821c-1.225-1.231-1.829-2.729-1.829-4.499C598.331,1061.455,598.936,1059.938,600.16,1058.728z
				 M600.619,1063.224c0,1.094,0.399,2.068,1.188,2.906c0.779,0.827,1.738,1.228,2.874,1.228c1.109,0,2.069-0.4,2.87-1.228
				c0.788-0.838,1.185-1.813,1.185-2.906c0-1.119-0.396-2.101-1.185-2.92c-0.801-0.815-1.761-1.218-2.87-1.218
				c-1.136,0-2.095,0.402-2.874,1.218C601.019,1061.123,600.619,1062.104,600.619,1063.224z"/>
			<path fill="#FFFFFF" d="M624.246,1069.132h-2.288v-1.853h-0.047c-1.017,1.502-2.365,2.265-4.039,2.265
				c-1.742,0-3.13-0.618-4.161-1.854c-1.016-1.239-1.523-2.765-1.523-4.569c0-1.716,0.512-3.169,1.55-4.369
				c1.03-1.229,2.387-1.85,4.054-1.85c1.699,0,3.07,0.779,4.12,2.333h0.047v-1.98h2.288V1069.132z M618.229,1067.507
				c1.21,0,2.136-0.407,2.817-1.245c0.691-0.838,1.039-1.867,1.039-3.068c0-1.178-0.348-2.191-1.039-3.022
				c-0.682-0.823-1.607-1.233-2.817-1.233c-1.132,0-2.049,0.413-2.736,1.266c-0.679,0.829-1.024,1.819-1.024,2.99
				c0,1.201,0.346,2.226,1.024,3.045C616.18,1067.086,617.097,1067.507,618.229,1067.507z"/>
			<path fill="#FFFFFF" d="M636.064,1067.279h-0.043c-0.478,0.713-1.074,1.268-1.766,1.663c-0.703,0.403-1.459,0.602-2.271,0.602
				c-1.764,0-3.153-0.618-4.168-1.854c-1.012-1.239-1.522-2.765-1.522-4.569c0-1.716,0.526-3.169,1.553-4.369
				c1.031-1.229,2.374-1.85,4.041-1.85c1.704,0,3.074,0.779,4.134,2.333h0.043v-12.129h2.288v22.026h-2.288V1067.279z
				 M632.339,1067.507c1.197,0,2.132-0.407,2.81-1.245c0.694-0.838,1.043-1.867,1.043-3.068c0-1.178-0.349-2.191-1.043-3.022
				c-0.678-0.823-1.612-1.233-2.81-1.233c-1.137,0-2.052,0.413-2.741,1.266c-0.675,0.829-1.018,1.819-1.018,2.99
				c0,1.201,0.343,2.226,1.018,3.045C630.287,1067.086,631.202,1067.507,632.339,1067.507z"/>
			<path fill="#FFFFFF" d="M644.898,1068.066c0,0.407-0.141,0.749-0.419,1.037c-0.299,0.29-0.649,0.44-1.056,0.44
				c-0.407,0-0.752-0.15-1.03-0.44c-0.293-0.288-0.438-0.63-0.438-1.037c0-0.388,0.146-0.733,0.438-1.027
				c0.278-0.293,0.623-0.438,1.03-0.438c0.406,0,0.757,0.146,1.056,0.438C644.758,1067.333,644.898,1067.679,644.898,1068.066z"/>
			<path fill="#FFFFFF" d="M657.382,1060.629c-0.943-1.063-2.082-1.597-3.393-1.597c-1.105,0-2.051,0.417-2.822,1.244
				c-0.768,0.84-1.132,1.826-1.132,2.917c0,1.239,0.364,2.245,1.132,3.019c0.797,0.802,1.789,1.196,2.964,1.196
				c1.219,0,2.308-0.539,3.251-1.572v2.915c-0.981,0.522-2.069,0.793-3.271,0.793c-1.76,0-3.269-0.61-4.522-1.81
				c-1.231-1.177-1.842-2.656-1.842-4.434c0-1.826,0.61-3.362,1.842-4.573c1.241-1.216,2.791-1.826,4.648-1.826
				c1.227,0,2.27,0.264,3.146,0.779V1060.629z"/>
			<path fill="#FFFFFF" d="M660.606,1058.728c1.237-1.216,2.745-1.826,4.518-1.826c1.774,0,3.28,0.61,4.486,1.826
				c1.245,1.211,1.855,2.728,1.855,4.496c0,1.771-0.61,3.268-1.855,4.499c-1.206,1.211-2.712,1.821-4.486,1.821
				c-1.772,0-3.28-0.61-4.518-1.821c-1.218-1.231-1.83-2.729-1.83-4.499C658.776,1061.455,659.389,1059.938,660.606,1058.728z
				 M661.064,1063.224c0,1.094,0.401,2.068,1.194,2.906c0.767,0.827,1.737,1.228,2.865,1.228c1.113,0,2.077-0.4,2.866-1.228
				c0.797-0.838,1.192-1.813,1.192-2.906c0-1.119-0.396-2.101-1.192-2.92c-0.789-0.815-1.753-1.218-2.866-1.218
				c-1.128,0-2.099,0.402-2.865,1.218C661.466,1061.123,661.064,1062.104,661.064,1063.224z"/>
			<path fill="#FFFFFF" d="M675.759,1058.751h0.051c0.336-0.542,0.776-0.981,1.355-1.328c0.567-0.353,1.163-0.521,1.783-0.521
				c1.48,0,2.617,0.7,3.434,2.109c0.369-0.643,0.885-1.16,1.538-1.545c0.645-0.378,1.359-0.564,2.109-0.564
				c2.63,0,3.938,1.708,3.938,5.121v7.109h-2.279v-6.727c0-0.301-0.01-0.604-0.047-0.894c-0.016-0.306-0.073-0.592-0.133-0.862
				c-0.073-0.288-0.168-0.546-0.306-0.783c-0.138-0.226-0.328-0.447-0.557-0.632c-0.305-0.202-0.698-0.297-1.166-0.297
				c-0.481,0-0.879,0.095-1.216,0.297c-0.331,0.185-0.574,0.421-0.756,0.689c-0.181,0.283-0.322,0.641-0.415,1.061
				c-0.099,0.42-0.167,0.807-0.193,1.146c-0.03,0.333-0.038,0.725-0.038,1.171v5.831h-2.288v-6.293c0-0.405,0-0.736-0.018-1.01
				c-0.023-0.281-0.073-0.614-0.157-1.021c-0.081-0.438-0.188-0.756-0.326-0.969c-0.14-0.234-0.354-0.438-0.63-0.631
				c-0.3-0.181-0.636-0.271-1.042-0.271c-1.17,0-1.924,0.499-2.266,1.513c-0.15,0.485-0.248,0.921-0.301,1.352
				c-0.054,0.414-0.075,0.913-0.075,1.499v5.831h-2.288v-11.878h2.288V1058.751z"/>
		</g>
		<g>
			<g>
				<path fill="#FFFFFF" d="M280.801,1062.124c10.778,0,21.548,0,32.324,0c0.978,0,0.978-1.507,0-1.507c-10.776,0-21.546,0-32.324,0
					C279.826,1060.617,279.826,1062.124,280.801,1062.124L280.801,1062.124z"/>
			</g>
			<g>
				<path fill="#FFFFFF" d="M710.875,1062.124c10.775,0,21.551,0,32.318,0c0.986,0,0.986-1.507,0-1.507c-10.768,0-21.543,0-32.318,0
					C709.897,1060.617,709.897,1062.124,710.875,1062.124L710.875,1062.124z"/>
			</g>
		</g>
	</g>
</g>
<radialGradient id="SVGID_1_" cx="511.6123" cy="889.96" r="396.3436" gradientTransform="matrix(1.0904 0 0 0.0718 -41.4971 826.0217)" gradientUnits="userSpaceOnUse">
	<stop  offset="0" style="stop-color:#000000"/>
	<stop  offset="0.8495" style="stop-color:#FFFFFF"/>
</radialGradient>
<ellipse opacity="0.6" fill="url(#SVGID_1_)" cx="516.365" cy="889.96" rx="491" ry="42.731"/>
<g>
	<polygon fill="#7C828B" points="602.822,878.777 429.914,878.777 439.806,804.381 594.341,804.381 	"/>
	<path fill="#C5CED6" d="M175.388,742.074v45.938c0,9.324,7.63,16.958,16.962,16.958h648.039c9.319,0,16.953-7.634,16.953-16.958
		v-45.938H175.388z"/>
	<path fill="#404041" d="M857.342,351.981c0-9.327-7.634-16.959-16.953-16.959H192.35c-9.332,0-16.962,7.632-16.962,16.959v390.093
		h681.954V351.981z"/>
	<rect x="199.415" y="357.635" fill="#E6E7E8" width="633.903" height="361.825"/>
	<polygon fill="#C5CED6" points="429.914,878.777 602.822,878.777 633.233,885.965 399.498,886.138 	"/>
	<polygon fill="#7C828B" points="631.642,889.96 401.087,889.96 399.558,886.138 633.233,885.965 	"/>
	<path fill="#404041" d="M528.496,775.524c0,6.698-5.431,12.129-12.129,12.129c-6.708,0-12.133-5.431-12.133-12.129
		c0-6.703,5.425-12.136,12.133-12.136C523.065,763.389,528.496,768.821,528.496,775.524z"/>
</g>
<g>
	<g>
		<g>
			<rect x="199.415" y="357.635" fill="#C2DEF9" width="634.079" height="36.139"/>
		</g>
		<rect x="688.253" y="401.507" fill="#FFFFFF" width="133.301" height="176.947"/>
		<g>
			<rect x="199.415" y="401.728" fill="#DEECF9" width="482.809" height="317.732"/>
		</g>
		<rect x="285.399" y="367.029" fill="#97D2FF" width="294.918" height="17.354"/>
		<rect x="255.487" y="367.029" fill="#FFFFFF" width="18.188" height="17.354"/>
		<g>
			<path fill="#FFFFFF" d="M752.901,383.081c0,0,0-0.667,0-1.017c0-3.371-2.68-6.107-5.986-6.107c-1.092,0-4.895,0-5.986,0
				c-3.307,0-5.986,2.736-5.986,6.107c0,0.35,0,1.017,0,1.017H752.901z"/>
			<path fill="#FFFFFF" d="M747.911,368.833c0,2.247-1.783,4.07-3.986,4.07c-2.207,0-3.992-1.823-3.992-4.07
				c0-2.248,1.785-4.071,3.992-4.071C746.128,364.762,747.911,366.585,747.911,368.833z"/>
		</g>
		<ellipse fill="#F5A402" cx="752.209" cy="382.628" rx="5.319" ry="5.427"/>
		<path fill="#FFFFFF" d="M787.837,365.818h-16.256c-0.838,0-1.523,0.696-1.523,1.551v12.959c0,0.855,0.686,1.555,1.523,1.555h1.016
			v3.626l3.555-3.626h11.686c0.838,0,1.521-0.7,1.521-1.555v-12.959C789.358,366.514,788.675,365.818,787.837,365.818z"/>
		<path fill="#F5A402" d="M794.374,382.628c0,2.999-2.381,5.427-5.318,5.427c-2.939,0-5.326-2.429-5.326-5.427
			s2.387-5.427,5.326-5.427C791.993,377.201,794.374,379.629,794.374,382.628z"/>
		<rect x="688.253" y="585.644" fill="#FFFFFF" width="133.301" height="127.122"/>
		<g>
			<rect x="688.253" y="656.588" fill="#C2DEF9" width="133.301" height="56.715"/>
		</g>
		<g>
			<rect x="732.259" y="434.797" fill="#97D2FF" width="31.844" height="7.52"/>
			<rect x="697.228" y="410.438" fill="#97D2FF" width="31.844" height="7.519"/>
			<rect x="697.228" y="560.456" fill="#97D2FF" width="31.844" height="7.52"/>
			<rect x="762.511" y="410.438" fill="#97D2FF" width="10.873" height="7.519"/>
			<rect x="779.241" y="410.438" fill="#97D2FF" width="10.875" height="7.519"/>
			<rect x="697.228" y="594.574" fill="#97D2FF" width="31.844" height="7.52"/>
			<rect x="762.511" y="594.574" fill="#97D2FF" width="10.873" height="7.52"/>
			<rect x="779.241" y="594.574" fill="#97D2FF" width="10.875" height="7.52"/>
			<rect x="732.259" y="448.877" fill="#97D2FF" width="56.264" height="7.52"/>
			<path fill="#97D2FF" d="M723.499,445.056c0,7.328-5.82,13.271-12.998,13.271c-7.186,0-13.006-5.942-13.006-13.271
				s5.82-13.267,13.006-13.267C717.679,431.789,723.499,437.728,723.499,445.056z"/>
			<rect x="732.259" y="478.125" fill="#97D2FF" width="31.844" height="7.52"/>
			<rect x="732.259" y="492.206" fill="#97D2FF" width="56.264" height="7.519"/>
			<path fill="#97D2FF" d="M723.499,488.384c0,7.325-5.82,13.264-12.998,13.264c-7.186,0-13.006-5.939-13.006-13.264
				c0-7.332,5.82-13.271,13.006-13.271C717.679,475.114,723.499,481.053,723.499,488.384z"/>
			<rect x="732.259" y="521.447" fill="#97D2FF" width="31.844" height="7.526"/>
			<rect x="732.259" y="535.527" fill="#97D2FF" width="56.264" height="7.526"/>
			<rect x="732.259" y="622.184" fill="#97D2FF" width="31.844" height="7.52"/>
			<rect x="732.259" y="636.264" fill="#97D2FF" width="56.264" height="7.52"/>
			<path fill="#97D2FF" d="M723.499,531.706c0,7.332-5.82,13.271-12.998,13.271c-7.186,0-13.006-5.938-13.006-13.271
				c0-7.325,5.82-13.264,13.006-13.264C717.679,518.442,723.499,524.381,723.499,531.706z"/>
			<rect x="697.761" y="617.786" fill="#97D2FF" width="25.473" height="25.997"/>
		</g>
	</g>
	<g>
		<g>
			<rect x="470.869" y="557.664" fill="#FFFFFF" width="350.685" height="136.533"/>
			<g>
				<g>
					<rect x="583.925" y="581.362" fill="#97D2FF" width="181.119" height="10.284"/>
				</g>
				<g>
					<rect x="583.925" y="603.402" fill="#97D2FF" width="206.602" height="7.7"/>
				</g>
				<g>
					<rect x="583.083" y="621.4" fill="#97D2FF" width="180.355" height="7.766"/>
				</g>
				<g>
					<rect x="583.083" y="638.803" fill="#97D2FF" width="200.814" height="7.707"/>
				</g>
				<g>
					<rect x="583.083" y="657.56" fill="#97D2FF" width="44.867" height="7.7"/>
				</g>
			</g>
			<rect x="491.742" y="581.906" fill="#97D2FF" width="74.957" height="90.433"/>
		</g>
		<g>
			
				<line fill="none" stroke="#FFFFFF" stroke-width="0.3313" stroke-miterlimit="10" x1="491.742" y1="581.906" x2="641.657" y2="672.339"/>
			
				<line fill="none" stroke="#FFFFFF" stroke-width="0.3313" stroke-miterlimit="10" x1="641.657" y1="581.906" x2="491.742" y2="672.339"/>
		</g>
	</g>
	<g>
		<rect x="215.908" y="413.768" fill="#FFFFFF" width="239.045" height="280.171"/>
		<g>
			<rect x="228.828" y="428.913" fill="#EDF2F8" width="213.205" height="111.206"/>
		</g>
		<g>
			<g>
				<rect x="228.828" y="553.306" fill="#EDF2F8" width="213.205" height="125.251"/>
			</g>
			<g>
				<polygon fill="#97D2FF" points="442.033,678.557 313.029,678.083 375.271,617.028 				"/>
				<polygon fill="#97D2FF" points="420.496,678.557 229.041,677.851 321.417,587.243 				"/>
				<path fill="#97D2FF" d="M425.881,575.824c0,5.771-4.583,10.44-10.231,10.44c-5.65,0-10.229-4.669-10.229-10.44
					c0-5.764,4.579-10.434,10.229-10.434C421.298,565.391,425.881,570.061,425.881,575.824z"/>
			</g>
		</g>
	</g>
	<g>
		<rect x="470.027" y="413.768" fill="#FFFFFF" width="198.13" height="126.352"/>
		<g>
			<g>
				<rect x="487.648" y="438.527" fill="#97D2FF" width="148.97" height="10.288"/>
			</g>
			<g>
				<rect x="487.648" y="460.567" fill="#97D2FF" width="169.929" height="7.701"/>
			</g>
			<g>
				<rect x="486.949" y="478.565" fill="#97D2FF" width="148.349" height="7.766"/>
			</g>
			<g>
				<rect x="486.949" y="495.968" fill="#97D2FF" width="165.175" height="7.707"/>
			</g>
			<g>
				<rect x="486.949" y="514.725" fill="#97D2FF" width="36.906" height="7.7"/>
			</g>
		</g>
	</g>
</g>
<g>
	<path fill="#F5A402" d="M538.244,273.615l3.881,5.656c0.211,0.306,0.514,0.528,0.872,0.633l6.575,1.941
		c1.088,0.318,1.509,1.625,0.822,2.521l-4.184,5.436c-0.223,0.293-0.341,0.652-0.334,1.023l0.191,6.857
		c0.031,1.128-1.081,1.938-2.145,1.561l-6.465-2.299c-0.346-0.124-0.729-0.124-1.075,0l-6.464,2.299
		c-1.063,0.377-2.176-0.433-2.146-1.561l0.192-6.857c0.006-0.371-0.111-0.729-0.334-1.023l-4.185-5.436
		c-0.686-0.896-0.266-2.203,0.822-2.521l6.575-1.941c0.354-0.105,0.662-0.328,0.872-0.633l3.875-5.656
		C536.235,272.683,537.607,272.683,538.244,273.615z"/>
	<path fill="#F5A402" d="M586.574,273.615l3.875,5.656c0.21,0.306,0.519,0.528,0.871,0.633l6.582,1.941
		c1.082,0.318,1.508,1.625,0.815,2.521l-4.184,5.436c-0.223,0.293-0.34,0.652-0.327,1.023l0.185,6.857
		c0.031,1.128-1.081,1.938-2.145,1.561l-6.464-2.299c-0.347-0.124-0.729-0.124-1.075,0l-6.465,2.299
		c-1.063,0.377-2.176-0.433-2.145-1.561l0.191-6.857c0.006-0.371-0.111-0.729-0.334-1.023l-4.184-5.436
		c-0.687-0.896-0.26-2.203,0.822-2.521l6.575-1.941c0.358-0.105,0.661-0.328,0.872-0.633l3.881-5.656
		C584.56,272.683,585.932,272.683,586.574,273.615z"/>
	<path fill="#F5A402" d="M636.622,273.615l3.881,5.656c0.204,0.306,0.514,0.528,0.872,0.633l6.575,1.941
		c1.082,0.318,1.508,1.625,0.822,2.521l-4.184,5.436c-0.229,0.293-0.347,0.652-0.334,1.023l0.191,6.857
		c0.031,1.128-1.082,1.938-2.15,1.561l-6.459-2.299c-0.352-0.124-0.729-0.124-1.075,0l-6.465,2.299
		c-1.063,0.377-2.175-0.433-2.145-1.561l0.186-6.857c0.013-0.371-0.104-0.729-0.334-1.023l-4.178-5.436
		c-0.692-0.896-0.266-2.203,0.816-2.521l6.582-1.941c0.352-0.105,0.661-0.328,0.871-0.633l3.875-5.656
		C634.607,272.683,635.985,272.683,636.622,273.615z"/>
	<path fill="#F5A402" d="M686.677,273.615l3.875,5.656c0.21,0.306,0.519,0.528,0.871,0.633l6.582,1.941
		c1.081,0.318,1.508,1.625,0.815,2.521l-4.184,5.436c-0.223,0.293-0.34,0.652-0.334,1.023l0.191,6.857
		c0.031,1.128-1.081,1.938-2.145,1.561l-6.464-2.299c-0.347-0.124-0.729-0.124-1.076,0l-6.465,2.299
		c-1.063,0.377-2.175-0.433-2.145-1.561l0.192-6.857c0.006-0.371-0.111-0.729-0.334-1.023l-4.185-5.436
		c-0.686-0.896-0.266-2.203,0.822-2.521l6.576-1.941c0.358-0.105,0.661-0.328,0.871-0.633l3.881-5.656
		C684.661,272.683,686.033,272.683,686.677,273.615z"/>
	<path fill="#F5A402" d="M735,273.615l3.875,5.656c0.21,0.306,0.52,0.528,0.871,0.633l6.582,1.941
		c1.082,0.318,1.509,1.625,0.816,2.521l-4.178,5.436c-0.229,0.293-0.347,0.652-0.334,1.023l0.186,6.857
		c0.03,1.128-1.082,1.938-2.145,1.561l-6.465-2.299c-0.347-0.124-0.724-0.124-1.075,0l-6.459,2.299
		c-1.068,0.377-2.182-0.433-2.15-1.561l0.191-6.857c0.013-0.371-0.104-0.729-0.334-1.023l-4.184-5.436
		c-0.686-0.896-0.26-2.203,0.822-2.521l6.575-1.941c0.358-0.105,0.668-0.328,0.872-0.633l3.881-5.656
		C732.985,272.683,734.363,272.683,735,273.615z"/>
</g>
<g>
	<g>
		<g>
			<g>
				<path fill="#162873" d="M301.093,289.249H137.852c-7.044,0-12.754-5.71-12.754-12.764V166.289
					c0-7.046,5.71-12.759,12.754-12.759h163.241c7.044,0,12.755,5.713,12.755,12.759v110.196
					C313.848,283.538,308.137,289.249,301.093,289.249z"/>
			</g>
			<path fill="#162873" d="M256.135,286.126v21.495c0,3.582,4.332,5.375,6.86,2.841l24.341-24.336H256.135z"/>
		</g>
		<g>
			<g>
				<path fill="#DEECF9" d="M190.644,220.607c0,6.009-4.874,10.881-10.878,10.881s-10.879-4.872-10.879-10.881
					c0-6.007,4.874-10.878,10.879-10.878S190.644,214.601,190.644,220.607z"/>
			</g>
			<g>
				<path fill="#DEECF9" d="M229.808,220.607c0,6.009-4.874,10.881-10.878,10.881s-10.878-4.872-10.878-10.881
					c0-6.007,4.874-10.878,10.878-10.878S229.808,214.601,229.808,220.607z"/>
			</g>
			<g>
				<path fill="#DEECF9" d="M270.058,220.607c0,6.009-4.874,10.881-10.878,10.881s-10.878-4.872-10.878-10.881
					c0-6.007,4.874-10.878,10.878-10.878S270.058,214.601,270.058,220.607z"/>
			</g>
		</g>
	</g>
	<g>
		<g>
			<path fill="#F5A402" d="M295.41,456.168h163.241c7.044,0,12.754-5.715,12.754-12.764V333.204c0-7.044-5.71-12.754-12.754-12.754
				H295.41c-7.044,0-12.754,5.71-12.754,12.754v110.201C282.656,450.453,288.366,456.168,295.41,456.168z"/>
			<path fill="#F5A402" d="M340.368,453.042v21.5c0,3.577-4.331,5.37-6.86,2.841l-24.332-24.341H340.368z"/>
		</g>
		<g>
			<g>
				<path fill="#FFFFFF" d="M405.859,387.522c0,6.014,4.874,10.878,10.878,10.878c6.005,0,10.879-4.865,10.879-10.878
					c0-6.005-4.874-10.878-10.879-10.878C410.733,376.644,405.859,381.518,405.859,387.522z"/>
			</g>
			<g>
				<path fill="#FFFFFF" d="M366.695,387.522c0,6.014,4.874,10.878,10.878,10.878c6.014,0,10.878-4.865,10.878-10.878
					c0-6.005-4.864-10.878-10.878-10.878C371.568,376.644,366.695,381.518,366.695,387.522z"/>
			</g>
			<g>
				<path fill="#FFFFFF" d="M326.445,387.522c0,6.014,4.874,10.878,10.878,10.878c6.005,0,10.878-4.865,10.878-10.878
					c0-6.005-4.874-10.878-10.878-10.878C331.319,376.644,326.445,381.518,326.445,387.522z"/>
			</g>
		</g>
	</g>
</g>
</svg>
