<?xml version="1.0" encoding="utf-8"?>
<!-- Generator: Adobe Illustrator 23.0.0, SVG Export Plug-In . SVG Version: 6.00 Build 0)  -->
<svg version="1.1" id="Layer_1" xmlns="http://www.w3.org/2000/svg" xmlns:xlink="http://www.w3.org/1999/xlink" x="0px" y="0px"
	 viewBox="0 0 1024 1024" style="enable-background:new 0 0 1024 1024;" xml:space="preserve">
<style type="text/css">
	.st0{fill:#F97118;}
	.st1{clip-path:url(#SVGID_2_);fill:none;stroke:#3CCECA;stroke-width:12;stroke-miterlimit:10;}
	.st2{clip-path:url(#SVGID_2_);}
	.st3{fill:#FDC800;}
	.st4{fill:#FFFFFF;}
	.st5{fill:#FFCD9A;}
	.st6{fill:#F7E7BC;}
	.st7{fill:#E82D65;}
	.st8{fill:#3CCECA;}
	.st9{fill:#FFBDCD;}
	.st10{fill:#FCDBE4;}
	.st11{fill:#76C9E2;}
	.st12{fill:#F8CA4E;}
	.st13{fill:#302D4F;}
	.st14{fill:#FAA722;}
	.st15{fill:#00A89D;}
	.st16{fill:#FFBD16;}
	.st17{opacity:0.5;fill:#FFFFFF;}
	.st18{opacity:0.3;fill:#E82D65;}
	.st19{fill:#FFA408;}
</style>
<g>
	<path class="st0" d="M324.93,894.3l341.68-2.14c16.69-0.17,30.07-13.5,29.89-29.76l0.1-456c-0.18-16.26-13.85-29.31-30.54-29.14
		l-341.68,2.14c-16.69,0.17-30.07,13.5-29.89,29.76l-0.1,456C294.57,881.43,308.24,894.47,324.93,894.3z"/>
	<g>
		<defs>
			<path id="SVGID_1_" d="M331.97,877.78l327.35-2.02c13.02-0.13,23.46-10.53,23.33-23.22l0.19-438.67
				c-0.14-12.69-10.81-22.87-23.83-22.73l-327.35,2.02c-13.02,0.13-23.46,10.53-23.33,23.22l-0.19,438.67
				C308.28,867.74,318.94,877.92,331.97,877.78z"/>
		</defs>
		<use xlink:href="#SVGID_1_"  style="overflow:visible;fill:#FFE6ED;"/>
		<clipPath id="SVGID_2_">
			<use xlink:href="#SVGID_1_"  style="overflow:visible;"/>
		</clipPath>
		<path class="st1" d="M294.39,590.15h75.16c12.3,0,22.27-15.01,22.27-33.52V352.19"/>
		<path class="st1" d="M427.74,363.53v126.81c0,16.51,19.58,29.89,43.74,29.89h234.41"/>
		<line class="st1" x1="270.47" y1="629.68" x2="720.65" y2="629.68"/>
		<g class="st2">
			<path class="st3" d="M639.48,613.99H482.42c-4.23,0-7.65-3.34-7.65-7.46v-38.51c0-4.12,3.43-7.46,7.65-7.46h157.06
				c4.23,0,7.65,3.34,7.65,7.46v38.51C647.13,610.66,643.71,613.99,639.48,613.99z"/>
			<g>
				<path class="st4" d="M498.41,589.52c0.63,0.8,0.95,1.79,0.95,2.97c0,1.66-0.66,2.94-1.99,3.84c-1.33,0.9-3.26,1.34-5.8,1.34
					h-10.07v-18.99h9.52c2.37,0,4.2,0.44,5.47,1.33c1.27,0.89,1.91,2.09,1.91,3.61c0,0.92-0.23,1.74-0.68,2.47
					c-0.45,0.72-1.09,1.29-1.91,1.71C496.91,588.15,497.78,588.72,498.41,589.52z M485.97,582v4.48h4.48c1.11,0,1.96-0.19,2.53-0.57
					c0.57-0.38,0.86-0.94,0.86-1.68c0-0.74-0.29-1.3-0.86-1.67c-0.58-0.37-1.42-0.56-2.53-0.56H485.97z M493.92,593.8
					c0.6-0.38,0.9-0.97,0.9-1.76c0-1.57-1.2-2.36-3.59-2.36h-5.26v4.69h5.26C492.42,594.37,493.32,594.18,493.92,593.8z"/>
				<path class="st4" d="M504.94,595.75c-1.55-1.5-2.32-3.64-2.32-6.43v-10.63h4.51v10.47c0,3.4,1.45,5.1,4.34,5.1
					c1.41,0,2.49-0.41,3.23-1.23c0.74-0.82,1.11-2.11,1.11-3.87v-10.47h4.45v10.63c0,2.78-0.77,4.93-2.32,6.43
					c-1.55,1.5-3.72,2.25-6.5,2.25S506.49,597.25,504.94,595.75z"/>
				<path class="st4" d="M533.78,590.95v6.73h-4.51v-6.78l-7.54-12.21h4.79l5.21,8.44l5.2-8.44h4.43L533.78,590.95z"/>
				<path class="st4" d="M568.99,578.69v18.99h-3.7l-9.71-11.53v11.53h-4.45v-18.99h3.73l9.68,11.53v-11.53H568.99z"/>
				<path class="st4" d="M577.57,596.73c-1.62-0.85-2.89-2.02-3.81-3.51c-0.92-1.49-1.38-3.17-1.38-5.03c0-1.86,0.46-3.54,1.38-5.03
					c0.92-1.49,2.19-2.66,3.81-3.51c1.62-0.85,3.45-1.27,5.47-1.27c2.02,0,3.84,0.42,5.45,1.27c1.61,0.85,2.89,2.02,3.81,3.51
					c0.93,1.49,1.39,3.17,1.39,5.03c0,1.86-0.46,3.54-1.39,5.03c-0.93,1.49-2.2,2.66-3.81,3.51c-1.61,0.85-3.43,1.27-5.45,1.27
					C581.02,598,579.19,597.58,577.57,596.73z M586.16,593.48c0.93-0.52,1.65-1.23,2.18-2.16c0.53-0.92,0.79-1.97,0.79-3.15
					s-0.26-2.22-0.79-3.15c-0.53-0.92-1.26-1.64-2.18-2.16c-0.93-0.52-1.97-0.77-3.12-0.77c-1.15,0-2.19,0.26-3.12,0.77
					c-0.93,0.52-1.66,1.23-2.18,2.16c-0.53,0.92-0.79,1.97-0.79,3.15s0.26,2.22,0.79,3.15c0.53,0.92,1.26,1.64,2.18,2.16
					c0.93,0.52,1.97,0.77,3.12,0.77C584.19,594.26,585.23,594,586.16,593.48z"/>
				<path class="st4" d="M625.89,578.69l-6.37,18.99h-4.84l-4.29-12.86l-4.42,12.86h-4.81l-6.4-18.99h4.68l4.4,13.34l4.59-13.34
					h4.17l4.45,13.45l4.54-13.45H625.89z"/>
				<path class="st4" d="M636.51,597.17c-0.51-0.48-0.77-1.06-0.77-1.75c0-0.69,0.25-1.26,0.75-1.72c0.5-0.46,1.14-0.69,1.92-0.69
					c0.78,0,1.42,0.23,1.92,0.69s0.75,1.04,0.75,1.72c0,0.69-0.26,1.27-0.77,1.75c-0.51,0.48-1.15,0.72-1.91,0.72
					C637.66,597.89,637.02,597.65,636.51,597.17z M635.83,578.69h5.18l-0.86,12.39h-3.45L635.83,578.69z"/>
			</g>
		</g>
		<path class="st1" d="M293.38,672h124.21c26,0,47.08,15.75,47.08,35.18v242.14"/>
		<path class="st1" d="M560.1,902.96V771.63c0-13.6,11.22-24.63,25.06-24.63h168.31"/>
		<path class="st1" d="M514.95,879.96V691.37c0-19.53,11.22-35.37,25.06-35.37h168.31"/>
	</g>
	<g>
		<g>
			<g>
				<polygon class="st5" points="333.58,900.66 306.46,958 201.48,958 262.1,865.25 				"/>
				<path class="st5" d="M356.9,659.44c-2.34-1.68-6.29-2.72-9.02-2.97c-12.78-1.14-20.5,7.26-24.48,37.01
					c-4.82,36.11-0.42,64.84-21.99,71.59c-3.2,1-2.85,0.76-7.03,1.68V629.77c-19.2,31.62-49.94,74.76-63.65,96.23
					c-8.8,13.78-14.96,33.17-11.29,49c20.87,90.07,33.02,161.56,59.63,168.62c0,0,86.22-2.57,86.21-170.94
					c0,0,0.97-84.74-2.91-103.63C361.14,662.95,358.53,660.61,356.9,659.44z"/>
			</g>
			<g>
				<path class="st6" d="M337.05,687.95c0,0-2.3-25.62,12.92-25.62c13.13,0,10.84,25.62,10.84,25.62H337.05z"/>
			</g>
			<polygon class="st5" points="294.39,766.76 277.94,769.97 294.39,687.84 			"/>
		</g>
	</g>
	<g>
		<g>
			<g>
				<g>
					<g>
						<g>
							<path class="st5" d="M743.33,751.46l-37.89-76.32c-4.08-8.55-14.46-12.32-23.29-8.44l0,0c-8.79,3.86-12.79,13.87-8.99,22.51
								l34.69,74.72L743.33,751.46z"/>
							<path class="st5" d="M682.15,666.69c0,0-44.38,32.33-90.47,42.2c-4.01,0.86-6.88,4.27-6.88,8.27l0,0
								c0,4.28,3.27,7.92,7.64,8.41c17.22,1.91,55.18,6.2,105.61-33.18L682.15,666.69z"/>
						</g>
						<path class="st6" d="M610.42,703.57c0,0,5.58,9.37-8.79,11.55c-8.77,1.33-12.06-0.91-13.3-2.85
							c-0.69-1.09-0.03-2.53,1.24-2.83L610.42,703.57z"/>
					</g>
				</g>
				<g>
					<path class="st5" d="M770.75,754.46l-37.89-76.32c-4.08-8.55-14.46-12.32-23.29-8.44h0c-8.79,3.86-12.79,13.87-8.99,22.51
						l34.69,74.72L770.75,754.46z"/>
				</g>
				<g>
					<path class="st5" d="M797.05,766.91c0,0-25.02-61.53-38.11-80.95c-5.32-7.88-14.46-12.32-23.29-8.44h0
						c-8.79,3.86-12.79,13.87-8.99,22.51l34.69,74.72L797.05,766.91z"/>
				</g>
				<path class="st5" d="M659.06,769.31c-0.48-0.17-0.93-0.38-1.37-0.63c-4.19-2.37-30.89-16.43-53.55-21.25
					c-13.2-2.81-24.62,1.92-30.85,8.23c-5.35,5.42-1.57,13.5,5.94,15.26c24.88,5.85,49.64,30.46,61.93,39.08
					c27.65,19.4,24.08,67.62,97.87,71.44c4.47,0.23,40.09-1.26,41.22-5.49l-16.12-59.31c1.2-4.51-1.28-9.17-5.75-10.82
					L659.06,769.31z"/>
				<path class="st5" d="M658.31,769.03c0,0,9.08-0.34,7.23-16.59c0,0,62.37-24.38,116.09-19.42c0,0,31.5,66.81,56.82,133.99
					l-125.41,5.19L658.31,769.03z"/>
				<path class="st5" d="M668.18,761.83c0,0-4.75-39.72-59.68-139.58c-3.14-5.71-14.81-29.17-3.6-36.53
					c7.18-4.71,14.96,0.85,20.77,7.61c3.33,3.88,12.01,18.31,14.74,22.65c30.56,48.54,76.52,129.92,76.52,129.92L668.18,761.83z"/>
				<line class="st5" x1="674.93" y1="671.64" x2="711.46" y2="735.84"/>
				<line class="st5" x1="704.44" y1="673.11" x2="733.26" y2="725.41"/>
				<line class="st5" x1="733.26" y1="678.78" x2="754.88" y2="717.54"/>
				<line class="st5" x1="640.73" y1="691.88" x2="652.5" y2="719.23"/>
				<g>
					<path class="st6" d="M636.47,609.65c0,0-14.55,5.39-21.49-6.27c-4.39-7.37-3.77-12.86-2-15.81c1.8-3.01,5.87-2.08,6.67-1.26
						C625.2,592,632.56,603.95,636.47,609.65z"/>
				</g>
				<g>
					<path class="st6" d="M579.23,770.92c0,0,0.36-11.04,13.05-7.29c0,0,10.47,3.19,12.56,5.94l-3.73,9.06
						C601.11,778.62,596.51,775.82,579.23,770.92z"/>
				</g>
				<path class="st5" d="M658.31,769.03c0,0,9.07-0.66,7.23-16.59c0,0,7.69,16.07,6.83,31.24
					C672.37,783.69,663.69,771.92,658.31,769.03z"/>
			</g>
			<polygon class="st5" points="838.46,867.01 911,955 771.46,961 734.4,851.6 			"/>
		</g>
	</g>
	<g>
		<path class="st7" d="M408.31,499.62h-0.01c2.95-5.39,4.63-11.55,4.63-18.08c0-21.28-17.7-38.53-39.54-38.53
			s-39.54,17.25-39.54,38.53c0,6.54,1.68,12.69,4.63,18.08h-0.01l0.09,0.15c0.05,0.1,0.11,0.19,0.16,0.29l26.66,47.18
			c3.47,6.15,12.53,6.15,16.01,0l26.66-47.18c0.05-0.1,0.11-0.19,0.16-0.29L408.31,499.62z"/>
		<g>
			<g>
				<path class="st8" d="M390.08,471.98l-15.81-11.87c-0.6-0.47-1.48-0.47-2.08,0l-6.11,4.55v-3.38c0-0.47-0.4-0.82-0.84-0.82h-3.27
					c-0.48,0-0.84,0.39-0.84,0.82v7.12l-4.79,3.54c-1.28,0.97-0.56,3,1.04,3h0.72v20.18h30.22v-20.18h0.72
					C390.68,474.94,391.36,472.91,390.08,471.98z M376.91,490.5h-7.35v-7.51c0-1.98,1.64-3.58,3.67-3.58s3.67,1.6,3.67,3.58V490.5z"
					/>
				<g>
					<path class="st8" d="M357,501.5l1.03,2.69c0.02,0.06,0.09,0.11,0.16,0.11l2.95,0.12c0.16,0.01,0.23,0.21,0.1,0.3l-2.31,1.79
						c-0.06,0.04-0.08,0.11-0.06,0.18l0.79,2.77c0.04,0.15-0.13,0.28-0.27,0.19l-2.46-1.59c-0.06-0.04-0.13-0.04-0.19,0l-2.46,1.59
						c-0.13,0.09-0.31-0.04-0.27-0.19l0.79-2.77c0.02-0.07,0-0.14-0.06-0.18l-2.31-1.79c-0.13-0.1-0.06-0.3,0.1-0.3l2.95-0.12
						c0.07,0,0.13-0.05,0.16-0.11l1.03-2.69C356.73,501.35,356.94,501.35,357,501.5z"/>
					<path class="st8" d="M367.92,501.5l1.03,2.69c0.02,0.06,0.09,0.11,0.16,0.11l2.95,0.12c0.16,0.01,0.23,0.21,0.1,0.3l-2.31,1.79
						c-0.06,0.04-0.08,0.11-0.06,0.18l0.79,2.77c0.04,0.15-0.13,0.28-0.27,0.19l-2.46-1.59c-0.06-0.04-0.13-0.04-0.19,0l-2.46,1.59
						c-0.13,0.09-0.31-0.04-0.27-0.19l0.79-2.77c0.02-0.07,0-0.14-0.06-0.18l-2.31-1.79c-0.13-0.1-0.06-0.3,0.1-0.3l2.95-0.12
						c0.07,0,0.13-0.05,0.16-0.11l1.03-2.69C367.65,501.35,367.86,501.35,367.92,501.5z"/>
					<path class="st8" d="M378.84,501.5l1.03,2.69c0.02,0.06,0.09,0.11,0.16,0.11l2.95,0.12c0.16,0.01,0.23,0.21,0.1,0.3l-2.31,1.79
						c-0.06,0.04-0.08,0.11-0.06,0.18l0.79,2.77c0.04,0.15-0.13,0.28-0.27,0.19l-2.46-1.59c-0.06-0.04-0.13-0.04-0.19,0l-2.46,1.59
						c-0.13,0.09-0.31-0.04-0.27-0.19l0.79-2.77c0.02-0.07,0-0.14-0.06-0.18l-2.31-1.79c-0.13-0.1-0.06-0.3,0.1-0.3l2.95-0.12
						c0.07,0,0.13-0.05,0.16-0.11l1.03-2.69C378.57,501.35,378.79,501.35,378.84,501.5z"/>
					<path class="st8" d="M389.77,501.5l1.03,2.69c0.02,0.06,0.09,0.11,0.16,0.11l2.95,0.12c0.16,0.01,0.23,0.21,0.1,0.3l-2.31,1.79
						c-0.06,0.04-0.08,0.11-0.06,0.18l0.79,2.77c0.04,0.15-0.13,0.28-0.27,0.19l-2.46-1.59c-0.06-0.04-0.13-0.04-0.19,0l-2.46,1.59
						c-0.13,0.09-0.31-0.04-0.27-0.19l0.79-2.77c0.02-0.07,0-0.14-0.06-0.18l-2.31-1.79c-0.13-0.1-0.06-0.3,0.1-0.3l2.95-0.12
						c0.07,0,0.13-0.05,0.16-0.11l1.03-2.69C389.5,501.35,389.71,501.35,389.77,501.5z"/>
				</g>
			</g>
		</g>
	</g>
	<g>
		<path class="st9" d="M726.31,481.33c0,6.77-6,12.26-13.41,12.26H490.4c-7.4,0-13.4-5.49-13.4-12.26V184.69
			c0-6.77,6-12.26,13.4-12.26h222.51c7.4,0,13.41,5.49,13.41,12.26V481.33z"/>
		<path class="st10" d="M705.63,353.41c-12.89-20.87-30.94-12.69-54.14-31.93c-21.92-18.18-31.17-22.11-48.09-21.68
			c-16.91-0.44-29.66,3.5-51.58,21.68c-23.2,19.24-41.25,11.05-54.14,31.93c-14.68,23.78,14.82,38.07,14.82,38.07h86.14h6.03h86.14
			C690.81,391.48,720.31,377.19,705.63,353.41z"/>
		<path class="st11" d="M692.55,218.08h-3.12c-0.3-9.97-9.21-17.98-20.19-17.98c-10.98,0-19.89,8.01-20.19,17.98h-3.12
			c-7.6,0-13.76,5.63-13.76,12.58c0,6.95,6.16,12.58,13.76,12.58h46.62c7.6,0,13.76-5.63,13.76-12.58
			C706.31,223.71,700.15,218.08,692.55,218.08z"/>
		<polygon class="st7" points="577.62,278.98 557.08,291.03 533.14,256.9 553.68,244.85 		"/>
		<path class="st12" d="M565.52,241.07c2.82,4.02,1.54,9.37-2.85,11.94l-25.17,14.77c-4.39,2.58-10.24,1.41-13.06-2.61l0,0
			c-2.82-4.02-1.54-9.37,2.85-11.94l25.17-14.77C556.86,235.89,562.71,237.05,565.52,241.07L565.52,241.07z"/>
		<path class="st13" d="M515.64,391.46c0,1.4-1.24,2.53-2.77,2.53l0,0c-1.53,0-2.77-1.13-2.77-2.53v-43.25
			c0-1.4,1.24-2.53,2.77-2.53l0,0c1.53,0,2.77,1.13,2.77,2.53V391.46z"/>
		<path class="st8" d="M527.64,335.15c1.48-2.31,2.34-5,2.34-7.87c0-8.64-7.66-15.64-17.11-15.64c-9.45,0-17.11,7-17.11,15.64
			c0,2.87,0.86,5.56,2.34,7.87c-4.46,3.28-7.27,8.01-7.27,13.29c0,9.91,9.87,17.95,22.04,17.95c12.17,0,22.04-8.03,22.04-17.95
			C534.91,343.17,532.09,338.44,527.64,335.15z"/>
		<path class="st7" d="M602.43,253.17l-61.19,41.48v92.22c0,3.47,3.08,6.29,6.87,6.29h108.17c3.8,0,6.88-2.82,6.88-6.29v-93.55
			L602.43,253.17z"/>
		<path class="st11" d="M663.16,320.44h-18.45c-3.8,0-6.87,2.81-6.87,6.29c0,3.47,3.08,6.29,6.87,6.29h18.45V320.44z"/>
		<path class="st11" d="M541.25,341.18h14.78c3.42,0,6.19-2.53,6.19-5.66c0-3.12-2.77-5.66-6.19-5.66h-14.78V341.18z"/>
		<path class="st11" d="M663.16,368.22h-13.64c-3.42,0-6.19,2.53-6.19,5.66c0,3.13,2.77,5.66,6.19,5.66h13.64V368.22z"/>
		<path class="st11" d="M563.59,376.39h22c3.42,0,6.19-2.53,6.19-5.66c0-3.13-2.77-5.66-6.19-5.66h-22c-3.42,0-6.19,2.53-6.19,5.66
			C557.4,373.86,560.17,376.39,563.59,376.39z"/>
		<path class="st12" d="M602.2,329.87c-14.05,0-25.44,10.41-25.44,23.26v40.03h50.87v-40.03
			C627.64,340.28,616.25,329.87,602.2,329.87z"/>
		<g>
			<g>
				<path class="st14" d="M529.34,314.15c-4.44,0-8.83-1.87-11.66-5.4c-4.71-5.88-3.32-14.14,3.11-18.45l73.79-49.46
					c5.13-3.44,12.12-3.4,17.21,0.09l71.96,49.45c6.38,4.38,7.66,12.66,2.87,18.49c-4.79,5.83-13.84,7-20.21,2.62l-63.39-43.57
					l-65.15,43.66C535.29,313.32,532.3,314.15,529.34,314.15z"/>
			</g>
		</g>
		<path class="st15" d="M704.41,392.85c0,2.99-1.44,5.41-3.21,5.41H503.21c-1.77,0-3.21-2.42-3.21-5.41l0,0
			c0-2.99,1.44-5.41,3.21-5.41H701.2C702.97,387.44,704.41,389.86,704.41,392.85L704.41,392.85z"/>
		<g>
			<path class="st11" d="M622.37,303.67c0,10.18-9.03,18.44-20.16,18.44c-11.14,0-20.16-8.26-20.16-18.44
				c0-10.18,9.03-18.44,20.16-18.44C613.34,285.23,622.37,293.49,622.37,303.67z"/>
			<path class="st11" d="M606.33,285.62c-1.33-0.25-2.71-0.39-4.13-0.39c-1.41,0-2.79,0.14-4.13,0.39v14.28h-15.61
				c-0.28,1.22-0.42,2.48-0.42,3.77c0,1.29,0.15,2.55,0.42,3.77h15.61v14.28c1.33,0.25,2.71,0.39,4.13,0.39
				c1.41,0,2.79-0.14,4.13-0.39v-14.28h15.61c0.28-1.22,0.42-2.48,0.42-3.77c0-1.29-0.15-2.55-0.43-3.77h-15.61V285.62z"/>
		</g>
		<path class="st7" d="M591.34,362.56c0,2.43-2.16,4.4-4.81,4.4l0,0c-2.66,0-4.81-1.97-4.81-4.4l0,0c0-2.43,2.16-4.4,4.81-4.4l0,0
			C589.19,358.16,591.34,360.13,591.34,362.56L591.34,362.56z"/>
		<g>
			<path class="st16" d="M593.81,461.62C593.81,461.62,593.81,461.62,593.81,461.62L593.81,461.62
				C593.81,461.62,593.81,461.61,593.81,461.62c-0.08-0.17-0.19-0.33-0.33-0.46c-0.16-0.15-0.35-0.27-0.57-0.35
				c-0.21-0.08-0.44-0.13-0.69-0.14c-0.2-0.01-0.41,0.01-0.61,0.06c0,0,0,0,0,0c-0.21,0.05-0.4,0.14-0.57,0.24l-14.93,9.38
				c-0.07,0.04-0.13,0.09-0.19,0.13c-0.15,0.12-0.26,0.25-0.35,0.4c-0.11,0.19-0.17,0.4-0.17,0.6v0v0c0,0.2,0.06,0.41,0.17,0.6
				c0.08,0.14,0.2,0.28,0.35,0.4c0.06,0.05,0.12,0.09,0.19,0.13l14.93,9.38c0.14,0.09,0.3,0.16,0.47,0.22l0,0h0
				c0.2,0.06,0.41,0.09,0.62,0.09c0.03,0,0.05,0,0.08,0c0.25-0.01,0.49-0.06,0.7-0.14c0.21-0.08,0.4-0.2,0.56-0.35
				c0.14-0.13,0.25-0.29,0.33-0.46l0,0c0,0,0,0,0,0s0,0,0,0c0.06-0.15,0.09-0.3,0.09-0.46c0,0,0-0.01,0-0.01v-18.79
				c0,0,0-0.01,0-0.01C593.9,461.92,593.87,461.77,593.81,461.62z"/>
			<path class="st16" d="M609.5,481.35C609.5,481.35,609.5,481.35,609.5,481.35C609.5,481.35,609.5,481.35,609.5,481.35
				L609.5,481.35c0.08,0.17,0.19,0.33,0.33,0.46c0.16,0.15,0.35,0.27,0.57,0.35c0.21,0.08,0.44,0.13,0.68,0.14
				c0.2,0.01,0.41-0.01,0.61-0.06c0,0,0,0,0,0c0.21-0.05,0.4-0.14,0.57-0.24l14.93-9.38c0.07-0.04,0.13-0.09,0.19-0.13
				c0.15-0.12,0.26-0.25,0.35-0.4c0.11-0.19,0.17-0.4,0.17-0.6v0l0,0c0-0.2-0.06-0.41-0.17-0.6c-0.08-0.14-0.2-0.28-0.34-0.4
				c-0.06-0.05-0.13-0.09-0.19-0.14l-14.93-9.38c-0.14-0.09-0.3-0.16-0.47-0.22c0,0,0,0,0,0l0,0c-0.2-0.06-0.41-0.09-0.62-0.09
				c-0.03,0-0.06,0-0.08,0c-0.25,0.01-0.49,0.06-0.7,0.14c-0.21,0.08-0.4,0.2-0.56,0.35c-0.14,0.13-0.25,0.29-0.33,0.46l0,0
				c0,0,0,0,0,0l0,0c-0.06,0.15-0.1,0.3-0.1,0.46c0,0,0,0.01,0,0.01v18.79c0,0,0,0.01,0,0.01
				C609.41,481.05,609.44,481.2,609.5,481.35z"/>
		</g>
		<path class="st8" d="M688.48,429.92c0,10.21-9.05,18.49-20.22,18.49H535.04c-11.17,0-20.22-8.28-20.22-18.49l0,0
			c0-10.21,9.05-18.49,20.22-18.49h133.22C679.43,411.43,688.48,419.71,688.48,429.92L688.48,429.92z"/>
		<path class="st17" d="M549.56,178.03h168.6c2.61,0,5.03,0.69,7.09,1.87c-2.04-4.39-6.8-7.47-12.34-7.47H554.13H490.4
			c-7.4,0-13.4,5.49-13.4,12.26v82.23v214.4c0,4.38,2.53,8.22,6.31,10.39c-0.68-1.47-1.06-3.09-1.06-4.79V260.5L549.56,178.03z"/>
		<path class="st18" d="M718.81,173.7c0.88,1.63,1.38,3.46,1.38,5.4v203.76L631.4,487.99H484.27c-2.12,0-4.12-0.46-5.9-1.26
			c2.18,4.06,6.74,6.86,12.02,6.86h136.27h86.24c7.4,0,13.41-5.49,13.41-12.26V375.6V184.69
			C726.31,179.86,723.25,175.7,718.81,173.7z"/>
		<g>
			<path class="st16" d="M546.44,425.63c-0.16-0.45-0.58-0.77-1.09-0.82l-6.01-0.67l-2.55-5.02c-0.22-0.42-0.68-0.7-1.19-0.7
				c-0.51,0-0.98,0.27-1.19,0.7l-2.55,5.02l-6,0.67c-0.51,0.06-0.94,0.38-1.09,0.82c-0.16,0.44-0.02,0.93,0.36,1.25l4.43,3.76
				l-1.17,5.43c-0.1,0.46,0.1,0.93,0.52,1.21c0.41,0.27,0.97,0.3,1.41,0.08l5.29-2.69l5.29,2.69c0.2,0.1,0.42,0.15,0.64,0.15
				c0.27,0,0.54-0.08,0.77-0.23c0.42-0.28,0.62-0.74,0.52-1.21l-1.16-5.43l4.43-3.76C546.46,426.57,546.6,426.08,546.44,425.63z"/>
			<path class="st19" d="M545.35,424.81l-5.54-0.61c-0.45,0.49-0.91,0.96-1.39,1.4c-2.61,2.39-5.68,4.32-9,5.71l-1.03,4.78
				c-0.1,0.46,0.1,0.93,0.52,1.21c0.41,0.27,0.97,0.3,1.41,0.08l5.29-2.69l5.29,2.69c0.2,0.1,0.42,0.15,0.64,0.15
				c0.27,0,0.54-0.08,0.77-0.23c0.42-0.28,0.62-0.74,0.52-1.21l-1.16-5.43l4.43-3.76c0.38-0.32,0.52-0.81,0.36-1.25
				C546.29,425.19,545.86,424.87,545.35,424.81z"/>
		</g>
		<g>
			<path class="st16" d="M579.4,425.63c-0.16-0.45-0.58-0.77-1.09-0.82l-6.01-0.67l-2.55-5.02c-0.22-0.42-0.68-0.7-1.19-0.7
				c-0.51,0-0.98,0.27-1.19,0.7l-2.55,5.02l-6.01,0.67c-0.51,0.06-0.94,0.38-1.09,0.82c-0.16,0.44-0.02,0.93,0.36,1.25l4.43,3.76
				l-1.17,5.43c-0.1,0.46,0.1,0.93,0.52,1.21c0.41,0.27,0.97,0.3,1.41,0.08l5.29-2.69l5.29,2.69c0.2,0.1,0.42,0.15,0.64,0.15
				c0.27,0,0.54-0.08,0.77-0.23c0.42-0.28,0.62-0.74,0.52-1.21l-1.17-5.43l4.43-3.76C579.42,426.57,579.56,426.08,579.4,425.63z"/>
			<path class="st19" d="M578.3,424.81l-5.54-0.61c-0.45,0.49-0.91,0.96-1.39,1.4c-2.61,2.39-5.68,4.32-9,5.71l-1.03,4.78
				c-0.1,0.46,0.1,0.93,0.52,1.21c0.41,0.27,0.97,0.3,1.41,0.08l5.29-2.69l5.29,2.69c0.2,0.1,0.42,0.15,0.64,0.15
				c0.27,0,0.54-0.08,0.77-0.23c0.42-0.28,0.62-0.74,0.52-1.21l-1.17-5.43l4.43-3.76c0.38-0.32,0.51-0.81,0.36-1.25
				C579.24,425.19,578.81,424.87,578.3,424.81z"/>
		</g>
		<g>
			<path class="st16" d="M612.35,425.63c-0.16-0.45-0.58-0.77-1.09-0.82l-6-0.67l-2.55-5.02c-0.22-0.42-0.68-0.7-1.19-0.7
				c-0.51,0-0.98,0.27-1.19,0.7l-2.55,5.02l-6.01,0.67c-0.51,0.06-0.94,0.38-1.09,0.82c-0.16,0.44-0.02,0.93,0.36,1.25l4.43,3.76
				l-1.17,5.43c-0.1,0.46,0.1,0.93,0.52,1.21c0.41,0.27,0.97,0.3,1.41,0.08l5.29-2.69l5.29,2.69c0.2,0.1,0.42,0.15,0.64,0.15
				c0.27,0,0.54-0.08,0.77-0.23c0.42-0.28,0.62-0.74,0.52-1.21l-1.17-5.43l4.43-3.76C612.37,426.57,612.51,426.08,612.35,425.63z"/>
			<path class="st19" d="M611.26,424.81l-5.54-0.61c-0.45,0.49-0.91,0.96-1.39,1.4c-2.61,2.39-5.68,4.32-9,5.71l-1.03,4.78
				c-0.1,0.46,0.1,0.93,0.52,1.21c0.41,0.27,0.97,0.3,1.41,0.08l5.29-2.69l5.29,2.69c0.2,0.1,0.42,0.15,0.64,0.15
				c0.27,0,0.54-0.08,0.77-0.23c0.42-0.28,0.62-0.74,0.52-1.21l-1.17-5.43l4.43-3.76c0.38-0.32,0.51-0.81,0.36-1.25
				C612.2,425.19,611.77,424.87,611.26,424.81z"/>
		</g>
		<g>
			<path class="st16" d="M645.31,425.63c-0.16-0.45-0.58-0.77-1.09-0.82l-6-0.67l-2.55-5.02c-0.22-0.42-0.68-0.7-1.2-0.7
				c-0.51,0-0.98,0.27-1.19,0.7l-2.55,5.02l-6.01,0.67c-0.51,0.06-0.94,0.38-1.09,0.82c-0.16,0.44-0.02,0.93,0.36,1.25l4.43,3.76
				l-1.17,5.43c-0.1,0.46,0.1,0.93,0.52,1.21c0.41,0.27,0.97,0.3,1.41,0.08l5.29-2.69l5.29,2.69c0.2,0.1,0.42,0.15,0.64,0.15
				c0.27,0,0.54-0.08,0.77-0.23c0.42-0.28,0.62-0.74,0.52-1.21l-1.17-5.43l4.43-3.76C645.33,426.57,645.47,426.08,645.31,425.63z"/>
			<path class="st19" d="M644.21,424.81l-5.55-0.61c-0.45,0.49-0.91,0.96-1.39,1.4c-2.61,2.39-5.68,4.32-9,5.71l-1.03,4.78
				c-0.1,0.46,0.1,0.93,0.52,1.21c0.41,0.27,0.97,0.3,1.41,0.08l5.29-2.69l5.29,2.69c0.2,0.1,0.42,0.15,0.64,0.15
				c0.27,0,0.54-0.08,0.77-0.23c0.42-0.28,0.62-0.74,0.52-1.21l-1.17-5.43l4.43-3.76c0.38-0.32,0.52-0.81,0.36-1.25
				C645.15,425.19,644.72,424.87,644.21,424.81z"/>
		</g>
		<g>
			<path class="st16" d="M678.26,425.63c-0.16-0.45-0.58-0.77-1.09-0.82l-6-0.67l-2.55-5.02c-0.22-0.42-0.68-0.7-1.19-0.7
				c-0.51,0-0.98,0.27-1.19,0.7l-2.55,5.02l-6.01,0.67c-0.51,0.06-0.94,0.38-1.09,0.82c-0.16,0.44-0.02,0.93,0.36,1.25l4.43,3.76
				l-1.16,5.43c-0.1,0.46,0.1,0.93,0.52,1.21c0.41,0.27,0.97,0.3,1.41,0.08l5.29-2.69l5.29,2.69c0.2,0.1,0.42,0.15,0.64,0.15
				c0.27,0,0.54-0.08,0.77-0.23c0.42-0.28,0.62-0.74,0.52-1.21l-1.17-5.43l4.43-3.76C678.28,426.57,678.42,426.08,678.26,425.63z"/>
			<path class="st19" d="M677.17,424.81l-5.55-0.61c-0.45,0.49-0.91,0.96-1.39,1.4c-2.61,2.39-5.68,4.32-9,5.71l-1.03,4.78
				c-0.1,0.46,0.1,0.93,0.52,1.21c0.41,0.27,0.97,0.3,1.41,0.08l5.29-2.69l5.29,2.69c0.2,0.1,0.42,0.15,0.64,0.15
				c0.27,0,0.54-0.08,0.77-0.23c0.42-0.28,0.62-0.74,0.52-1.21l-1.17-5.43l4.43-3.76c0.38-0.32,0.51-0.81,0.36-1.25
				C678.11,425.19,677.68,424.87,677.17,424.81z"/>
		</g>
	</g>
	<g>
		<path class="st7" d="M441.65,784L441.65,784c1.7-3.12,2.68-6.69,2.68-10.47c0-12.33-10.25-22.32-22.9-22.32s-22.9,9.99-22.9,22.32
			c0,3.79,0.97,7.35,2.68,10.47h-0.01l0.05,0.09c0.03,0.06,0.06,0.11,0.1,0.17l15.44,27.33c2.01,3.56,7.26,3.56,9.27,0l15.44-27.33
			c0.03-0.06,0.06-0.11,0.1-0.17L441.65,784z"/>
		<ellipse class="st8" cx="421.58" cy="776" rx="13.34" ry="13"/>
	</g>
	<g>
		<path class="st7" d="M569.82,669L569.82,669c1.7-3.12,2.68-6.69,2.68-10.47c0-12.33-10.25-22.32-22.9-22.32
			c-12.65,0-22.9,9.99-22.9,22.32c0,3.79,0.97,7.35,2.68,10.47h-0.01l0.05,0.09c0.03,0.06,0.06,0.11,0.1,0.17l15.44,27.33
			c2.01,3.56,7.26,3.56,9.27,0l15.44-27.33c0.03-0.06,0.06-0.11,0.1-0.17L569.82,669z"/>
		<ellipse class="st8" cx="549.84" cy="659" rx="13.34" ry="13"/>
	</g>
	<polygon class="st18" points="482.12,487 482.12,542 524.7,487.99 	"/>
</g>
<rect y="954" width="1024" height="70"/>
<g>
	<path class="st4" d="M314.4,974.25h4.52c3.56,0,6.49,0.94,8.79,2.81c2.32,1.86,3.48,4.53,3.48,8.01c0,3.58-1.15,6.32-3.45,8.21
		c-2.3,1.9-5.27,2.84-8.9,2.84h-4.44V974.25z M317.12,993.63h0.95c1.42,0,2.75-0.15,4.01-0.43c1.25-0.28,2.35-0.76,3.29-1.42
		c0.94-0.66,1.69-1.54,2.25-2.61c0.56-1.08,0.84-2.41,0.84-3.99c0-1.56-0.28-2.89-0.83-4.02c-0.55-1.11-1.32-1.98-2.3-2.6
		c-0.99-0.63-2.07-1.1-3.27-1.39c-1.19-0.29-2.51-0.44-3.99-0.44h-0.95V993.63z"/>
	<path class="st4" d="M335.2,989.76c0.04,1.21,0.43,2.27,1.16,3.17c0.76,0.89,1.73,1.33,2.93,1.33c0.95,0,1.73-0.21,2.34-0.65
		c0.61-0.43,1.19-1.1,1.73-1.99l2.2,1.25c-0.64,1.16-1.51,2.06-2.63,2.72c-1.11,0.65-2.34,0.99-3.67,0.99
		c-2.02,0-3.65-0.68-4.87-2.03c-1.2-1.38-1.8-3.08-1.8-5.11c0-2.14,0.57-3.91,1.71-5.29c1.12-1.35,2.75-2.03,4.9-2.03
		c2.09,0,3.66,0.68,4.73,2.03c1.08,1.35,1.62,3.08,1.62,5.2v0.4H335.2z M342.95,987.79c-0.16-1.04-0.55-1.88-1.2-2.48
		c-0.65-0.6-1.49-0.92-2.54-0.92c-0.5,0-0.97,0.09-1.4,0.26c-0.44,0.16-0.82,0.4-1.17,0.7c-0.33,0.32-0.61,0.69-0.83,1.1
		c-0.22,0.41-0.37,0.87-0.45,1.35H342.95z"/>
	<path class="st4" d="M353.25,985.65c-0.39-0.8-0.97-1.19-1.74-1.19c-0.36,0-0.7,0.12-0.99,0.39c-0.29,0.26-0.43,0.59-0.43,0.95
		c0,0.35,0.11,0.64,0.33,0.88c0.22,0.24,0.52,0.47,0.91,0.69c0.26,0.11,0.45,0.21,0.58,0.27c0.13,0.07,0.36,0.17,0.67,0.31
		c0.15,0.08,0.29,0.15,0.41,0.18c0.11,0.04,0.2,0.07,0.25,0.12c0.97,0.44,1.73,0.96,2.29,1.53c0.56,0.59,0.84,1.36,0.84,2.33
		c0,1.28-0.46,2.35-1.39,3.22c-0.91,0.86-2,1.28-3.28,1.28c-0.52,0-1.02-0.08-1.5-0.22c-0.49-0.14-0.94-0.35-1.35-0.61
		c-0.42-0.27-0.78-0.58-1.11-0.95c-0.31-0.38-0.57-0.8-0.73-1.27l2.23-1.01c0.63,1.16,1.46,1.74,2.46,1.74
		c0.41,0,0.79-0.11,1.14-0.33c0.35-0.22,0.6-0.51,0.77-0.85c0.16-0.34,0.2-0.7,0.1-1.1c-0.1-0.4-0.4-0.78-0.9-1.12l-2.56-1.37
		c-0.45-0.23-0.83-0.45-1.16-0.69c-0.33-0.24-0.6-0.49-0.81-0.75c-0.21-0.27-0.37-0.55-0.48-0.87c-0.11-0.32-0.16-0.69-0.16-1.13
		c0-1.1,0.39-2.02,1.17-2.78c0.77-0.77,1.72-1.16,2.84-1.16c1.7,0,2.94,0.8,3.71,2.38L353.25,985.65z"/>
	<path class="st4" d="M362.62,976.33c0,0.49-0.17,0.9-0.53,1.26c-0.34,0.34-0.77,0.5-1.27,0.5c-0.51,0-0.93-0.16-1.28-0.5
		c-0.35-0.36-0.52-0.77-0.52-1.26c0-0.5,0.17-0.93,0.52-1.3c0.35-0.36,0.77-0.53,1.28-0.53c0.5,0,0.93,0.17,1.27,0.53
		C362.45,975.4,362.62,975.83,362.62,976.33z M362.12,996.12h-2.61v-13.58h2.61V996.12z"/>
	<path class="st4" d="M379.02,995.86c0,2.55-0.49,4.52-1.46,5.94c-0.96,1.4-2.69,2.09-5.16,2.09c-1.91,0-3.48-0.55-4.7-1.66
		c-1.2-1.1-1.82-2.6-1.86-4.49h2.61c0,1.21,0.38,2.15,1.12,2.83c0.74,0.67,1.73,1,2.95,1c1.49,0,2.51-0.44,3.06-1.31
		c0.55-0.87,0.82-2.1,0.82-3.68V994h-0.05c-0.55,0.82-1.21,1.45-2.02,1.9c-0.81,0.46-1.67,0.69-2.6,0.69c-2.01,0-3.6-0.71-4.76-2.12
		c-1.16-1.41-1.74-3.16-1.74-5.22c0-1.96,0.59-3.62,1.77-4.99c1.19-1.41,2.72-2.12,4.61-2.12c2,0,3.57,0.91,4.73,2.73h0.05v-2.33
		h2.62V995.86z M372.14,994.26c1.37,0,2.44-0.47,3.22-1.42c0.79-0.96,1.19-2.14,1.19-3.51c0-1.35-0.39-2.5-1.19-3.46
		c-0.77-0.94-1.85-1.41-3.22-1.41c-1.3,0-2.34,0.47-3.14,1.45c-0.77,0.95-1.16,2.08-1.16,3.42c0,1.37,0.39,2.54,1.16,3.48
		C369.8,993.78,370.84,994.26,372.14,994.26z"/>
	<path class="st4" d="M385.03,984.36h0.05c0.39-0.71,0.96-1.27,1.69-1.65c0.73-0.39,1.54-0.58,2.41-0.58c0.89,0,1.64,0.14,2.26,0.4
		c0.62,0.27,1.12,0.66,1.5,1.16c0.38,0.5,0.65,1.12,0.81,1.84c0.17,0.73,0.25,1.55,0.25,2.49v8.09h-2.6v-7.77
		c0-1.34-0.2-2.31-0.59-2.93c-0.39-0.64-1.19-0.95-2.41-0.95c-0.45,0-0.82,0.04-1.13,0.12c-0.31,0.09-0.58,0.22-0.81,0.37
		c-0.23,0.17-0.42,0.37-0.58,0.57c-0.15,0.21-0.3,0.45-0.43,0.71c-0.06,0.13-0.12,0.3-0.16,0.52c-0.05,0.21-0.09,0.43-0.13,0.66
		c-0.04,0.22-0.08,0.44-0.09,0.66c-0.02,0.23-0.02,0.4-0.02,0.54v1.28v6.23h-2.62v-13.58h2.62V984.36z"/>
	<path class="st4" d="M405.77,970.93h2.61v13.87h0.05c1.2-1.77,2.78-2.67,4.73-2.67c1.9,0,3.43,0.71,4.62,2.12
		c1.18,1.37,1.77,3.03,1.77,4.99c0,2.06-0.59,3.81-1.74,5.22c-1.17,1.41-2.75,2.12-4.76,2.12c-0.93,0-1.8-0.23-2.6-0.69
		c-0.8-0.45-1.47-1.09-2.02-1.9h-0.05v2.12h-2.61V970.93z M412.52,994.26c1.38,0,2.45-0.47,3.23-1.42c0.79-0.96,1.18-2.14,1.18-3.51
		c0-1.35-0.39-2.5-1.18-3.46c-0.78-0.94-1.85-1.41-3.23-1.41c-1.3,0-2.34,0.47-3.13,1.45c-0.78,0.95-1.16,2.08-1.16,3.42
		c0,1.37,0.38,2.54,1.16,3.48C410.18,993.78,411.23,994.26,412.52,994.26z"/>
	<path class="st4" d="M419.93,982.54h3.04l4.58,8.62l4.26-8.62h2.94l-11,21.36h-2.96l5.34-10.1L419.93,982.54z"/>
	<path class="st4" d="M447.93,990.63l-2.5,5.49h-2.93l10.45-22.81l10.44,22.81h-2.92l-2.49-5.49H447.93z M452.95,979.29l-3.9,8.85
		h7.78L452.95,979.29z"/>
	<path class="st4" d="M467.66,996.12h-2.61v-25.19h2.61V996.12z"/>
	<path class="st4" d="M474.1,996.12h-2.61v-25.19h2.61V996.12z"/>
	<path class="st4" d="M484.02,985.74v2.17h-6.36v-2.17H484.02z"/>
	<path class="st4" d="M494.17,973.57c-0.81-0.37-1.38-0.55-1.73-0.55c-0.57,0-0.97,0.17-1.22,0.53c-0.26,0.36-0.43,0.79-0.52,1.32
		c-0.06,0.38-0.09,0.69-0.11,0.91c0,0.23,0,0.53,0,0.92v5.82h3.58v2.44h-3.58v11.15h-2.62v-11.15h-1.18v-2.44h1.18v-6.61
		c0-3.56,1.47-5.35,4.39-5.35c0.64,0,1.24,0.13,1.81,0.35V973.57z"/>
	<path class="st4" d="M498.2,984.74h0.09c0.33-0.81,0.81-1.45,1.46-1.91c0.64-0.46,1.39-0.7,2.26-0.7c0.72,0,1.43,0.22,2.16,0.67
		l-1.19,2.38c-0.43-0.38-0.96-0.55-1.6-0.55c-1.35,0-2.23,0.54-2.67,1.62c-0.2,0.5-0.33,1-0.39,1.49c-0.06,0.48-0.11,1.06-0.11,1.7
		v6.67h-2.6v-13.58h2.6V984.74z"/>
	<path class="st4" d="M507.18,989.76c0.03,1.21,0.42,2.27,1.16,3.17c0.75,0.89,1.72,1.33,2.92,1.33c0.94,0,1.73-0.21,2.34-0.65
		c0.61-0.43,1.19-1.1,1.72-1.99l2.2,1.25c-0.63,1.16-1.51,2.06-2.62,2.72c-1.11,0.65-2.34,0.99-3.67,0.99
		c-2.03,0-3.65-0.68-4.87-2.03c-1.2-1.38-1.8-3.08-1.8-5.11c0-2.14,0.57-3.91,1.71-5.29c1.12-1.35,2.75-2.03,4.9-2.03
		c2.09,0,3.67,0.68,4.74,2.03c1.07,1.35,1.61,3.08,1.61,5.2v0.4H507.18z M514.93,987.79c-0.16-1.04-0.56-1.88-1.2-2.48
		c-0.65-0.6-1.49-0.92-2.54-0.92c-0.5,0-0.97,0.09-1.41,0.26c-0.43,0.16-0.82,0.4-1.15,0.7c-0.34,0.32-0.63,0.69-0.86,1.1
		c-0.22,0.41-0.37,0.87-0.44,1.35H514.93z"/>
	<path class="st4" d="M521.35,989.76c0.03,1.21,0.42,2.27,1.15,3.17c0.75,0.89,1.73,1.33,2.93,1.33c0.95,0,1.73-0.21,2.33-0.65
		c0.61-0.43,1.18-1.1,1.73-1.99l2.2,1.25c-0.63,1.16-1.49,2.06-2.62,2.72c-1.12,0.65-2.33,0.99-3.67,0.99
		c-2.04,0-3.66-0.68-4.88-2.03c-1.19-1.38-1.79-3.08-1.79-5.11c0-2.14,0.56-3.91,1.71-5.29c1.12-1.35,2.76-2.03,4.9-2.03
		c2.08,0,3.66,0.68,4.72,2.03c1.09,1.35,1.63,3.08,1.63,5.2v0.4H521.35z M529.09,987.79c-0.15-1.04-0.56-1.88-1.22-2.48
		c-0.64-0.6-1.48-0.92-2.53-0.92c-0.51,0-0.97,0.09-1.41,0.26c-0.43,0.16-0.81,0.4-1.15,0.7c-0.34,0.32-0.63,0.69-0.84,1.1
		c-0.23,0.41-0.38,0.87-0.46,1.35H529.09z"/>
	<path class="st4" d="M540.14,985.74v2.17h-6.36v-2.17H540.14z"/>
	<path class="st4" d="M553.69,994h-0.06c-0.54,0.82-1.21,1.45-2.01,1.9c-0.81,0.46-1.68,0.69-2.6,0.69c-2.01,0-3.6-0.71-4.75-2.12
		c-1.17-1.41-1.75-3.16-1.75-5.22c0-1.96,0.59-3.62,1.78-4.99c1.18-1.41,2.72-2.12,4.61-2.12c1.95,0,3.53,0.89,4.73,2.67h0.06
		v-13.87h2.6v25.19h-2.6V994z M549.42,994.26c1.37,0,2.45-0.47,3.22-1.42c0.79-0.96,1.2-2.14,1.2-3.51c0-1.35-0.4-2.5-1.2-3.46
		c-0.77-0.94-1.85-1.41-3.22-1.41c-1.3,0-2.34,0.47-3.13,1.45c-0.77,0.95-1.16,2.08-1.16,3.42c0,1.37,0.39,2.54,1.16,3.48
		C547.08,993.78,548.13,994.26,549.42,994.26z"/>
	<path class="st4" d="M560.57,984.22c1.41-1.39,3.14-2.09,5.17-2.09c2.03,0,3.74,0.7,5.12,2.09c1.42,1.38,2.12,3.12,2.12,5.14
		c0,2.03-0.7,3.74-2.12,5.15c-1.38,1.38-3.09,2.08-5.12,2.08c-2.04,0-3.76-0.7-5.17-2.08c-1.39-1.41-2.09-3.12-2.09-5.15
		C558.47,987.34,559.17,985.6,560.57,984.22z M561.08,989.36c0,1.25,0.47,2.36,1.38,3.32c0.89,0.95,1.99,1.4,3.28,1.4
		c1.27,0,2.37-0.46,3.27-1.4c0.91-0.96,1.36-2.07,1.36-3.32c0-1.28-0.45-2.4-1.36-3.34c-0.9-0.93-2-1.39-3.27-1.39
		c-1.29,0-2.4,0.46-3.28,1.39C561.55,986.96,561.08,988.08,561.08,989.36z"/>
	<path class="st4" d="M580.01,991.19l3.99-9.41l3.98,9.41l3.95-8.66h2.95l-6.9,14.05l-3.98-9.08l-3.99,9.08l-6.91-14.05h2.96
		L580.01,991.19z"/>
	<path class="st4" d="M598.81,984.36h0.06c0.38-0.71,0.94-1.27,1.68-1.65c0.74-0.39,1.54-0.58,2.41-0.58c0.89,0,1.65,0.14,2.27,0.4
		c0.62,0.27,1.11,0.66,1.49,1.16c0.38,0.5,0.65,1.12,0.8,1.84c0.17,0.73,0.25,1.55,0.25,2.49v8.09h-2.61v-7.77
		c0-1.34-0.18-2.31-0.58-2.93c-0.39-0.64-1.18-0.95-2.42-0.95c-0.44,0-0.81,0.04-1.13,0.12c-0.3,0.09-0.58,0.22-0.81,0.37
		c-0.23,0.17-0.42,0.37-0.58,0.57c-0.16,0.21-0.3,0.45-0.43,0.71c-0.06,0.13-0.12,0.3-0.16,0.52c-0.05,0.21-0.1,0.43-0.13,0.66
		c-0.04,0.22-0.06,0.44-0.1,0.66c-0.01,0.23-0.02,0.4-0.02,0.54v1.28v6.23h-2.61v-13.58h2.61V984.36z"/>
	<path class="st4" d="M614.1,996.12h-2.62v-25.19h2.62V996.12z"/>
	<path class="st4" d="M618.69,984.22c1.4-1.39,3.13-2.09,5.17-2.09c2.03,0,3.73,0.7,5.14,2.09c1.4,1.38,2.1,3.12,2.1,5.14
		c0,2.03-0.7,3.74-2.1,5.15c-1.41,1.38-3.11,2.08-5.14,2.08c-2.04,0-3.77-0.7-5.17-2.08c-1.4-1.41-2.09-3.12-2.09-5.15
		C616.59,987.34,617.28,985.6,618.69,984.22z M619.21,989.36c0,1.25,0.46,2.36,1.36,3.32c0.89,0.95,1.99,1.4,3.29,1.4
		c1.27,0,2.36-0.46,3.28-1.4c0.9-0.96,1.35-2.07,1.35-3.32c0-1.28-0.45-2.4-1.35-3.34c-0.92-0.93-2.01-1.39-3.28-1.39
		c-1.3,0-2.4,0.46-3.29,1.39C619.67,986.96,619.21,988.08,619.21,989.36z"/>
	<path class="st4" d="M646.23,996.12h-2.62V994h-0.06c-1.16,1.72-2.7,2.59-4.62,2.59c-1.99,0-3.58-0.71-4.76-2.12
		c-1.16-1.41-1.74-3.16-1.74-5.22c0-1.96,0.58-3.62,1.77-4.99c1.18-1.41,2.73-2.12,4.63-2.12c1.94,0,3.51,0.89,4.71,2.67h0.06v-2.26
		h2.62V996.12z M639.34,994.26c1.38,0,2.45-0.47,3.22-1.42c0.79-0.96,1.19-2.14,1.19-3.51c0-1.35-0.4-2.5-1.19-3.46
		c-0.78-0.94-1.84-1.41-3.22-1.41c-1.29,0-2.34,0.47-3.13,1.45c-0.78,0.95-1.17,2.08-1.17,3.42c0,1.37,0.39,2.54,1.17,3.48
		C637,993.78,638.05,994.26,639.34,994.26z"/>
	<path class="st4" d="M659.74,994h-0.05c-0.55,0.82-1.23,1.45-2.02,1.9c-0.8,0.46-1.67,0.69-2.6,0.69c-2.02,0-3.61-0.71-4.77-2.12
		c-1.16-1.41-1.74-3.16-1.74-5.22c0-1.96,0.6-3.62,1.77-4.99c1.18-1.41,2.72-2.12,4.62-2.12c1.95,0,3.52,0.89,4.73,2.67h0.05v-13.87
		h2.62v25.19h-2.62V994z M655.48,994.26c1.37,0,2.44-0.47,3.21-1.42c0.79-0.96,1.19-2.14,1.19-3.51c0-1.35-0.4-2.5-1.19-3.46
		c-0.78-0.94-1.84-1.41-3.21-1.41c-1.3,0-2.34,0.47-3.13,1.45c-0.77,0.95-1.16,2.08-1.16,3.42c0,1.37,0.39,2.54,1.16,3.48
		C653.13,993.78,654.18,994.26,655.48,994.26z"/>
	<path class="st4" d="M669.84,994.9c0,0.47-0.16,0.86-0.48,1.19c-0.34,0.33-0.74,0.5-1.21,0.5c-0.47,0-0.86-0.17-1.18-0.5
		c-0.34-0.33-0.5-0.72-0.5-1.19c0-0.44,0.16-0.84,0.5-1.18c0.32-0.33,0.71-0.5,1.18-0.5c0.46,0,0.86,0.17,1.21,0.5
		C669.68,994.06,669.84,994.45,669.84,994.9z"/>
	<path class="st4" d="M684.11,986.39c-1.08-1.22-2.38-1.83-3.88-1.83c-1.26,0-2.34,0.48-3.23,1.42c-0.88,0.96-1.29,2.09-1.29,3.34
		c0,1.42,0.42,2.57,1.29,3.45c0.91,0.92,2.04,1.37,3.39,1.37c1.39,0,2.64-0.62,3.72-1.8v3.33c-1.12,0.6-2.37,0.91-3.74,0.91
		c-2.02,0-3.74-0.7-5.17-2.07c-1.41-1.34-2.1-3.04-2.1-5.07c0-2.09,0.69-3.84,2.1-5.23c1.42-1.39,3.19-2.09,5.32-2.09
		c1.4,0,2.6,0.3,3.6,0.89V986.39z"/>
	<path class="st4" d="M687.8,984.22c1.41-1.39,3.14-2.09,5.16-2.09c2.03,0,3.75,0.7,5.13,2.09c1.42,1.38,2.12,3.12,2.12,5.14
		c0,2.03-0.7,3.74-2.12,5.15c-1.38,1.38-3.1,2.08-5.13,2.08c-2.03,0-3.75-0.7-5.16-2.08c-1.39-1.41-2.09-3.12-2.09-5.15
		C685.71,987.34,686.41,985.6,687.8,984.22z M688.33,989.36c0,1.25,0.45,2.36,1.37,3.32c0.87,0.95,1.98,1.4,3.27,1.4
		c1.27,0,2.38-0.46,3.28-1.4c0.91-0.96,1.36-2.07,1.36-3.32c0-1.28-0.45-2.4-1.36-3.34c-0.9-0.93-2-1.39-3.28-1.39
		c-1.29,0-2.4,0.46-3.27,1.39C688.78,986.96,688.33,988.08,688.33,989.36z"/>
	<path class="st4" d="M705.13,984.25h0.06c0.39-0.62,0.89-1.12,1.55-1.52c0.65-0.4,1.33-0.6,2.04-0.6c1.69,0,2.99,0.8,3.93,2.41
		c0.42-0.73,1.01-1.32,1.76-1.77c0.74-0.43,1.55-0.65,2.41-0.65c3.01,0,4.5,1.96,4.5,5.86v8.13h-2.61v-7.69
		c0-0.34-0.01-0.69-0.05-1.02c-0.02-0.35-0.08-0.68-0.15-0.99c-0.08-0.33-0.19-0.63-0.35-0.9c-0.16-0.26-0.38-0.51-0.64-0.72
		c-0.35-0.23-0.8-0.34-1.33-0.34c-0.55,0-1.01,0.11-1.39,0.34c-0.38,0.21-0.66,0.48-0.86,0.79c-0.21,0.32-0.37,0.73-0.47,1.21
		c-0.12,0.48-0.19,0.92-0.22,1.31c-0.03,0.38-0.04,0.83-0.04,1.34v6.67h-2.62v-7.2c0-0.46,0-0.84-0.02-1.15
		c-0.03-0.32-0.08-0.7-0.18-1.16c-0.09-0.51-0.21-0.87-0.37-1.11c-0.16-0.27-0.4-0.5-0.72-0.72c-0.34-0.21-0.73-0.31-1.19-0.31
		c-1.33,0-2.2,0.57-2.59,1.73c-0.17,0.56-0.29,1.05-0.35,1.55c-0.06,0.47-0.08,1.04-0.08,1.71v6.67h-2.62v-13.58h2.62V984.25z"/>
</g>
</svg>
