<?xml version="1.0" encoding="utf-8"?>
<!-- Generator: Adobe Illustrator 16.0.0, SVG Export Plug-In . SVG Version: 6.00 Build 0)  -->
<!DOCTYPE svg PUBLIC "-//W3C//DTD SVG 1.1//EN" "http://www.w3.org/Graphics/SVG/1.1/DTD/svg11.dtd">
<svg version="1.1" id="Layer_1" xmlns="http://www.w3.org/2000/svg" xmlns:xlink="http://www.w3.org/1999/xlink" x="0px" y="0px"
	 width="841.89px" height="674.109px" viewBox="0 0 841.89 674.109" enable-background="new 0 0 841.89 674.109"
	 xml:space="preserve">
<g>
	<g>
		<rect x="0" y="628.939" width="841.89" height="45.17"/>
		<g>
			<g>
				<g>
					<g>
						<path fill="#FFFFFF" d="M305.144,644.74h2.576c2.025,0,3.695,0.49,5.004,1.469c1.322,0.969,1.98,2.363,1.98,4.18
							c0,1.865-0.654,3.295-1.967,4.283c-1.307,0.99-2.998,1.486-5.066,1.486h-2.527V644.74z M306.697,654.854h0.545
							c0.805,0,1.564-0.072,2.281-0.217c0.715-0.146,1.336-0.393,1.871-0.742c0.533-0.348,0.961-0.803,1.279-1.363
							c0.32-0.563,0.479-1.254,0.479-2.08c0-0.82-0.154-1.518-0.469-2.1c-0.316-0.578-0.752-1.031-1.313-1.357
							c-0.563-0.33-1.182-0.572-1.859-0.725c-0.676-0.152-1.432-0.227-2.27-0.227h-0.545V654.854z"/>
						<path fill="#FFFFFF" d="M316.984,652.842c0.021,0.635,0.242,1.184,0.662,1.65c0.428,0.463,0.986,0.697,1.664,0.697
							c0.541,0,0.984-0.113,1.332-0.342c0.346-0.227,0.674-0.57,0.982-1.037l1.256,0.65c-0.365,0.607-0.863,1.08-1.498,1.422
							c-0.631,0.346-1.326,0.518-2.086,0.518c-1.156,0-2.082-0.354-2.775-1.061c-0.682-0.715-1.021-1.605-1.021-2.666
							c0-1.117,0.324-2.037,0.973-2.754c0.637-0.707,1.568-1.061,2.791-1.061c1.188,0,2.086,0.354,2.691,1.061
							c0.615,0.705,0.926,1.609,0.926,2.707v0.215H316.984z M321.392,651.813c-0.086-0.547-0.314-0.979-0.684-1.297
							c-0.371-0.314-0.854-0.475-1.445-0.475c-0.287,0-0.557,0.043-0.801,0.129c-0.248,0.086-0.469,0.209-0.662,0.371
							c-0.191,0.16-0.352,0.35-0.479,0.568c-0.127,0.217-0.213,0.451-0.256,0.703H321.392z"/>
						<path fill="#FFFFFF" d="M327.255,650.693c-0.221-0.414-0.551-0.621-0.99-0.621c-0.209,0-0.398,0.068-0.563,0.201
							c-0.164,0.139-0.246,0.301-0.246,0.494c0,0.182,0.061,0.334,0.189,0.461c0.125,0.127,0.297,0.246,0.518,0.357
							c0.145,0.061,0.256,0.107,0.334,0.145c0.076,0.031,0.201,0.088,0.377,0.158c0.086,0.039,0.166,0.07,0.232,0.088
							c0.064,0.021,0.115,0.041,0.148,0.063c0.549,0.23,0.984,0.502,1.307,0.803c0.318,0.301,0.477,0.707,0.477,1.211
							c0,0.668-0.266,1.229-0.793,1.682c-0.52,0.443-1.139,0.666-1.865,0.666c-0.297,0-0.586-0.041-0.861-0.115
							c-0.273-0.074-0.529-0.182-0.768-0.32c-0.236-0.135-0.443-0.301-0.625-0.496c-0.182-0.199-0.32-0.418-0.422-0.658l1.271-0.531
							c0.365,0.605,0.83,0.91,1.404,0.91c0.23,0,0.445-0.059,0.643-0.176c0.199-0.117,0.346-0.262,0.439-0.438
							c0.092-0.176,0.111-0.369,0.057-0.576s-0.227-0.402-0.512-0.586l-1.453-0.707c-0.252-0.125-0.473-0.244-0.66-0.365
							c-0.188-0.117-0.342-0.25-0.461-0.387c-0.123-0.137-0.215-0.287-0.275-0.453c-0.059-0.168-0.09-0.361-0.09-0.582
							c0-0.576,0.221-1.061,0.662-1.455c0.438-0.404,0.979-0.605,1.617-0.605c0.969,0,1.672,0.414,2.113,1.242L327.255,650.693z"/>
						<path fill="#FFFFFF" d="M332.587,645.832c0,0.252-0.1,0.467-0.297,0.65c-0.199,0.182-0.439,0.27-0.727,0.27
							c-0.285,0-0.529-0.088-0.727-0.27c-0.197-0.184-0.297-0.398-0.297-0.65c0-0.264,0.1-0.486,0.297-0.676
							c0.197-0.188,0.441-0.277,0.727-0.277c0.287,0,0.527,0.09,0.727,0.277C332.488,645.346,332.587,645.568,332.587,645.832z
							 M332.306,656.158h-1.484v-7.088h1.484V656.158z"/>
						<path fill="#FFFFFF" d="M341.919,656.02c0,1.334-0.275,2.367-0.828,3.107c-0.549,0.725-1.529,1.09-2.939,1.09
							c-1.088,0-1.982-0.289-2.674-0.863c-0.684-0.578-1.035-1.359-1.057-2.35h1.486c0,0.637,0.211,1.129,0.635,1.477
							c0.424,0.352,0.982,0.523,1.678,0.523c0.846,0,1.426-0.229,1.742-0.682c0.314-0.453,0.469-1.094,0.469-1.922v-1.35h-0.033
							c-0.307,0.426-0.688,0.756-1.148,0.994c-0.457,0.236-0.947,0.355-1.477,0.355c-1.145,0-2.047-0.369-2.707-1.107
							c-0.662-0.736-0.992-1.643-0.992-2.723c0-1.021,0.334-1.887,1.008-2.607c0.67-0.734,1.547-1.104,2.623-1.104
							c1.139,0,2.033,0.475,2.693,1.424h0.033v-1.213h1.488V656.02z M338.003,655.189c0.783,0,1.393-0.248,1.834-0.742
							c0.451-0.506,0.678-1.117,0.678-1.832c0-0.707-0.227-1.309-0.678-1.801c-0.441-0.498-1.051-0.742-1.834-0.742
							c-0.738,0-1.33,0.252-1.783,0.754c-0.439,0.496-0.66,1.092-0.66,1.789c0,0.715,0.221,1.322,0.66,1.814
							C336.673,654.936,337.265,655.189,338.003,655.189z"/>
						<path fill="#FFFFFF" d="M345.335,650.025h0.033c0.221-0.373,0.541-0.662,0.957-0.865c0.42-0.199,0.877-0.301,1.373-0.301
							c0.504,0,0.934,0.07,1.287,0.211c0.352,0.143,0.635,0.344,0.85,0.605c0.215,0.264,0.367,0.582,0.461,0.963
							c0.092,0.379,0.141,0.811,0.141,1.295v4.225h-1.484v-4.057c0-0.699-0.109-1.205-0.33-1.527
							c-0.221-0.336-0.678-0.502-1.371-0.502c-0.254,0-0.471,0.021-0.645,0.068c-0.176,0.045-0.33,0.109-0.463,0.195
							c-0.133,0.088-0.24,0.184-0.33,0.295c-0.086,0.111-0.17,0.232-0.246,0.363c-0.035,0.07-0.064,0.162-0.092,0.271
							c-0.027,0.111-0.053,0.225-0.074,0.34c-0.021,0.119-0.039,0.234-0.051,0.35c-0.01,0.117-0.016,0.211-0.016,0.281v0.666v3.256
							h-1.486v-7.088h1.486V650.025z"/>
						<path fill="#FFFFFF" d="M357.142,643.016h1.486v7.234h0.035c0.68-0.924,1.578-1.391,2.689-1.391
							c1.078,0,1.955,0.369,2.625,1.104c0.672,0.721,1.006,1.586,1.006,2.607c0,1.08-0.33,1.986-0.988,2.723
							c-0.66,0.738-1.564,1.107-2.709,1.107c-0.527,0-1.02-0.119-1.477-0.355c-0.459-0.238-0.84-0.568-1.146-0.994h-0.035v1.107
							h-1.486V643.016z M360.99,655.189c0.783,0,1.393-0.248,1.834-0.742c0.451-0.506,0.678-1.117,0.678-1.832
							c0-0.707-0.227-1.309-0.678-1.801c-0.441-0.498-1.051-0.742-1.834-0.742c-0.736,0-1.33,0.252-1.785,0.754
							c-0.438,0.496-0.66,1.092-0.66,1.789c0,0.715,0.223,1.322,0.66,1.814C359.66,654.936,360.253,655.189,360.99,655.189z"/>
						<path fill="#FFFFFF" d="M365.201,649.07h1.732l2.609,4.498l2.426-4.498h1.67l-6.258,11.146h-1.686l3.039-5.27L365.201,649.07z
							"/>
						<path fill="#FFFFFF" d="M381.136,653.295l-1.42,2.863h-1.668l5.943-11.904l5.943,11.904h-1.664l-1.424-2.863H381.136z
							 M383.992,647.375l-2.211,4.617h4.424L383.992,647.375z"/>
						<path fill="#FFFFFF" d="M392.363,656.158h-1.486v-13.143h1.486V656.158z"/>
						<path fill="#FFFFFF" d="M396.029,656.158h-1.486v-13.143h1.486V656.158z"/>
						<path fill="#FFFFFF" d="M401.675,650.736v1.135h-3.615v-1.135H401.675z"/>
						<path fill="#FFFFFF" d="M407.455,644.393c-0.461-0.193-0.791-0.285-0.99-0.285c-0.322,0-0.549,0.09-0.693,0.279
							c-0.143,0.186-0.244,0.414-0.299,0.688c-0.031,0.201-0.051,0.361-0.057,0.477c-0.004,0.117-0.008,0.277-0.008,0.48v3.039
							h2.047v1.273h-2.047v5.814h-1.486v-5.814h-0.676v-1.273h0.676v-3.453c0-1.855,0.83-2.783,2.494-2.783
							c0.361,0,0.707,0.063,1.039,0.182V644.393z"/>
						<path fill="#FFFFFF" d="M409.751,650.223h0.047c0.189-0.426,0.463-0.758,0.826-0.998c0.365-0.244,0.793-0.365,1.287-0.365
							c0.408,0,0.816,0.115,1.223,0.348l-0.676,1.244c-0.242-0.193-0.547-0.289-0.908-0.289c-0.76,0-1.266,0.281-1.52,0.848
							c-0.107,0.262-0.184,0.521-0.223,0.775c-0.039,0.264-0.057,0.557-0.057,0.889v3.484h-1.486v-7.088h1.486V650.223z"/>
						<path fill="#FFFFFF" d="M414.853,652.842c0.023,0.635,0.242,1.184,0.66,1.65c0.43,0.463,0.984,0.697,1.668,0.697
							c0.539,0,0.982-0.113,1.328-0.342c0.348-0.227,0.674-0.57,0.982-1.037l1.256,0.65c-0.363,0.607-0.863,1.08-1.494,1.422
							c-0.633,0.346-1.33,0.518-2.09,0.518c-1.156,0-2.08-0.354-2.773-1.061c-0.682-0.715-1.023-1.605-1.023-2.666
							c0-1.117,0.324-2.037,0.975-2.754c0.637-0.707,1.568-1.061,2.791-1.061c1.188,0,2.084,0.354,2.689,1.061
							c0.617,0.705,0.926,1.609,0.926,2.707v0.215H414.853z M419.261,651.813c-0.088-0.547-0.318-0.979-0.684-1.297
							c-0.369-0.314-0.852-0.475-1.445-0.475c-0.287,0-0.553,0.043-0.803,0.129c-0.246,0.086-0.467,0.209-0.66,0.371
							c-0.191,0.16-0.352,0.35-0.479,0.568c-0.125,0.217-0.213,0.451-0.256,0.703H419.261z"/>
						<path fill="#FFFFFF" d="M422.908,652.842c0.025,0.635,0.246,1.184,0.664,1.65c0.426,0.463,0.984,0.697,1.664,0.697
							c0.539,0,0.984-0.113,1.33-0.342c0.346-0.227,0.674-0.57,0.984-1.037l1.254,0.65c-0.365,0.607-0.861,1.08-1.492,1.422
							c-0.637,0.346-1.332,0.518-2.092,0.518c-1.156,0-2.08-0.354-2.771-1.061c-0.684-0.715-1.023-1.605-1.023-2.666
							c0-1.117,0.324-2.037,0.975-2.754c0.635-0.707,1.568-1.061,2.789-1.061c1.189,0,2.084,0.354,2.691,1.061
							c0.615,0.705,0.924,1.609,0.924,2.707v0.215H422.908z M427.32,651.813c-0.092-0.547-0.318-0.979-0.686-1.297
							c-0.373-0.314-0.854-0.475-1.445-0.475c-0.289,0-0.555,0.043-0.805,0.129c-0.244,0.086-0.465,0.209-0.656,0.371
							c-0.195,0.16-0.354,0.35-0.479,0.568c-0.129,0.217-0.215,0.451-0.258,0.703H427.32z"/>
						<path fill="#FFFFFF" d="M433.609,650.736v1.135h-3.615v-1.135H433.609z"/>
						<path fill="#FFFFFF" d="M441.32,655.051h-0.033c-0.307,0.426-0.689,0.756-1.145,0.994c-0.459,0.236-0.951,0.355-1.479,0.355
							c-1.146,0-2.049-0.369-2.709-1.107c-0.66-0.736-0.99-1.643-0.99-2.723c0-1.021,0.336-1.887,1.006-2.607
							c0.672-0.734,1.547-1.104,2.625-1.104c1.111,0,2.01,0.467,2.691,1.391h0.033v-7.234h1.488v13.143h-1.488V655.051z
							 M438.892,655.189c0.783,0,1.395-0.248,1.834-0.742c0.451-0.506,0.676-1.117,0.676-1.832c0-0.707-0.225-1.309-0.676-1.801
							c-0.439-0.498-1.051-0.742-1.834-0.742c-0.736,0-1.33,0.252-1.783,0.754c-0.439,0.496-0.658,1.092-0.658,1.789
							c0,0.715,0.219,1.322,0.658,1.814C437.562,654.936,438.156,655.189,438.892,655.189z"/>
						<path fill="#FFFFFF" d="M445.234,649.949c0.801-0.725,1.783-1.09,2.939-1.09s2.131,0.365,2.922,1.09
							c0.803,0.729,1.205,1.621,1.205,2.678c0,1.063-0.402,1.955-1.205,2.682c-0.791,0.727-1.766,1.092-2.922,1.092
							s-2.139-0.365-2.939-1.092c-0.793-0.727-1.189-1.619-1.189-2.682C444.044,651.57,444.441,650.678,445.234,649.949z
							 M445.531,652.627c0,0.658,0.258,1.24,0.775,1.744c0.506,0.482,1.127,0.725,1.867,0.725c0.725,0,1.35-0.242,1.863-0.725
							c0.52-0.504,0.775-1.086,0.775-1.744c0-0.662-0.256-1.242-0.775-1.738c-0.514-0.484-1.139-0.727-1.863-0.727
							c-0.74,0-1.361,0.242-1.867,0.727C445.789,651.385,445.531,651.965,445.531,652.627z"/>
						<path fill="#FFFFFF" d="M456.296,653.584l2.279-4.904l2.264,4.904l2.244-4.514h1.686l-3.93,7.33l-2.264-4.74l-2.279,4.74
							l-3.93-7.33h1.684L456.296,653.584z"/>
						<path fill="#FFFFFF" d="M466.998,650.025h0.035c0.217-0.373,0.537-0.662,0.957-0.865c0.418-0.199,0.875-0.301,1.369-0.301
							c0.508,0,0.936,0.07,1.291,0.211c0.35,0.143,0.635,0.344,0.846,0.605c0.215,0.264,0.371,0.582,0.463,0.963
							c0.096,0.379,0.141,0.811,0.141,1.295v4.225h-1.488v-4.057c0-0.699-0.107-1.205-0.328-1.527
							c-0.217-0.336-0.676-0.502-1.367-0.502c-0.256,0-0.473,0.021-0.648,0.068c-0.176,0.045-0.328,0.109-0.461,0.195
							c-0.133,0.088-0.24,0.184-0.332,0.295c-0.084,0.111-0.168,0.232-0.246,0.363c-0.033,0.07-0.064,0.162-0.092,0.271
							c-0.027,0.111-0.051,0.225-0.072,0.34c-0.021,0.119-0.041,0.234-0.049,0.35c-0.014,0.117-0.018,0.211-0.018,0.281v0.666v3.256
							h-1.486v-7.088h1.486V650.025z"/>
						<path fill="#FFFFFF" d="M475.699,656.158h-1.484v-13.143h1.484V656.158z"/>
						<path fill="#FFFFFF" d="M478.306,649.949c0.805-0.725,1.783-1.09,2.943-1.09c1.154,0,2.129,0.365,2.92,1.09
							c0.803,0.729,1.205,1.621,1.205,2.678c0,1.063-0.402,1.955-1.205,2.682c-0.791,0.727-1.766,1.092-2.92,1.092
							c-1.16,0-2.139-0.365-2.943-1.092c-0.791-0.727-1.188-1.619-1.188-2.682C477.119,651.57,477.515,650.678,478.306,649.949z
							 M478.607,652.627c0,0.658,0.256,1.24,0.775,1.744c0.504,0.482,1.127,0.725,1.867,0.725c0.723,0,1.348-0.242,1.863-0.725
							c0.516-0.504,0.777-1.086,0.777-1.744c0-0.662-0.262-1.242-0.777-1.738c-0.516-0.484-1.141-0.727-1.863-0.727
							c-0.74,0-1.363,0.242-1.867,0.727C478.863,651.385,478.607,651.965,478.607,652.627z"/>
						<path fill="#FFFFFF" d="M493.978,656.158h-1.486v-1.107h-0.031c-0.66,0.898-1.537,1.35-2.627,1.35
							c-1.135,0-2.035-0.369-2.709-1.107c-0.66-0.736-0.99-1.643-0.99-2.723c0-1.021,0.334-1.887,1.006-2.607
							c0.674-0.734,1.553-1.104,2.645-1.104c1.104,0,1.99,0.467,2.676,1.391h0.031v-1.18h1.486V656.158z M490.066,655.189
							c0.781,0,1.389-0.248,1.83-0.742c0.453-0.506,0.68-1.117,0.68-1.832c0-0.707-0.227-1.309-0.68-1.801
							c-0.441-0.498-1.049-0.742-1.83-0.742c-0.74,0-1.336,0.252-1.783,0.754c-0.443,0.496-0.662,1.092-0.662,1.789
							c0,0.715,0.219,1.322,0.662,1.814C488.73,654.936,489.326,655.189,490.066,655.189z"/>
						<path fill="#FFFFFF" d="M501.671,655.051h-0.031c-0.311,0.426-0.689,0.756-1.146,0.994c-0.457,0.236-0.951,0.355-1.477,0.355
							c-1.146,0-2.051-0.369-2.709-1.107c-0.66-0.736-0.992-1.643-0.992-2.723c0-1.021,0.332-1.887,1.01-2.607
							c0.67-0.734,1.545-1.104,2.621-1.104c1.115,0,2.01,0.467,2.693,1.391h0.031v-7.234h1.488v13.143h-1.488V655.051z
							 M499.246,655.189c0.781,0,1.391-0.248,1.83-0.742c0.455-0.506,0.68-1.117,0.68-1.832c0-0.707-0.225-1.309-0.68-1.801
							c-0.439-0.498-1.049-0.742-1.83-0.742c-0.738,0-1.332,0.252-1.783,0.754c-0.439,0.496-0.66,1.092-0.66,1.789
							c0,0.715,0.221,1.322,0.66,1.814C497.914,654.936,498.507,655.189,499.246,655.189z"/>
						<path fill="#FFFFFF" d="M507.419,655.52c0,0.244-0.094,0.451-0.281,0.623c-0.188,0.17-0.414,0.258-0.678,0.258
							s-0.488-0.088-0.676-0.258c-0.188-0.172-0.279-0.379-0.279-0.623c0-0.23,0.092-0.434,0.279-0.611
							c0.188-0.176,0.412-0.264,0.676-0.264s0.49,0.088,0.678,0.264C507.326,655.086,507.419,655.289,507.419,655.52z"/>
						<path fill="#FFFFFF" d="M515.544,651.084c-0.615-0.633-1.357-0.953-2.213-0.953c-0.717,0-1.33,0.248-1.832,0.742
							c-0.496,0.504-0.746,1.086-0.746,1.742c0,0.734,0.25,1.338,0.746,1.801c0.518,0.477,1.162,0.715,1.93,0.715
							c0.793,0,1.5-0.314,2.115-0.941v1.74c-0.639,0.313-1.348,0.471-2.133,0.471c-1.145,0-2.123-0.355-2.938-1.076
							c-0.805-0.705-1.203-1.59-1.203-2.65c0-1.088,0.398-1.996,1.203-2.725c0.803-0.725,1.813-1.09,3.023-1.09
							c0.793,0,1.473,0.156,2.047,0.469V651.084z"/>
						<path fill="#FFFFFF" d="M517.642,649.949c0.803-0.725,1.783-1.09,2.938-1.09c1.156,0,2.129,0.365,2.922,1.09
							c0.807,0.729,1.207,1.621,1.207,2.678c0,1.063-0.4,1.955-1.207,2.682c-0.793,0.727-1.766,1.092-2.922,1.092
							c-1.154,0-2.135-0.365-2.938-1.092c-0.795-0.727-1.189-1.619-1.189-2.682C516.453,651.57,516.847,650.678,517.642,649.949z
							 M517.937,652.627c0,0.658,0.262,1.24,0.775,1.744c0.508,0.482,1.131,0.725,1.867,0.725c0.727,0,1.348-0.242,1.867-0.725
							c0.516-0.504,0.775-1.086,0.775-1.744c0-0.662-0.26-1.242-0.775-1.738c-0.52-0.484-1.141-0.727-1.867-0.727
							c-0.736,0-1.359,0.242-1.867,0.727C518.199,651.385,517.937,651.965,517.937,652.627z"/>
						<path fill="#FFFFFF" d="M527.496,649.963h0.035c0.221-0.32,0.516-0.586,0.883-0.795c0.371-0.205,0.76-0.309,1.164-0.309
							c0.959,0,1.703,0.42,2.229,1.258c0.246-0.385,0.576-0.691,1.002-0.918c0.422-0.225,0.883-0.34,1.379-0.34
							c1.705,0,2.559,1.02,2.559,3.059v4.24h-1.486v-4.014c0-0.18-0.008-0.359-0.025-0.539c-0.016-0.174-0.047-0.346-0.092-0.514
							c-0.041-0.166-0.107-0.32-0.197-0.461c-0.086-0.139-0.209-0.27-0.363-0.381c-0.195-0.119-0.453-0.178-0.758-0.178
							c-0.309,0-0.574,0.059-0.793,0.178c-0.211,0.111-0.373,0.256-0.488,0.418c-0.115,0.166-0.203,0.377-0.271,0.627
							c-0.064,0.254-0.104,0.482-0.127,0.682c-0.016,0.203-0.02,0.438-0.02,0.697v3.484h-1.488v-3.756
							c0-0.242-0.008-0.443-0.018-0.605c-0.012-0.16-0.043-0.363-0.096-0.605c-0.057-0.262-0.127-0.455-0.219-0.574
							c-0.088-0.143-0.223-0.268-0.41-0.379c-0.186-0.111-0.414-0.166-0.678-0.166c-0.76,0-1.252,0.305-1.469,0.906
							c-0.1,0.285-0.168,0.551-0.197,0.803c-0.035,0.252-0.055,0.553-0.055,0.893v3.484h-1.484v-7.088h1.484V649.963z"/>
					</g>
					<g>
						<rect x="270.506" y="651.055" fill="#FFFFFF" width="21.034" height="0.941"/>
						<rect x="550.351" y="651.055" fill="#FFFFFF" width="21.033" height="0.941"/>
					</g>
				</g>
			</g>
		</g>
	</g>
</g>
<g>
	
		<radialGradient id="SVGID_1_" cx="200.2715" cy="141.73" r="975.9651" gradientTransform="matrix(1.145 0 0 1.1436 -136.4398 -304.9297)" gradientUnits="userSpaceOnUse">
		<stop  offset="0.004" style="stop-color:#4C02F1"/>
		<stop  offset="0.0082" style="stop-color:#4B02EF"/>
		<stop  offset="0.1263" style="stop-color:#3903C4"/>
		<stop  offset="0.2487" style="stop-color:#29039E"/>
		<stop  offset="0.3765" style="stop-color:#1D0380"/>
		<stop  offset="0.5099" style="stop-color:#130468"/>
		<stop  offset="0.6513" style="stop-color:#0C0457"/>
		<stop  offset="0.8062" style="stop-color:#07044D"/>
		<stop  offset="1" style="stop-color:#06044A"/>
	</radialGradient>
	<rect fill="url(#SVGID_1_)" width="841.89" height="629.356"/>
	<g>
		<defs>
			<path id="SVGID_2_" d="M699.78,0c-24.626,14.302-41.178,40.889-41.178,71.322c0,45.571,37.103,82.513,82.871,82.513
				c45.767,0,82.871-36.942,82.871-82.513c0-30.434-16.553-57.021-41.178-71.322H699.78z"/>
		</defs>
		<clipPath id="SVGID_3_">
			<use xlink:href="#SVGID_2_"  overflow="visible"/>
		</clipPath>
		<defs>
			<filter id="Adobe_OpacityMaskFilter" filterUnits="userSpaceOnUse" x="589.327" y="-73.991" width="304.291" height="301.816">
				<feColorMatrix  type="matrix" values="1 0 0 0 0  0 1 0 0 0  0 0 1 0 0  0 0 0 1 0"/>
			</filter>
		</defs>
		<mask maskUnits="userSpaceOnUse" x="589.327" y="-73.991" width="304.291" height="301.816" id="SVGID_4_">
			<g filter="url(#Adobe_OpacityMaskFilter)">
				
					<linearGradient id="SVGID_5_" gradientUnits="userSpaceOnUse" x1="35.5122" y1="600.1914" x2="36.284" y2="600.1914" gradientTransform="matrix(-92 148 148 92 -84771.3594 -60473.9531)">
					<stop  offset="0" style="stop-color:#FFFFFF"/>
					<stop  offset="0.0756" style="stop-color:#FFFFFF"/>
					<stop  offset="1" style="stop-color:#000000"/>
				</linearGradient>
				<polygon clip-path="url(#SVGID_3_)" fill="url(#SVGID_5_)" points="893.618,42.876 778.149,227.825 589.327,110.958 
					704.795,-73.991 				"/>
			</g>
		</mask>
		
			<linearGradient id="SVGID_6_" gradientUnits="userSpaceOnUse" x1="35.5122" y1="600.1914" x2="36.284" y2="600.1914" gradientTransform="matrix(-92 148 148 92 -84771.3594 -60473.9531)">
			<stop  offset="0" style="stop-color:#13E4D4"/>
			<stop  offset="0.0756" style="stop-color:#13E4D4"/>
			<stop  offset="1" style="stop-color:#13E4D4"/>
		</linearGradient>
		<polygon clip-path="url(#SVGID_3_)" mask="url(#SVGID_4_)" fill="url(#SVGID_6_)" points="893.618,42.876 778.149,227.825 
			589.327,110.958 704.795,-73.991 		"/>
	</g>
	<g>
		<defs>
			<path id="SVGID_7_" d="M448.313,474.646c0,62.17,28.349,117.702,72.774,154.294h252.164
				c33.855-27.887,58.38-66.778,68.128-111.219v-86.148c-19.626-89.485-99.128-156.444-194.212-156.444
				C537.344,275.128,448.313,364.455,448.313,474.646"/>
		</defs>
		<clipPath id="SVGID_8_">
			<use xlink:href="#SVGID_7_"  overflow="visible"/>
		</clipPath>
		<defs>
			<filter id="Adobe_OpacityMaskFilter_1_" filterUnits="userSpaceOnUse" x="283.391" y="90.69" width="722.911" height="722.688">
				<feColorMatrix  type="matrix" values="1 0 0 0 0  0 1 0 0 0  0 0 1 0 0  0 0 0 1 0"/>
			</filter>
		</defs>
		<mask maskUnits="userSpaceOnUse" x="283.391" y="90.69" width="722.911" height="722.688" id="SVGID_9_">
			<g filter="url(#Adobe_OpacityMaskFilter_1_)">
				
					<linearGradient id="SVGID_10_" gradientUnits="userSpaceOnUse" x1="36.3193" y1="599.9658" x2="37.5489" y2="599.9658" gradientTransform="matrix(302 -208.6666 -208.6666 -302 114770.2109 189288.875)">
					<stop  offset="0" style="stop-color:#FFFFFF"/>
					<stop  offset="0.1002" style="stop-color:#FFFFFF"/>
					<stop  offset="1" style="stop-color:#000000"/>
				</linearGradient>
				<polygon clip-path="url(#SVGID_8_)" fill="url(#SVGID_10_)" points="283.391,389.46 714.365,90.69 1006.301,514.609 
					575.328,813.378 				"/>
			</g>
		</mask>
		
			<linearGradient id="SVGID_11_" gradientUnits="userSpaceOnUse" x1="36.3208" y1="599.9629" x2="37.5503" y2="599.9629" gradientTransform="matrix(302 -208.6667 -208.6667 -302 114769.4688 189287.875)">
			<stop  offset="0" style="stop-color:#D93EFC"/>
			<stop  offset="0.1002" style="stop-color:#D93EFC"/>
			<stop  offset="1" style="stop-color:#D93EFC"/>
		</linearGradient>
		<polygon clip-path="url(#SVGID_8_)" mask="url(#SVGID_9_)" fill="url(#SVGID_11_)" points="283.391,389.46 714.365,90.69 
			1006.301,514.609 575.328,813.378 		"/>
	</g>
	<g>
		<defs>
			<path id="SVGID_12_" d="M34.13,293.708c0,66.328,54.004,120.097,120.618,120.097c66.617,0,120.621-53.77,120.621-120.097
				c0-66.33-54.004-120.094-120.621-120.094C88.134,173.613,34.13,227.378,34.13,293.708"/>
		</defs>
		<clipPath id="SVGID_13_">
			<use xlink:href="#SVGID_12_"  overflow="visible"/>
		</clipPath>
		<defs>
			<filter id="Adobe_OpacityMaskFilter_2_" filterUnits="userSpaceOnUse" x="-78.689" y="61.282" width="466.879" height="464.851">
				<feColorMatrix  type="matrix" values="1 0 0 0 0  0 1 0 0 0  0 0 1 0 0  0 0 0 1 0"/>
			</filter>
		</defs>
		<mask maskUnits="userSpaceOnUse" x="-78.689" y="61.282" width="466.879" height="464.851" id="SVGID_14_">
			<g filter="url(#Adobe_OpacityMaskFilter_2_)">
				
					<linearGradient id="SVGID_15_" gradientUnits="userSpaceOnUse" x1="35.8877" y1="599.4395" x2="37.6819" y2="599.4395" gradientTransform="matrix(125.2965 -86.5735 -86.5735 -125.2965 47499.1445 78545.9531)">
					<stop  offset="0" style="stop-color:#FFFFFF"/>
					<stop  offset="0.1002" style="stop-color:#FFFFFF"/>
					<stop  offset="1" style="stop-color:#000000"/>
				</linearGradient>
				<polygon clip-path="url(#SVGID_13_)" fill="url(#SVGID_15_)" points="-78.689,251.229 197.415,61.282 388.19,336.189 
					112.084,526.133 				"/>
			</g>
		</mask>
		
			<linearGradient id="SVGID_16_" gradientUnits="userSpaceOnUse" x1="35.8877" y1="599.4395" x2="37.6819" y2="599.4395" gradientTransform="matrix(125.2965 -86.5735 -86.5735 -125.2965 47499.1445 78545.9531)">
			<stop  offset="0" style="stop-color:#D93EFC"/>
			<stop  offset="0.1002" style="stop-color:#D93EFC"/>
			<stop  offset="1" style="stop-color:#D93EFC"/>
		</linearGradient>
		<polygon clip-path="url(#SVGID_13_)" mask="url(#SVGID_14_)" fill="url(#SVGID_16_)" points="-78.689,251.229 197.415,61.282 
			388.19,336.189 112.084,526.133 		"/>
	</g>
	<g>
		<defs>
			<path id="SVGID_17_" d="M0,488.829v139.903h132.516c2.085-8.637,3.188-17.654,3.188-26.924
				c0-63.392-51.611-114.774-115.27-114.774C13.46,487.034,6.634,487.648,0,488.829"/>
		</defs>
		<clipPath id="SVGID_18_">
			<use xlink:href="#SVGID_17_"  overflow="visible"/>
		</clipPath>
		<defs>
			
				<filter id="Adobe_OpacityMaskFilter_3_" filterUnits="userSpaceOnUse" x="-64.882" y="425.435" width="265.471" height="264.899">
				<feColorMatrix  type="matrix" values="1 0 0 0 0  0 1 0 0 0  0 0 1 0 0  0 0 0 1 0"/>
			</filter>
		</defs>
		<mask maskUnits="userSpaceOnUse" x="-64.882" y="425.435" width="265.471" height="264.899" id="SVGID_19_">
			<g filter="url(#Adobe_OpacityMaskFilter_3_)">
				
					<linearGradient id="SVGID_20_" gradientUnits="userSpaceOnUse" x1="35.4985" y1="599.9531" x2="37.5221" y2="599.9531" gradientTransform="matrix(-78 120.6667 120.6667 78 -69434.1406 -50713.0469)">
					<stop  offset="0" style="stop-color:#FFFFFF"/>
					<stop  offset="0.0756" style="stop-color:#FFFFFF"/>
					<stop  offset="1" style="stop-color:#000000"/>
				</linearGradient>
				<polygon clip-path="url(#SVGID_18_)" fill="url(#SVGID_20_)" points="200.589,528.793 95.713,690.334 -64.882,586.973 
					39.992,425.435 				"/>
			</g>
		</mask>
		
			<linearGradient id="SVGID_21_" gradientUnits="userSpaceOnUse" x1="35.4985" y1="599.9531" x2="37.5221" y2="599.9531" gradientTransform="matrix(-78 120.6667 120.6667 78 -69434.1406 -50713.0469)">
			<stop  offset="0" style="stop-color:#13E4D4"/>
			<stop  offset="0.0756" style="stop-color:#13E4D4"/>
			<stop  offset="1" style="stop-color:#13E4D4"/>
		</linearGradient>
		<polygon clip-path="url(#SVGID_18_)" mask="url(#SVGID_19_)" fill="url(#SVGID_21_)" points="200.589,528.793 95.713,690.334 
			-64.882,586.973 39.992,425.435 		"/>
	</g>
</g>
<g>
	<g>
		<path fill="#292972" d="M247.814,543.234c-9.574-0.023-7.743-7.803-7.721-17.378l0.478-207.25
			c0.021-9.574,7.803-17.319,17.377-17.296l355.339,0.821c9.574,0.021,17.318,7.801,17.296,17.376l-0.479,207.249
			c-0.021,9.575,1.773,17.32-7.801,17.297"/>
		<path fill="#FFFFFF" d="M621.41,535.413l-372.887-0.822c-4.87-0.011-8.809-3.968-8.798-8.838l0.518-224.289
			c0.012-4.87,3.969-8.807,8.837-8.796l373.073,0.822c4.874,0.01,8.813,3.972,8.798,8.844l-0.705,224.289
			C630.231,531.489,626.276,535.424,621.41,535.413z"/>
		<path fill="none" stroke="#39304C" stroke-linecap="round" stroke-linejoin="round" stroke-miterlimit="10" d="M398.755,455.13
			l82.097,0.19c5.392,0.013,9.751,4.39,9.738,9.782l-0.117,50.861c-0.012,5.39-4.392,9.749-9.783,9.736l-82.096-0.19
			c-5.393-0.013-9.751-4.393-9.738-9.781l0.116-50.86C388.983,459.476,393.364,455.117,398.755,455.13z"/>
		<g>
			<path fill="#FFFFFF" d="M629.298,108.047l-386.761-0.894c-4.094-0.011-8.127,1.623-9.003,3.658l-2.466,4.147l409.444,0.814
				l-2.228-4.027C637.417,109.708,633.393,108.057,629.298,108.047z"/>
			<path fill="#292972" d="M625.016,294.671l-378.762-0.875c-3.219-0.007-5.824-2.005-6.054-4.637l-9.461-171.851
				c-0.291-3.308,3.681-6.615,7.892-6.605l394.56,0.911c4.212,0.01,8.166,3.336,7.861,6.642l-9.961,171.806
				C630.849,292.693,628.233,294.678,625.016,294.671z"/>
			<g>
				<defs>
					<path id="SVGID_22_" d="M618.699,285.217l-366.078-0.847c-0.761-0.001-1.326-0.471-1.383-1.154l-8.292-160.836
						c-0.067-0.791,0.87-1.579,1.874-1.578l382.143,0.882c1.003,0.003,1.937,0.796,1.864,1.588l-8.739,160.798
						C620.027,284.75,619.461,285.217,618.699,285.217z"/>
				</defs>
				<clipPath id="SVGID_23_">
					<use xlink:href="#SVGID_22_"  overflow="visible"/>
				</clipPath>
				<path clip-path="url(#SVGID_23_)" fill="#FFFFFF" d="M618.699,285.217l-366.078-0.847c-0.761-0.001-1.326-0.471-1.383-1.154
					l-8.292-160.836c-0.067-0.791,0.87-1.579,1.874-1.578l382.143,0.882c1.003,0.003,1.937,0.796,1.864,1.588l-8.739,160.798
					C620.027,284.75,619.461,285.217,618.699,285.217z"/>
			</g>
		</g>
		<g>
			<path fill="none" stroke="#D0D8D8" stroke-linecap="round" stroke-linejoin="round" stroke-miterlimit="10" d="M613.065,446.085
				l-355.56-0.822c-3.073-0.009-5.558-2.505-5.551-5.579l0.292-126.217c0.008-3.047,2.482-5.512,5.531-5.505l355.65,0.821
				c3.047,0.007,5.512,2.484,5.505,5.53l-0.291,126.221C618.633,443.605,616.137,446.091,613.065,446.085z"/>
			<g>
				<path fill="#292972" d="M283.865,335.807l-13.447-0.033c-1.31-0.002-2.369-1.066-2.364-2.373l0.019-7.753
					c0.002-1.31,1.064-2.368,2.374-2.365l13.446,0.031c1.31,0.003,2.367,1.067,2.363,2.374l-0.018,7.753
					C286.235,334.75,285.172,335.81,283.865,335.807z"/>
				<path fill="#292972" d="M307.575,335.861l-13.447-0.032c-1.31-0.003-2.369-1.065-2.366-2.374l0.021-7.753
					c0.003-1.309,1.064-2.366,2.374-2.363l13.447,0.031c1.31,0.002,2.365,1.066,2.363,2.375l-0.017,7.754
					C309.947,334.804,308.883,335.863,307.575,335.861z"/>
				<path fill="#292972" d="M331.286,335.915l-13.447-0.03c-1.31-0.004-2.368-1.065-2.365-2.375l0.018-7.752
					c0.004-1.308,1.066-2.367,2.375-2.364l13.446,0.031c1.309,0.002,2.366,1.066,2.363,2.374l-0.017,7.754
					C333.657,334.859,332.594,335.918,331.286,335.915z"/>
				<path fill="#292972" d="M354.997,335.97l-13.448-0.032c-1.308-0.002-2.367-1.065-2.364-2.373l0.019-7.752
					c0.002-1.309,1.065-2.368,2.375-2.366l13.446,0.031c1.309,0.002,2.366,1.068,2.363,2.376l-0.018,7.751
					C357.368,334.916,356.303,335.973,354.997,335.97z"/>
				<path fill="#292972" d="M378.708,336.026l-13.448-0.032c-1.308-0.003-2.367-1.068-2.364-2.374l0.019-7.753
					c0.002-1.31,1.065-2.367,2.375-2.364l13.447,0.031c1.308,0.002,2.365,1.067,2.362,2.374l-0.018,7.755
					C381.079,334.969,380.014,336.029,378.708,336.026z"/>
				<path fill="#292972" d="M402.417,336.08l-13.446-0.032c-1.308-0.003-2.367-1.065-2.365-2.374l0.019-7.753
					c0.003-1.307,1.066-2.365,2.375-2.362l13.448,0.031c1.307,0.003,2.365,1.065,2.362,2.374l-0.017,7.754
					C404.789,335.023,403.725,336.083,402.417,336.08z"/>
				<path fill="#292972" d="M426.128,336.134l-13.447-0.032c-1.308-0.002-2.366-1.064-2.364-2.373l0.019-7.752
					c0.004-1.309,1.066-2.368,2.374-2.365l13.448,0.031c1.308,0.003,2.365,1.066,2.362,2.374l-0.016,7.754
					C428.501,335.079,427.436,336.137,426.128,336.134z"/>
				<path fill="#292972" d="M449.839,336.19l-13.448-0.032c-1.307-0.003-2.365-1.065-2.362-2.374l0.018-7.753
					c0.004-1.308,1.066-2.367,2.374-2.364l13.447,0.031c1.31,0.002,2.367,1.068,2.363,2.375l-0.018,7.752
					C452.209,335.134,451.148,336.192,449.839,336.19z"/>
				<path fill="#292972" d="M473.55,336.245l-13.447-0.032c-1.31-0.003-2.367-1.066-2.363-2.373l0.019-7.754
					c0.002-1.31,1.065-2.367,2.373-2.364l13.447,0.031c1.309,0.002,2.366,1.066,2.363,2.374l-0.019,7.755
					C475.921,335.188,474.858,336.248,473.55,336.245z"/>
				<path fill="#292972" d="M497.26,336.299l-13.448-0.032c-1.308-0.002-2.365-1.065-2.361-2.373l0.017-7.754
					c0.004-1.308,1.066-2.366,2.376-2.362l13.446,0.03c1.308,0.003,2.367,1.065,2.364,2.375l-0.02,7.753
					C499.632,335.242,498.569,336.302,497.26,336.299z"/>
				<path fill="#292972" d="M520.971,336.354l-13.447-0.033c-1.308-0.002-2.366-1.063-2.362-2.373l0.017-7.753
					c0.004-1.308,1.066-2.366,2.375-2.363L521,323.863c1.309,0.002,2.368,1.067,2.365,2.374l-0.02,7.755
					C523.343,335.298,522.28,336.356,520.971,336.354z"/>
				<path fill="#292972" d="M544.682,336.409l-13.447-0.032c-1.309-0.003-2.366-1.065-2.363-2.374l0.018-7.754
					c0.003-1.307,1.066-2.367,2.376-2.364l13.446,0.032c1.308,0.003,2.367,1.067,2.363,2.374l-0.019,7.754
					C547.054,335.353,545.991,336.412,544.682,336.409z"/>
				<path fill="#292972" d="M573.824,336.465l-18.878-0.033c-1.309-0.002-2.367-1.066-2.362-2.373l0.016-7.753
					c0.004-1.31,1.066-2.367,2.375-2.364l18.877,0.03c1.31,0.003,2.367,1.066,2.365,2.374l-0.019,7.755
					C576.194,335.408,575.132,336.467,573.824,336.465z"/>
				<path fill="#292972" d="M603.087,336.543l-18.999-0.056c-1.309-0.003-2.368-1.065-2.365-2.374l0.019-7.754
					c0.003-1.308,1.066-2.366,2.374-2.362l19.001,0.056c1.307,0.003,2.365,1.064,2.361,2.374l-0.017,7.752
					C605.458,335.488,604.396,336.546,603.087,336.543z"/>
				<path fill="#292972" d="M283.637,434.446l-13.446-0.032c-1.31-0.002-2.369-1.065-2.364-2.374l0.044-19.141
					c0.002-1.306,1.065-2.367,2.374-2.363l13.447,0.032c1.309,0.002,2.366,1.065,2.364,2.374l-0.044,19.141
					C286.007,433.391,284.944,434.45,283.637,434.446z"/>
				<path fill="#292972" d="M307.347,434.501l-13.448-0.029c-1.308-0.005-2.367-1.068-2.364-2.376l0.046-19.141
					c0.003-1.309,1.064-2.366,2.374-2.363l13.446,0.031c1.31,0.002,2.367,1.065,2.364,2.374l-0.043,19.141
					C309.718,433.446,308.655,434.505,307.347,434.501z"/>
				<path fill="#292972" d="M331.059,434.556l-13.448-0.031c-1.308-0.002-2.367-1.065-2.364-2.374l0.045-19.141
					c0.002-1.307,1.064-2.367,2.374-2.363l13.447,0.031c1.31,0.002,2.367,1.065,2.364,2.372l-0.044,19.143
					C333.429,433.501,332.366,434.56,331.059,434.556z"/>
				<path fill="#292972" d="M354.769,434.61l-13.448-0.029c-1.308-0.004-2.367-1.067-2.365-2.378l0.046-19.141
					c0.002-1.307,1.064-2.363,2.374-2.361l13.447,0.032c1.31,0.002,2.367,1.065,2.364,2.373l-0.043,19.141
					C357.141,433.556,356.076,434.615,354.769,434.61z"/>
				<path fill="#292972" d="M449.612,434.828l-84.58-0.194c-1.308-0.002-2.366-1.065-2.364-2.374l0.046-19.141
					c0.003-1.309,1.064-2.367,2.374-2.365l84.579,0.199c1.308,0.002,2.366,1.065,2.362,2.371l-0.044,19.144
					C451.983,433.773,450.919,434.835,449.612,434.828z"/>
				<path fill="#292972" d="M473.323,434.884l-13.448-0.03c-1.309-0.002-2.366-1.067-2.363-2.376l0.044-19.141
					c0.004-1.309,1.067-2.365,2.374-2.363l13.448,0.032c1.308,0.004,2.365,1.065,2.362,2.374l-0.043,19.141
					C475.693,433.831,474.63,434.888,473.323,434.884z"/>
				<path fill="#292972" d="M497.034,434.938l-13.448-0.029c-1.309-0.005-2.365-1.067-2.362-2.376l0.043-19.141
					c0.004-1.307,1.066-2.366,2.374-2.363l13.448,0.031c1.309,0.004,2.365,1.065,2.362,2.374l-0.043,19.141
					C499.404,433.884,498.341,434.944,497.034,434.938z"/>
				<path fill="#292972" d="M520.745,434.993l-13.448-0.029c-1.309-0.004-2.368-1.067-2.362-2.376l0.043-19.141
					c0.003-1.309,1.066-2.365,2.374-2.363l13.447,0.031c1.31,0.003,2.367,1.065,2.364,2.374l-0.045,19.141
					C523.115,433.938,522.051,434.998,520.745,434.993z"/>
				<path fill="#292972" d="M574.889,435.12l-15.265-0.036c-1.307-0.004-2.365-1.065-2.363-2.373l0.011-4.446
					c0.003-1.306,1.066-2.367,2.375-2.363l15.264,0.036c1.308,0.002,2.367,1.065,2.362,2.372l-0.01,4.447
					C577.26,434.063,576.198,435.122,574.889,435.12z"/>
				<path fill="#292972" d="M600.968,435.18l-15.264-0.036c-1.308-0.002-2.365-1.065-2.362-2.374l0.009-4.443
					c0.004-1.309,1.066-2.367,2.375-2.363l15.265,0.036c1.307,0.002,2.365,1.063,2.362,2.372l-0.011,4.447
					C603.34,434.125,602.277,435.182,600.968,435.18z"/>
				<path fill="#292972" d="M548.81,435.059l-15.263-0.033c-1.31-0.005-2.366-1.065-2.364-2.376l0.01-4.443
					c0.003-1.311,1.066-2.368,2.375-2.365l15.264,0.035c1.308,0.005,2.366,1.065,2.364,2.374l-0.012,4.445
					C551.181,434.004,550.118,435.063,548.81,435.059z"/>
				<path fill="#292972" d="M574.922,420.423l-15.264-0.036c-1.308-0.002-2.364-1.065-2.362-2.374l0.01-4.443
					c0.003-1.311,1.066-2.367,2.375-2.365l15.264,0.036c1.308,0.002,2.365,1.067,2.362,2.376l-0.01,4.443
					C577.294,419.368,576.231,420.427,574.922,420.423z"/>
				<path fill="#292972" d="M283.81,359.044l-13.446-0.032c-1.31-0.004-2.367-1.065-2.364-2.374l0.031-13.447
					c0.003-1.31,1.066-2.369,2.374-2.364l13.448,0.031c1.308,0.003,2.366,1.066,2.363,2.374l-0.032,13.449
					C286.181,357.986,285.118,359.046,283.81,359.044z"/>
				<path fill="#292972" d="M307.521,359.099l-13.447-0.032c-1.309-0.002-2.367-1.065-2.364-2.374l0.031-13.448
					c0.003-1.308,1.066-2.366,2.374-2.362l13.448,0.03c1.308,0.002,2.366,1.065,2.363,2.374l-0.031,13.445
					C309.892,358.041,308.829,359.101,307.521,359.099z"/>
				<path fill="#292972" d="M331.232,359.153l-13.447-0.031c-1.31-0.005-2.366-1.066-2.364-2.375l0.03-13.448
					c0.003-1.307,1.067-2.367,2.375-2.362l13.448,0.031c1.307,0.002,2.366,1.066,2.363,2.375l-0.031,13.445
					C333.603,358.096,332.54,359.155,331.232,359.153z"/>
				<path fill="#292972" d="M354.942,359.208l-13.446-0.031c-1.31-0.004-2.367-1.065-2.364-2.374l0.029-13.448
					c0.003-1.309,1.068-2.369,2.375-2.365l13.448,0.031c1.306,0.003,2.365,1.069,2.363,2.374l-0.031,13.448
					C357.314,358.151,356.25,359.211,354.942,359.208z"/>
				<path fill="#292972" d="M378.653,359.262l-13.446-0.032c-1.31-0.002-2.369-1.065-2.366-2.372l0.031-13.448
					c0.003-1.31,1.067-2.368,2.375-2.363l13.447,0.03c1.308,0.003,2.366,1.067,2.364,2.375l-0.031,13.446
					C381.024,358.206,379.961,359.266,378.653,359.262z"/>
				<path fill="#292972" d="M402.365,359.318l-13.448-0.031c-1.308-0.005-2.367-1.066-2.364-2.375l0.031-13.448
					c0.003-1.308,1.068-2.367,2.374-2.362l13.448,0.03c1.309,0.003,2.368,1.065,2.364,2.375l-0.031,13.445
					C404.735,358.261,403.673,359.32,402.365,359.318z"/>
				<path fill="#292972" d="M426.076,359.371l-13.448-0.031c-1.308-0.002-2.366-1.066-2.364-2.375l0.031-13.447
					c0.004-1.307,1.067-2.366,2.374-2.362l13.448,0.031c1.309,0.003,2.367,1.066,2.364,2.375l-0.031,13.447
					C428.447,358.316,427.382,359.375,426.076,359.371z"/>
				<path fill="#292972" d="M449.786,359.429l-13.447-0.034c-1.308-0.002-2.366-1.065-2.363-2.372l0.03-13.449
					c0.003-1.309,1.066-2.368,2.375-2.365l13.448,0.031c1.308,0.003,2.366,1.069,2.362,2.374l-0.031,13.449
					C452.157,358.369,451.095,359.431,449.786,359.429z"/>
				<path fill="#292972" d="M473.496,359.481l-13.446-0.032c-1.308-0.002-2.367-1.065-2.363-2.374l0.03-13.447
					c0.003-1.31,1.066-2.367,2.375-2.363l13.447,0.031c1.309,0.002,2.365,1.066,2.363,2.375l-0.031,13.444
					C475.867,358.427,474.803,359.483,473.496,359.481z"/>
				<path fill="#292972" d="M497.207,359.536l-13.447-0.032c-1.307-0.002-2.366-1.064-2.363-2.374l0.031-13.446
					c0.003-1.309,1.066-2.367,2.375-2.363l13.448,0.031c1.307,0.003,2.364,1.065,2.362,2.375l-0.031,13.446
					C499.578,358.479,498.514,359.54,497.207,359.536z"/>
				<path fill="#292972" d="M520.917,359.591l-13.446-0.031c-1.31-0.002-2.367-1.065-2.364-2.375l0.031-13.447
					c0.003-1.307,1.066-2.366,2.375-2.362l13.447,0.031c1.308,0.002,2.366,1.066,2.362,2.374l-0.031,13.446
					C523.289,358.536,522.225,359.593,520.917,359.591z"/>
				<path fill="#292972" d="M544.628,359.646l-13.447-0.032c-1.309-0.002-2.366-1.065-2.363-2.374l0.032-13.448
					c0.003-1.308,1.065-2.368,2.373-2.363l13.446,0.031c1.31,0.002,2.366,1.067,2.364,2.375l-0.031,13.446
					C547,358.589,545.936,359.65,544.628,359.646z"/>
				<path fill="#292972" d="M573.771,359.701l-18.879-0.032c-1.309-0.004-2.366-1.065-2.363-2.374l0.03-13.447
					c0.005-1.309,1.067-2.368,2.375-2.364l18.878,0.031c1.309,0.003,2.366,1.066,2.364,2.375l-0.032,13.445
					C576.141,358.645,575.078,359.703,573.771,359.701z"/>
				<path fill="#292972" d="M603.034,359.779l-19-0.055c-1.308-0.003-2.367-1.065-2.364-2.375l0.031-13.447
					c0.003-1.309,1.066-2.365,2.375-2.362l18.999,0.055c1.31,0.003,2.366,1.065,2.363,2.375l-0.03,13.448
					C605.404,358.725,604.34,359.783,603.034,359.779z"/>
				<path fill="#292972" d="M295.313,382.334l-25.004-0.085c-1.308-0.004-2.365-1.067-2.362-2.374l0.03-13.448
					c0.004-1.308,1.066-2.367,2.375-2.363l25.004,0.085c1.309,0.004,2.366,1.065,2.364,2.374l-0.031,13.448
					C297.687,381.279,296.622,382.338,295.313,382.334z"/>
				<path fill="#292972" d="M331.178,382.391l-25.003-0.033c-1.307-0.003-2.366-1.065-2.363-2.372l0.031-13.448
					c0.003-1.309,1.067-2.367,2.375-2.365l25.003,0.033c1.308,0.003,2.365,1.065,2.362,2.372l-0.031,13.448
					C333.549,381.332,332.487,382.393,331.178,382.391z"/>
				<path fill="#292972" d="M354.889,382.443l-13.446-0.029c-1.31-0.004-2.368-1.069-2.365-2.376l0.031-13.446
					c0.003-1.309,1.066-2.367,2.374-2.365l13.448,0.032c1.308,0.002,2.365,1.065,2.362,2.373l-0.031,13.448
					C357.26,381.389,356.198,382.448,354.889,382.443z"/>
				<path fill="#292972" d="M378.6,382.499l-13.446-0.032c-1.31-0.002-2.367-1.065-2.364-2.374l0.031-13.448
					c0.003-1.306,1.066-2.365,2.374-2.363l13.448,0.032c1.307,0.004,2.366,1.067,2.362,2.374l-0.031,13.448
					C380.971,381.441,379.907,382.503,378.6,382.499z"/>
				<path fill="#292972" d="M402.311,382.554l-13.447-0.029c-1.31-0.005-2.368-1.07-2.364-2.376l0.029-13.446
					c0.004-1.309,1.068-2.367,2.375-2.365l13.448,0.031c1.307,0.002,2.365,1.065,2.363,2.374l-0.032,13.448
					C404.682,381.499,403.619,382.556,402.311,382.554z"/>
				<path fill="#292972" d="M426.022,382.608l-13.447-0.031c-1.31-0.003-2.369-1.067-2.364-2.374l0.03-13.448
					c0.004-1.307,1.067-2.365,2.375-2.363l13.448,0.031c1.307,0.005,2.365,1.068,2.363,2.374l-0.032,13.446
					C428.393,381.552,427.329,382.612,426.022,382.608z"/>
				<path fill="#292972" d="M449.732,382.663l-13.447-0.031c-1.309-0.004-2.367-1.067-2.363-2.374l0.03-13.446
					c0.003-1.308,1.067-2.369,2.374-2.365l13.448,0.032c1.307,0.002,2.366,1.065,2.364,2.374l-0.032,13.447
					C452.104,381.606,451.041,382.666,449.732,382.663z"/>
				<path fill="#292972" d="M473.443,382.719l-13.448-0.032c-1.307-0.002-2.366-1.067-2.362-2.374l0.03-13.447
					c0.004-1.309,1.066-2.366,2.376-2.363l13.445,0.031c1.308,0.002,2.367,1.067,2.365,2.374l-0.032,13.446
					C475.815,381.661,474.751,382.721,473.443,382.719z"/>
				<path fill="#292972" d="M497.153,382.773l-13.447-0.031c-1.309-0.005-2.366-1.068-2.363-2.374l0.031-13.448
					c0.003-1.307,1.066-2.368,2.376-2.363l13.445,0.031c1.309,0.002,2.367,1.065,2.364,2.372l-0.031,13.448
					C499.526,381.717,498.462,382.775,497.153,382.773z"/>
				<path fill="#292972" d="M520.864,382.828l-13.446-0.031c-1.309-0.005-2.367-1.067-2.364-2.374l0.03-13.448
					c0.004-1.309,1.066-2.367,2.374-2.363l13.448,0.032c1.309,0.002,2.367,1.067,2.363,2.373l-0.03,13.446
					C523.234,381.771,522.173,382.83,520.864,382.828z"/>
				<path fill="#292972" d="M544.575,382.881l-13.446-0.031c-1.309-0.002-2.367-1.065-2.364-2.372l0.031-13.448
					c0.004-1.309,1.065-2.367,2.373-2.365l13.448,0.032c1.309,0.004,2.367,1.067,2.363,2.373l-0.031,13.448
					C546.945,381.826,545.884,382.886,544.575,382.881z"/>
				<path fill="#292972" d="M567.769,382.881l-13.447-0.031c-1.309-0.002-2.367-1.065-2.363-2.372l0.031-13.448
					c0.003-1.309,1.064-2.367,2.374-2.365l13.446,0.032c1.308,0.004,2.367,1.067,2.364,2.373l-0.031,13.448
					C570.14,381.826,569.076,382.886,567.769,382.881z"/>
				<path fill="#292972" d="M602.98,383.017l-24.608-0.11c-1.309-0.004-2.366-1.067-2.363-2.373l0.03-13.448
					c0.003-1.309,1.066-2.368,2.374-2.363l24.609,0.109c1.309,0.005,2.365,1.067,2.362,2.376l-0.031,13.446
					C605.35,381.962,604.287,383.019,602.98,383.017z"/>
				<path fill="#292972" d="M307.413,405.571l-37.157-0.087c-1.308-0.002-2.365-1.065-2.362-2.374l0.031-13.446
					c0.002-1.308,1.064-2.367,2.374-2.363l37.157,0.085c1.31,0.004,2.367,1.065,2.363,2.374l-0.03,13.446
					C309.786,404.517,308.722,405.573,307.413,405.571z"/>
				<path fill="#292972" d="M331.124,405.626l-13.447-0.031c-1.308-0.003-2.365-1.065-2.362-2.376l0.031-13.444
					c0.003-1.309,1.064-2.37,2.374-2.365l13.447,0.031c1.308,0.002,2.365,1.065,2.362,2.374l-0.029,13.448
					C333.495,404.569,332.433,405.628,331.124,405.626z"/>
				<path fill="#292972" d="M354.834,405.679l-13.446-0.029c-1.31-0.002-2.367-1.067-2.363-2.376l0.031-13.444
					c0.002-1.311,1.065-2.367,2.374-2.365l13.447,0.032c1.308,0.002,2.365,1.065,2.362,2.373l-0.031,13.446
					C357.206,404.626,356.144,405.683,354.834,405.679z"/>
				<path fill="#292972" d="M378.545,405.733l-13.446-0.029c-1.31-0.002-2.367-1.065-2.363-2.376l0.029-13.446
					c0.005-1.306,1.067-2.367,2.375-2.363l13.447,0.032c1.308,0.002,2.365,1.065,2.362,2.374l-0.031,13.445
					C380.917,404.679,379.854,405.74,378.545,405.733z"/>
				<path fill="#292972" d="M402.257,405.789l-13.447-0.03c-1.309-0.004-2.367-1.067-2.363-2.376l0.03-13.443
					c0.004-1.311,1.067-2.37,2.376-2.365l13.446,0.031c1.308,0.002,2.365,1.065,2.363,2.374l-0.033,13.446
					C404.627,404.734,403.566,405.793,402.257,405.789z"/>
				<path fill="#292972" d="M425.967,405.844l-13.446-0.029c-1.31-0.002-2.367-1.067-2.365-2.376l0.032-13.446
					c0.003-1.309,1.066-2.367,2.374-2.365l13.448,0.031c1.309,0.005,2.365,1.065,2.363,2.376l-0.032,13.446
					C428.339,404.789,427.275,405.848,425.967,405.844z"/>
				<path fill="#292972" d="M449.678,405.898l-13.447-0.029c-1.31-0.004-2.366-1.067-2.363-2.376l0.031-13.446
					c0.003-1.309,1.066-2.367,2.375-2.363l13.445,0.032c1.31,0.002,2.367,1.065,2.364,2.371l-0.031,13.448
					C452.05,404.844,450.987,405.9,449.678,405.898z"/>
				<path fill="#292972" d="M473.389,405.953l-13.448-0.029c-1.308-0.002-2.365-1.067-2.362-2.376l0.031-13.446
					c0.003-1.308,1.066-2.367,2.375-2.365l13.445,0.032c1.308,0.004,2.366,1.065,2.364,2.376l-0.031,13.446
					C475.761,404.898,474.698,405.958,473.389,405.953z"/>
				<path fill="#292972" d="M497.1,406.009l-13.448-0.032c-1.309-0.002-2.366-1.065-2.362-2.373l0.03-13.446
					c0.004-1.309,1.066-2.368,2.375-2.365l13.446,0.033c1.309,0.002,2.366,1.065,2.364,2.372l-0.031,13.448
					C499.472,404.954,498.409,406.013,497.1,406.009z"/>
				<path fill="#292972" d="M520.811,406.063l-13.448-0.029c-1.308-0.005-2.366-1.067-2.362-2.376l0.029-13.446
					c0.005-1.309,1.067-2.367,2.376-2.365l13.446,0.031c1.309,0.003,2.367,1.065,2.364,2.376l-0.031,13.446
					C523.182,405.009,522.12,406.067,520.811,406.063z"/>
				<path fill="#292972" d="M544.521,406.118l-13.447-0.031c-1.308-0.002-2.367-1.065-2.363-2.374l0.031-13.448
					c0.002-1.307,1.065-2.365,2.375-2.363l13.446,0.032c1.309,0.004,2.367,1.065,2.364,2.373l-0.031,13.448
					C546.893,405.063,545.83,406.123,544.521,406.118z"/>
				<path fill="#292972" d="M602.924,406.254l-48.14-0.11c-1.308-0.004-2.367-1.067-2.363-2.378l0.03-13.443
					c0.003-1.309,1.066-2.368,2.375-2.366l48.142,0.112c1.308,0.002,2.367,1.067,2.361,2.374l-0.028,13.448
					C605.296,405.199,604.234,406.256,602.924,406.254z"/>
			</g>
		</g>
	</g>
	<g>
		<path fill="#D4D5D3" d="M334.754,273.508c0,1.581-1.283,2.865-2.865,2.865c-1.581,0-2.864-1.284-2.864-2.865
			c0-1.583,1.283-2.864,2.864-2.864C333.471,270.645,334.754,271.926,334.754,273.508L334.754,273.508z"/>
		<path fill="#FDC032" d="M352.187,273.508c0,2.392-1.939,4.331-4.332,4.331c-2.394,0-4.333-1.939-4.333-4.331
			c0-2.394,1.94-4.333,4.333-4.333C350.247,269.175,352.187,271.115,352.187,273.508L352.187,273.508z"/>
		<path fill="#D4D5D3" d="M366.683,273.508c0,1.581-1.281,2.865-2.865,2.865c-1.582,0-2.862-1.284-2.862-2.865
			c0-1.583,1.28-2.864,2.862-2.864C365.402,270.645,366.683,271.926,366.683,273.508L366.683,273.508z"/>
		<polygon fill="#5A56B7" points="261.903,257.563 366.683,257.563 366.683,201.919 258.996,201.919 261.903,257.563 		"/>
		<path fill="#FDC032" d="M351.939,225.183c0,5.05-4.092,9.144-9.143,9.144c-5.051,0-9.146-4.093-9.146-9.144
			c0-5.05,4.094-9.143,9.146-9.143C347.847,216.04,351.939,220.133,351.939,225.183L351.939,225.183z"/>
		<path fill="#FDC032" d="M343.483,212.567c0,1.149-0.308,2.081-0.687,2.081c-0.38,0-0.688-0.932-0.688-2.081
			c0-1.146,0.308-2.078,0.688-2.078C343.175,210.489,343.483,211.42,343.483,212.567L343.483,212.567z"/>
		<path fill="#FDC032" d="M337.083,213.914c0.575,0.995,0.773,1.955,0.445,2.146c-0.329,0.188-1.061-0.463-1.637-1.457
			c-0.572-0.996-0.771-1.956-0.443-2.146C335.777,212.268,336.509,212.92,337.083,213.914L337.083,213.914z"/>
		<path fill="#FDC032" d="M332.215,218.282c0.993,0.573,1.646,1.305,1.457,1.634c-0.191,0.329-1.151,0.13-2.146-0.445
			c-0.994-0.574-1.646-1.307-1.456-1.634C330.26,217.508,331.22,217.706,332.215,218.282L332.215,218.282z"/>
		<path fill="#FDC032" d="M330.179,224.496c1.147,0,2.08,0.308,2.08,0.687c0,0.38-0.933,0.688-2.08,0.688
			c-1.148,0-2.078-0.308-2.078-0.688C328.101,224.804,329.031,224.496,330.179,224.496L330.179,224.496z"/>
		<path fill="#FDC032" d="M331.526,230.896c0.995-0.573,1.955-0.773,2.146-0.444c0.189,0.33-0.463,1.061-1.457,1.635
			c-0.995,0.574-1.956,0.774-2.145,0.445C329.879,232.202,330.532,231.47,331.526,230.896L331.526,230.896z"/>
		<path fill="#FDC032" d="M335.891,235.765c0.576-0.993,1.308-1.646,1.637-1.456c0.328,0.189,0.13,1.148-0.445,2.144
			c-0.574,0.993-1.306,1.645-1.635,1.456C335.12,237.719,335.318,236.76,335.891,235.765L335.891,235.765z"/>
		<path fill="#FDC032" d="M342.108,237.799c0-1.149,0.308-2.08,0.688-2.08c0.378,0,0.687,0.931,0.687,2.08
			c0,1.148-0.308,2.079-0.687,2.079C342.416,239.878,342.108,238.947,342.108,237.799L342.108,237.799z"/>
		<path fill="#FDC032" d="M348.507,236.453c-0.573-0.996-0.773-1.955-0.441-2.144c0.328-0.191,1.059,0.462,1.634,1.456
			c0.574,0.995,0.772,1.954,0.441,2.144C349.813,238.098,349.081,237.446,348.507,236.453L348.507,236.453z"/>
		<path fill="#FDC032" d="M353.377,232.086c-0.994-0.575-1.646-1.305-1.457-1.635c0.188-0.329,1.15-0.129,2.142,0.444
			c0.997,0.574,1.648,1.306,1.458,1.636C355.332,232.86,354.372,232.661,353.377,232.086L353.377,232.086z"/>
		<path fill="#FDC032" d="M355.413,225.871c-1.149,0-2.082-0.308-2.082-0.688c0-0.379,0.933-0.687,2.082-0.687
			c1.146,0,2.078,0.308,2.078,0.687C357.491,225.563,356.559,225.871,355.413,225.871L355.413,225.871z"/>
		<path fill="#FDC032" d="M354.063,219.471c-0.992,0.575-1.954,0.774-2.142,0.445c-0.189-0.329,0.463-1.062,1.457-1.634
			c0.994-0.576,1.954-0.774,2.144-0.445C355.711,218.164,355.06,218.897,354.063,219.471L354.063,219.471z"/>
		<path fill="#FDC032" d="M349.699,214.603c-0.575,0.993-1.306,1.645-1.634,1.457c-0.332-0.191-0.131-1.151,0.441-2.146
			c0.574-0.993,1.306-1.646,1.634-1.457C350.472,212.647,350.273,213.607,349.699,214.603L349.699,214.603z"/>
		<path fill="#FFFFFF" d="M354.72,243.496c0,2.899-2.244,5.272-5.09,5.483v0.017h-31.147c-3.572,0-6.464-2.894-6.464-6.464
			c0-3.367,2.573-6.134,5.86-6.437c0.186-5.851,4.986-10.539,10.882-10.539c4.694,0,8.695,2.97,10.225,7.133
			c0.87-0.439,1.85-0.684,2.888-0.684c3.438,0,6.249,2.68,6.453,6.063c0.291-0.048,0.589-0.072,0.895-0.072
			C352.257,237.997,354.72,240.459,354.72,243.496L354.72,243.496z"/>
		<g>
			<path fill="#FFFFFF" d="M274.189,211.358v11.231c0,0.591-0.495,1.048-1.066,1.048c-0.589,0-1.046-0.457-1.046-1.048v-9.364
				l-0.762,0.438c-0.171,0.115-0.362,0.15-0.534,0.15c-0.361,0-0.704-0.188-0.894-0.532c-0.324-0.473-0.152-1.142,0.343-1.428
				l2.342-1.389l0.075-0.038l0.095-0.058l0.115-0.019l0.076-0.019l0.133-0.019h0.209l0.077,0.019l0.114,0.038l0.077,0.02
				l0.114,0.058l0.077,0.056l0.076,0.057l0.077,0.075l0.056,0.078l0.075,0.076l0.02,0.038l0.022,0.058l0.037,0.095l0.037,0.096
				l0.02,0.096l0.038,0.133V211.358L274.189,211.358z"/>
			<path fill="#FFFFFF" d="M283.743,219.03c0-1.371-1.124-2.512-2.513-2.512s-2.493,1.141-2.493,2.512
				c0,1.389,1.104,2.493,2.493,2.493S283.743,220.419,283.743,219.03L283.743,219.03z M285.854,219.03
				c0,2.552-2.076,4.606-4.625,4.606c-2.399,0-4.36-1.808-4.588-4.13l-0.02-0.039c-0.017-0.363-0.038-0.723-0.038-1.084
				c0-1.276,0.191-2.646,0.667-3.903c0.476-1.256,1.257-2.455,2.456-3.255c0.798-0.533,1.77-0.857,2.854-0.895
				c0.591-0.019,1.066,0.419,1.106,1.008c0.018,0.572-0.439,1.048-1.031,1.105c-0.722,0.02-1.293,0.229-1.789,0.533
				c-0.475,0.324-0.874,0.762-1.198,1.333c-0.095,0.155-0.171,0.323-0.247,0.496c0.551-0.248,1.18-0.382,1.827-0.382
				C283.779,214.423,285.854,216.478,285.854,219.03L285.854,219.03z"/>
			<path fill="#FFFFFF" d="M289.202,215.546c0,1.257,0.817,2.171,1.77,2.171c1.007,0,1.751-0.875,1.751-2.189
				c0-0.952-0.513-2.19-1.77-2.19C289.735,213.338,289.202,214.517,289.202,215.546L289.202,215.546z M293.997,215.49
				c-0.018,2.189-1.581,3.177-3.044,3.177c-1.695,0-3.027-1.216-3.027-3.083c0-1.979,1.427-3.198,3.063-3.198
				C292.836,212.386,293.997,213.701,293.997,215.49L293.997,215.49z"/>
			<path fill="#FFFFFF" d="M273.7,239.463c0.928,0,1.779,0.322,2.435,0.829c0.119,0.097,0.142,0.281,0.044,0.376
				c-0.086,0.131-0.26,0.14-0.367,0.054c-0.581-0.453-1.315-0.733-2.113-0.733c-1.886,0-3.393,1.477-3.393,3.319
				c0,1.799,1.507,3.276,3.393,3.276c0.797,0,1.532-0.26,2.092-0.734c0.128-0.086,0.302-0.063,0.377,0.066
				c0.108,0.097,0.085,0.291-0.034,0.377c-0.656,0.506-1.507,0.817-2.435,0.817c-2.166,0-3.92-1.701-3.92-3.802
				C269.78,241.165,271.534,239.475,273.7,239.463L273.7,239.463z"/>
			<path fill="#FFFFFF" d="M278.029,239.83c0-0.14,0.119-0.259,0.258-0.259c0.151,0,0.27,0.119,0.27,0.259v7.024
				c0,0.142-0.119,0.258-0.27,0.258c-0.14,0-0.258-0.116-0.258-0.258V239.83L278.029,239.83z"/>
			<path fill="#FFFFFF" d="M282.887,246.597c1.076,0,1.981-0.948,1.981-2.124c0-1.174-0.905-2.132-1.981-2.132
				c-1.077,0-1.984,0.958-1.984,2.132C280.903,245.648,281.81,246.597,282.887,246.597L282.887,246.597z M282.887,241.834
				c1.389,0,2.5,1.207,2.5,2.639c0,1.434-1.11,2.639-2.5,2.639c-1.378,0-2.501-1.206-2.501-2.639
				C280.386,243.041,281.509,241.834,282.887,241.834L282.887,241.834z"/>
			<path fill="#FFFFFF" d="M287.086,242.081c0-0.151,0.119-0.258,0.258-0.258c0.139,0,0.259,0.107,0.259,0.258v2.877
				c0,0.904,0.721,1.627,1.616,1.638c0.905-0.011,1.637-0.734,1.637-1.638v-2.877c0-0.151,0.129-0.258,0.26-0.258
				c0.15,0,0.27,0.107,0.27,0.258v2.877c0,1.185-0.961,2.153-2.167,2.153c-1.185,0-2.133-0.968-2.133-2.153V242.081L287.086,242.081
				z"/>
			<path fill="#FFFFFF" d="M298.017,244.57v-0.172c-0.04-1.131-0.937-2.037-2.024-2.037c-1.111,0-2.024,0.948-2.024,2.123
				c0,1.165,0.913,2.102,2.024,2.102C297.081,246.586,297.977,245.691,298.017,244.57L298.017,244.57z M298.017,246.09
				c-0.462,0.624-1.194,1.022-2.024,1.022c-1.423,0-2.552-1.185-2.552-2.628c0-1.467,1.129-2.65,2.552-2.65
				c0.831,0,1.562,0.409,2.024,1.035v-3.039c0-0.14,0.12-0.259,0.271-0.259c0.139,0,0.259,0.119,0.259,0.259v7.024
				c0,0.142-0.12,0.258-0.259,0.258c-0.151,0-0.271-0.116-0.271-0.258V246.09L298.017,246.09z"/>
			<path fill="#FFFFFF" d="M300.461,242.081c0-0.14,0.118-0.247,0.248-0.247c0.151,0,0.269,0.107,0.269,0.247v2.866
				c0,0.905,0.722,1.627,1.616,1.627c0.906,0,1.627-0.722,1.638-1.627v-2.866l0.043-0.128l0.01-0.034l0.021-0.011l0.099-0.063h0.021
				l0.032-0.011h0.065l0.129,0.054l0.063,0.086l0.033,0.107v4.611c0,1.379-1.119,2.479-2.509,2.479
				c-0.389,0-0.754-0.097-1.089-0.247c-0.118-0.077-0.172-0.228-0.109-0.345c0.065-0.128,0.204-0.162,0.335-0.128
				c0.259,0.128,0.562,0.204,0.863,0.204c1.099,0,1.983-0.873,1.993-1.962v-0.344c-0.399,0.452-0.981,0.755-1.638,0.755
				c-1.176-0.012-2.133-0.973-2.133-2.157V242.081L300.461,242.081z"/>
			<path fill="#FFFFFF" d="M272.505,233.18c0.894-0.01,1.626-0.743,1.626-1.638c0-0.894-0.732-1.625-1.626-1.625h-1.864v3.263
				H272.505L272.505,233.18z M270.114,229.647c0-0.141,0.117-0.259,0.257-0.259h2.134c1.186,0,2.145,0.97,2.145,2.154
				c0,1.186-0.959,2.146-2.145,2.146l-1.864,0.021v2.963c0,0.141-0.12,0.257-0.271,0.257c-0.14,0-0.257-0.117-0.257-0.257V229.647
				L270.114,229.647z"/>
			<path fill="#FFFFFF" d="M280.184,234.29c0-1.187-0.894-2.132-1.981-2.132c-1.077,0-1.984,0.945-1.984,2.132
				s0.907,2.123,1.984,2.123C279.29,236.413,280.184,235.477,280.184,234.29L280.184,234.29z M280.702,231.91v4.762
				c0,0.141-0.119,0.257-0.258,0.257c-0.141,0-0.26-0.117-0.26-0.257v-0.787c-0.452,0.625-1.173,1.044-1.981,1.044
				c-1.391,0-2.501-1.195-2.501-2.639c0-1.443,1.11-2.638,2.501-2.638c0.808,0,1.529,0.408,1.981,1.033v-0.774
				c0-0.152,0.119-0.258,0.26-0.258C280.583,231.652,280.702,231.758,280.702,231.91L280.702,231.91z"/>
			<path fill="#FFFFFF" d="M282.94,231.92c0-0.151,0.116-0.26,0.268-0.26c0.129,0,0.248,0.108,0.248,0.26v1.164l0.077-0.129
				c0.398-0.626,1.097-1.294,2.111-1.294c0.138,0,0.258,0.108,0.258,0.26c0,0.14-0.12,0.258-0.258,0.258
				c-0.69,0-1.166,0.388-1.53,0.863c-0.357,0.475-0.562,1.013-0.637,1.229l-0.021,0.086v2.316c0,0.152-0.119,0.257-0.248,0.257
				c-0.151,0-0.268-0.105-0.268-0.257V231.92L282.94,231.92z"/>
			<path fill="#FFFFFF" d="M289.508,231.91c0,0.128-0.127,0.257-0.257,0.257h-0.678v3.847c0,0.258,0.258,0.388,0.387,0.388
				s0.269,0.141,0.269,0.27c0,0.128-0.14,0.257-0.269,0.257c-0.528,0-0.927-0.386-0.927-0.915v-3.847h-0.658
				c-0.258,0-0.258-0.129-0.258-0.257c0-0.129,0-0.258,0.258-0.258h0.658v-1.962c0-0.129,0.129-0.258,0.26-0.258
				c0.138,0,0.28,0.129,0.28,0.258v1.962h0.678C289.381,231.652,289.508,231.781,289.508,231.91L289.508,231.91z"/>
			<path fill="#FFFFFF" d="M292.05,229.647c0-0.141,0.119-0.259,0.258-0.259c0.151,0,0.268,0.119,0.268,0.259v7.025
				c0,0.141-0.117,0.257-0.268,0.257c-0.139,0-0.258-0.117-0.258-0.257V229.647L292.05,229.647z"/>
			<path fill="#FFFFFF" d="M294.915,231.899c0-0.141,0.119-0.247,0.248-0.247c0.149,0,0.268,0.106,0.268,0.247v2.867
				c0,0.903,0.723,1.626,1.617,1.626c0.907,0,1.627-0.723,1.637-1.626v-2.867l0.044-0.13l0.011-0.032l0.021-0.011l0.097-0.065h0.02
				l0.034-0.009h0.065l0.128,0.053l0.066,0.085l0.032,0.109v4.611c0,1.38-1.121,2.478-2.51,2.478c-0.389,0-0.753-0.096-1.088-0.246
				c-0.12-0.076-0.174-0.226-0.108-0.345c0.065-0.13,0.206-0.161,0.334-0.13c0.258,0.13,0.561,0.204,0.862,0.204
				c1.098,0,1.982-0.873,1.992-1.96v-0.345c-0.398,0.453-0.979,0.754-1.637,0.754c-1.174-0.011-2.133-0.97-2.133-2.153V231.899
				L294.915,231.899z"/>
		</g>
		<polygon fill="#FDC032" points="378.105,257.563 433.535,257.563 433.535,202.129 378.105,202.129 378.105,257.563 		"/>
		<polygon fill="#FFFFFF" points="386.833,241.888 424.806,241.888 424.806,217.805 386.833,217.805 386.833,241.888 		"/>
		<path fill="#FDC032" d="M424.806,217.805c-1.533,1.468-3.097,2.872-4.642,4.317c-1.559,1.411-3.119,2.824-4.688,4.221
			c-1.637,1.458-3.278,2.903-4.92,4.337l-0.148,0.14c-1.454,1.265-2.915,2.53-4.376,3.795l-0.216,0.178l-0.21-0.178
			c-1.46-1.265-2.915-2.53-4.369-3.804l-0.154-0.132c-1.646-1.434-3.289-2.878-4.926-4.346c-1.562-1.388-3.124-2.802-4.681-4.212
			c-1.546-1.445-3.108-2.849-4.642-4.317c1.63,1.259,3.233,2.579,4.846,3.866c1.609,1.311,3.217,2.622,4.812,3.957
			c1.781,1.476,3.56,2.973,5.334,4.485l0.009,0.009c1.331,1.126,2.658,2.258,3.987,3.392c1.324-1.134,2.653-2.274,3.98-3.392
			l0.012-0.015c1.774-1.506,3.547-3.003,5.331-4.486c1.598-1.328,3.201-2.646,4.809-3.95
			C421.572,220.383,423.176,219.063,424.806,217.805L424.806,217.805z"/>
		<path fill="#FDC032" d="M401.882,230.664l-0.047,0.039c-0.199,0.173-0.398,0.342-0.598,0.509
			c-0.951,0.805-1.926,1.574-2.919,2.319c-1.209,0.925-2.447,1.81-3.689,2.686c-1.25,0.861-2.505,1.718-3.787,2.538
			c-1.284,0.821-2.58,1.626-3.918,2.361c1.151-1.011,2.349-1.949,3.559-2.868c1.214-0.924,2.452-1.808,3.689-2.685
			c1.254-0.869,2.509-1.724,3.79-2.543c1.021-0.658,2.059-1.301,3.12-1.906c0.244-0.143,0.492-0.28,0.743-0.416L401.882,230.664
			L401.882,230.664z"/>
		<path fill="#FDC032" d="M424.716,241.115c-1.344-0.734-2.643-1.54-3.919-2.361c-1.284-0.82-2.538-1.677-3.792-2.538
			c-1.245-0.876-2.479-1.761-3.69-2.686c-0.985-0.746-1.961-1.51-2.907-2.315c-0.206-0.171-0.406-0.34-0.605-0.513l-0.046-0.039
			l0.058,0.027c0.251,0.143,0.495,0.279,0.742,0.422c1.061,0.605,2.092,1.248,3.117,1.906c1.284,0.819,2.539,1.674,3.788,2.543
			c1.244,0.877,2.479,1.761,3.688,2.685C422.366,239.167,423.562,240.104,424.716,241.115L424.716,241.115z"/>
		<g>
			<path fill="#FDC032" d="M358.474,131.33v4.547h1.121v-4.547H358.474L358.474,131.33z M358.474,140.424v4.546h1.121v-4.546
				H358.474L358.474,140.424z M358.474,149.519v4.546h1.121v-4.546H358.474L358.474,149.519z M358.474,158.613v4.546h1.121v-4.546
				H358.474L358.474,158.613z M358.474,167.708v4.547h1.121v-4.547H358.474L358.474,167.708z M358.474,176.801v4.548h1.121v-4.548
				H358.474L358.474,176.801z"/>
			<polygon fill="#335963" points="258.492,191.778 433.535,191.778 433.535,128.18 254.025,128.18 258.492,191.778 			"/>
			<polygon fill="#FDC032" points="267.712,183.72 315.193,183.72 315.193,136.24 267.712,136.24 267.712,183.72 			"/>
			<path fill="#FFFFFF" d="M276.455,172.683h29.993v-25.407h-29.993V172.683L276.455,172.683z M308.69,174.925h-34.477v-29.892
				h34.477V174.925L308.69,174.925z"/>
			<polygon fill="#FFFFFF" points="275.335,173.804 284.689,164.844 293.17,173.804 275.335,173.804 			"/>
			<polygon fill="#FFFFFF" points="287.348,173.804 298.454,159.768 307.57,173.804 287.348,173.804 			"/>
			<path fill="#FFFFFF" d="M287.567,158.935c0,1.832-1.484,3.314-3.315,3.314c-1.83,0-3.315-1.483-3.315-3.314
				c0-1.831,1.485-3.314,3.315-3.314C286.083,155.621,287.567,157.104,287.567,158.935L287.567,158.935z"/>
			<polygon fill="#D4D5D3" points="320.626,183.72 368.107,183.72 368.107,136.24 320.626,136.24 320.626,183.72 			"/>
			<path fill="#FFFFFF" d="M329.369,172.683h29.993v-25.407h-29.993V172.683L329.369,172.683z M361.603,174.925h-34.476v-29.892
				h34.476V174.925L361.603,174.925z"/>
			<polygon fill="#FFFFFF" points="328.248,173.804 337.604,164.844 346.082,173.804 328.248,173.804 			"/>
			<polygon fill="#FFFFFF" points="340.262,173.804 351.367,159.768 360.483,173.804 340.262,173.804 			"/>
			<path fill="#FFFFFF" d="M340.48,158.935c0,1.832-1.486,3.314-3.315,3.314c-1.829,0-3.315-1.483-3.315-3.314
				c0-1.831,1.486-3.314,3.315-3.314C338.994,155.621,340.48,157.104,340.48,158.935L340.48,158.935z"/>
			<polygon fill="#FDC032" points="373.731,183.72 421.214,183.72 421.214,136.24 373.731,136.24 373.731,183.72 			"/>
			<path fill="#FFFFFF" d="M382.477,172.683h29.993v-25.407h-29.993V172.683L382.477,172.683z M414.711,174.925h-34.477v-29.892
				h34.477V174.925L414.711,174.925z"/>
			<polygon fill="#FFFFFF" points="381.355,173.804 390.71,164.844 399.191,173.804 381.355,173.804 			"/>
			<polygon fill="#FFFFFF" points="393.367,173.804 404.475,159.768 413.591,173.804 393.367,173.804 			"/>
			<path fill="#FFFFFF" d="M393.588,158.935c0,1.832-1.485,3.314-3.315,3.314c-1.83,0-3.314-1.483-3.314-3.314
				c0-1.831,1.484-3.314,3.314-3.314C392.103,155.621,393.588,157.104,393.588,158.935L393.588,158.935z"/>
		</g>
	</g>
	<g>
		<polygon fill="#5A56B7" points="440.458,257.992 616.39,257.992 623.333,128.18 440.458,128.18 440.458,257.992 		"/>
		<path fill="#9B9E9F" d="M591.382,142.177c-0.351,0.218-0.737,0.385-1.157,0.485c-1.089,0.267-2.183,0.063-3.066-0.485
			c-0.862-0.535-1.528-1.397-1.79-2.462c-0.524-2.154,0.793-4.328,2.95-4.854c2.155-0.527,4.327,0.793,4.854,2.949
			C593.596,139.543,592.824,141.291,591.382,142.177L591.382,142.177z"/>
		<path fill="#FFFFFF" d="M590.493,138.304c0,0.674-0.547,1.221-1.222,1.221s-1.222-0.547-1.222-1.221s0.547-1.223,1.222-1.223
			S590.493,137.63,590.493,138.304L590.493,138.304z"/>
		<path fill="#FFFFFF" d="M591.382,141.673v0.504c-0.351,0.218-0.737,0.385-1.157,0.485c-1.089,0.267-2.183,0.063-3.066-0.485
			v-0.504c0-1.164,0.946-2.112,2.112-2.112S591.382,140.51,591.382,141.673L591.382,141.673z"/>
		<polygon fill="#9B9E9F" points="602.262,136.725 607.619,136.725 607.619,135.672 602.262,135.672 602.262,136.725 		"/>
		<polygon fill="#9B9E9F" points="602.262,138.856 607.619,138.856 607.619,137.802 602.262,137.802 602.262,138.856 		"/>
		<polygon fill="#9B9E9F" points="602.262,140.989 607.619,140.989 607.619,139.935 602.262,139.935 602.262,140.989 		"/>
		<polygon fill="#9B9E9F" points="449.229,138.676 555.458,138.676 555.458,136.363 449.229,136.363 449.229,138.676 		"/>
		<polygon fill="#BCBFC0" points="449.229,142.761 497.034,142.761 497.034,140.947 449.229,140.947 449.229,142.761 		"/>
		<g>
			<polygon fill="#66C88A" points="543.553,221.208 459.263,233.231 515.201,195.106 518.044,207.327 538.543,211.041 			"/>
			<polygon fill="#81E3A5" points="459.263,233.231 529.406,197.067 598.156,193.607 			"/>
			<polygon fill="#81E3A5" points="515.201,195.106 459.263,233.231 502.565,173.644 			"/>
		</g>
	</g>
	<g>
		<path fill="#5A56B7" d="M84.151,154.513h121.265c9.667,0,17.576,7.908,17.576,17.575v53.202c0,8.879-7.266,16.144-16.145,16.144
			h-3.114l5.842,24.676l-36.68-24.676H83.105c-9.659,0-17.561-7.903-17.561-17.562v-50.752
			C65.545,162.886,73.917,154.513,84.151,154.513z"/>
		<path fill="#A1C2FF" d="M80.897,193.129h126.442c1.723,0,3.132-1.41,3.132-3.132l0,0c0-1.722-1.41-3.131-3.132-3.131H80.897
			c-1.723,0-3.13,1.409-3.13,3.131l0,0C77.767,191.72,79.174,193.129,80.897,193.129z"/>
		<path fill="#A1C2FF" d="M80.897,207.146h126.442c1.723,0,3.132-1.41,3.132-3.132l0,0c0-1.722-1.41-3.132-3.132-3.132H80.897
			c-1.723,0-3.13,1.41-3.13,3.132l0,0C77.767,205.736,79.174,207.146,80.897,207.146z"/>
		<path fill="#A1C2FF" d="M80.897,221.161h126.442c1.723,0,3.132-1.41,3.132-3.132l0,0c0-1.722-1.41-3.131-3.132-3.131H80.897
			c-1.723,0-3.13,1.409-3.13,3.131l0,0C77.767,219.751,79.174,221.161,80.897,221.161z"/>
		<path fill="#A1C2FF" d="M149.786,171.359h53.678c2.049,0,3.727-1.677,3.727-3.728l0,0c0-2.05-1.678-3.727-3.727-3.727h-53.678
			c-2.051,0-3.728,1.677-3.728,3.727l0,0C146.058,169.683,147.735,171.359,149.786,171.359z"/>
		<path fill="#A1C2FF" d="M104.435,171.359h30.737c2.051,0,3.727-1.677,3.727-3.728l0,0c0-2.05-1.676-3.727-3.727-3.727h-30.737
			c-2.049,0-3.727,1.677-3.727,3.727l0,0C100.708,169.683,102.386,171.359,104.435,171.359z"/>
	</g>
	<g>
		<g>
			<linearGradient id="SVGID_24_" gradientUnits="userSpaceOnUse" x1="179.9771" y1="504.2656" x2="338.0151" y2="504.2656">
				<stop  offset="0" style="stop-color:#636FF0"/>
				<stop  offset="1" style="stop-color:#5352EE"/>
			</linearGradient>
			<path fill="url(#SVGID_24_)" d="M332.037,556.304H185.957c-3.3,0-5.979-2.676-5.979-5.979v-92.121
				c0-3.304,2.679-5.976,5.979-5.976h146.081c3.303,0,5.978,2.672,5.978,5.976v92.121
				C338.015,553.628,335.34,556.304,332.037,556.304z"/>
			<rect x="185.957" y="458.203" fill="#909CFF" width="146.081" height="92.121"/>
			<linearGradient id="SVGID_25_" gradientUnits="userSpaceOnUse" x1="279.5381" y1="490.5479" x2="251.1329" y2="567.3468">
				<stop  offset="0" style="stop-color:#636FF0"/>
				<stop  offset="1" style="stop-color:#5352EE"/>
			</linearGradient>
			<polygon fill="url(#SVGID_25_)" points="297.825,501.788 280.719,526.055 272.939,537.098 256.689,514.046 231.12,477.769 
				185.957,541.843 185.957,550.324 332.037,550.324 			"/>
			<path fill="#FFFFFF" d="M284.106,484.778c0,6.168-4.999,11.167-11.167,11.167c-6.171,0-11.17-4.999-11.17-11.167
				c0-6.17,4.999-11.172,11.17-11.172C279.107,473.606,284.106,478.608,284.106,484.778z"/>
		</g>
	</g>
	<g>
		<g>
			<path fill="#D1DBFB" d="M664.947,558.354H531.362c-3.058,0-5.555-2.499-5.555-5.558V471.44c0-3.057,2.497-5.558,5.555-5.558
				h133.585c3.059,0,5.559,2.501,5.559,5.558v81.356C670.505,555.855,668.005,558.354,664.947,558.354z"/>
			<path fill="#5A56B7" d="M664.947,556.703H531.362c-3.058,0-5.555-2.501-5.555-5.557v-81.361c0-3.055,2.497-5.556,5.555-5.556
				h133.585c3.059,0,5.559,2.501,5.559,5.556v81.361C670.505,554.202,668.005,556.703,664.947,556.703z"/>
		</g>
		<g>
			<circle fill="#D6E5FF" cx="536.167" cy="474.815" r="3.942"/>
			<path fill="#D6E5FF" d="M552.142,474.815c0,2.176-1.769,3.944-3.943,3.944c-2.177,0-3.943-1.769-3.943-3.944
				c0-2.179,1.767-3.942,3.943-3.942C550.374,470.873,552.142,472.637,552.142,474.815z"/>
			<circle fill="#D6E5FF" cx="560.433" cy="474.815" r="3.944"/>
		</g>
		<g>
			<path fill="#EA4F24" d="M578.442,519.266c0,12.091-9.795,21.887-21.884,21.887c-12.087,0-21.885-9.796-21.885-21.887
				c0-12.085,9.798-21.885,21.885-21.885C568.647,497.381,578.442,507.181,578.442,519.266z"/>
			<path fill="#FBFFFF" d="M566.726,517.997l-15.028-8.673c-1.279-0.742-2.881,0.186-2.881,1.663v17.354
				c0,1.479,1.602,2.401,2.881,1.662l15.028-8.68C568.005,520.589,568.005,518.739,566.726,517.997z"/>
		</g>
		<g>
			<rect x="588.776" y="504.266" fill="#D6E5FF" width="75.309" height="4.623"/>
			<rect x="588.776" y="517.353" fill="#D6E5FF" width="75.309" height="4.625"/>
			<rect x="588.776" y="530.439" fill="#D6E5FF" width="75.309" height="4.622"/>
		</g>
	</g>
	<g>
		<g>
			<circle fill="#5A56B7" cx="713.667" cy="198.604" r="61.126"/>
			<g>
				<g>
					<circle fill="#FFFFFF" cx="713.743" cy="198.7" r="55.156"/>
				</g>
				<g>
					<linearGradient id="SVGID_26_" gradientUnits="userSpaceOnUse" x1="744.3042" y1="169.0928" x2="775.8218" y2="169.0928">
						<stop  offset="0" style="stop-color:#FF8D02"/>
						<stop  offset="1" style="stop-color:#FFC757"/>
					</linearGradient>
					<circle fill="url(#SVGID_26_)" cx="760.063" cy="169.092" r="15.759"/>
					
						<polyline fill="none" stroke="#FFFFFF" stroke-width="2" stroke-linecap="round" stroke-linejoin="round" stroke-miterlimit="10" points="
						753.856,169.332 758.87,174.347 768.362,164.853 					"/>
				</g>
				<path fill="#A1C2FF" d="M729.744,183.693h-42.508c-1.025,0-1.855-0.832-1.855-1.856l0,0c0-1.024,0.83-1.855,1.855-1.855h42.508
					c1.026,0,1.854,0.831,1.854,1.855l0,0C731.598,182.861,730.77,183.693,729.744,183.693z"/>
				<path fill="#A1C2FF" d="M729.744,202.248h-42.508c-1.025,0-1.855-0.83-1.855-1.855l0,0c0-1.025,0.83-1.855,1.855-1.855h42.508
					c1.026,0,1.854,0.83,1.854,1.855l0,0C731.598,201.417,730.77,202.248,729.744,202.248z"/>
				<path fill="#A1C2FF" d="M729.744,220.803h-42.508c-1.025,0-1.855-0.832-1.855-1.856l0,0c0-1.024,0.83-1.855,1.855-1.855h42.508
					c1.026,0,1.854,0.831,1.854,1.855l0,0C731.598,219.972,730.77,220.803,729.744,220.803z"/>
				<path fill="#A1C2FF" d="M747.456,192.801h-60.22c-1.025,0-1.855-0.83-1.855-1.856l0,0c0-1.025,0.83-1.855,1.855-1.855h60.22
					c1.024,0,1.855,0.83,1.855,1.855l0,0C749.311,191.972,748.48,192.801,747.456,192.801z"/>
				<linearGradient id="SVGID_27_" gradientUnits="userSpaceOnUse" x1="735.9849" y1="215.394" x2="753.0786" y2="215.394">
					<stop  offset="0" style="stop-color:#FF8D02"/>
					<stop  offset="1" style="stop-color:#FFC757"/>
				</linearGradient>
				<path fill="url(#SVGID_27_)" d="M744.27,221.167l-4.407,2.317c-0.416,0.218-0.899-0.135-0.82-0.597l0.842-4.906
					c0.031-0.184-0.029-0.371-0.162-0.501l-3.566-3.475c-0.335-0.326-0.149-0.896,0.314-0.965l4.925-0.715
					c0.185-0.026,0.345-0.143,0.427-0.309l2.203-4.464c0.207-0.42,0.807-0.42,1.014,0l2.203,4.464
					c0.082,0.166,0.242,0.282,0.426,0.309l4.927,0.715c0.464,0.069,0.648,0.639,0.313,0.965l-3.563,3.475
					c-0.134,0.131-0.196,0.318-0.163,0.501l0.841,4.906c0.079,0.462-0.405,0.814-0.819,0.597l-4.407-2.317
					C744.631,221.082,744.432,221.082,744.27,221.167z"/>
			</g>
		</g>
	</g>
</g>
</svg>
