<?xml version="1.0" encoding="utf-8"?>
<!-- Generator: Adobe Illustrator 23.0.0, SVG Export Plug-In . SVG Version: 6.00 Build 0)  -->
<svg version="1.1" id="Layer_1" xmlns="http://www.w3.org/2000/svg" xmlns:xlink="http://www.w3.org/1999/xlink" x="0px" y="0px"
	 viewBox="0 0 1024 1024" style="enable-background:new 0 0 1024 1024;" xml:space="preserve">
<style type="text/css">
	.st0{fill:#FFFFFF;}
	.st1{opacity:0.7;}
	.st2{fill:#6CEFEF;}
	.st3{fill:#9BD6E0;}
	.st4{opacity:0.5;fill:#42FFFF;}
	.st5{fill:#42FFFF;}
	.st6{fill:#B3DCE0;}
	.st7{opacity:0.7;fill:#B3DCE0;}
	.st8{fill:#5793CE;}
	.st9{fill:#5698B2;}
	.st10{opacity:0.28;fill:#79C9DB;}
	.st11{opacity:0.73;fill:#79C9DB;}
	.st12{fill:#A4E9F4;}
	.st13{fill:#87D0D8;}
	.st14{fill:#79C9DB;}
	.st15{fill:#4E85B7;}
	.st16{opacity:0.5;}
	.st17{opacity:0.73;}
</style>
<rect y="954" width="1024" height="70"/>
<g>
	<path class="st0" d="M314.4,974.25h4.52c3.56,0,6.49,0.94,8.79,2.81c2.32,1.86,3.48,4.53,3.48,8.01c0,3.58-1.15,6.32-3.45,8.21
		c-2.3,1.9-5.27,2.84-8.9,2.84h-4.44V974.25z M317.12,993.63h0.95c1.42,0,2.75-0.15,4.01-0.43c1.25-0.28,2.35-0.76,3.29-1.42
		c0.94-0.66,1.69-1.54,2.25-2.61c0.56-1.08,0.84-2.41,0.84-3.99c0-1.56-0.28-2.89-0.83-4.02c-0.55-1.11-1.32-1.98-2.3-2.6
		c-0.99-0.63-2.07-1.1-3.27-1.39c-1.19-0.29-2.51-0.44-3.99-0.44h-0.95V993.63z"/>
	<path class="st0" d="M335.2,989.76c0.04,1.21,0.43,2.27,1.16,3.17c0.76,0.89,1.73,1.33,2.93,1.33c0.95,0,1.73-0.21,2.34-0.65
		c0.61-0.43,1.19-1.1,1.73-1.99l2.2,1.25c-0.64,1.16-1.51,2.06-2.63,2.72c-1.11,0.65-2.34,0.99-3.67,0.99
		c-2.02,0-3.65-0.68-4.87-2.03c-1.2-1.38-1.8-3.08-1.8-5.11c0-2.14,0.57-3.91,1.71-5.29c1.12-1.35,2.75-2.03,4.9-2.03
		c2.09,0,3.66,0.68,4.73,2.03c1.08,1.35,1.62,3.08,1.62,5.2v0.4H335.2z M342.95,987.79c-0.16-1.04-0.55-1.88-1.2-2.48
		c-0.65-0.6-1.49-0.92-2.54-0.92c-0.5,0-0.97,0.09-1.4,0.26c-0.44,0.16-0.82,0.4-1.17,0.7c-0.33,0.32-0.61,0.69-0.83,1.1
		c-0.22,0.41-0.37,0.87-0.45,1.35H342.95z"/>
	<path class="st0" d="M353.25,985.65c-0.39-0.8-0.97-1.19-1.74-1.19c-0.36,0-0.7,0.12-0.99,0.39c-0.29,0.26-0.43,0.59-0.43,0.95
		c0,0.35,0.11,0.64,0.33,0.88c0.22,0.24,0.52,0.47,0.91,0.69c0.26,0.11,0.45,0.21,0.58,0.27c0.13,0.07,0.36,0.17,0.67,0.31
		c0.15,0.08,0.29,0.15,0.41,0.18c0.11,0.04,0.2,0.07,0.25,0.12c0.97,0.44,1.73,0.96,2.29,1.53c0.56,0.59,0.84,1.36,0.84,2.33
		c0,1.28-0.46,2.35-1.39,3.22c-0.91,0.86-2,1.28-3.28,1.28c-0.52,0-1.02-0.08-1.5-0.22c-0.49-0.14-0.94-0.35-1.35-0.61
		c-0.42-0.27-0.78-0.58-1.11-0.95c-0.31-0.38-0.57-0.8-0.73-1.27l2.23-1.01c0.63,1.16,1.46,1.74,2.46,1.74
		c0.41,0,0.79-0.11,1.14-0.33c0.35-0.22,0.6-0.51,0.77-0.85c0.16-0.34,0.2-0.7,0.1-1.1c-0.1-0.4-0.4-0.78-0.9-1.12l-2.56-1.37
		c-0.45-0.23-0.83-0.45-1.16-0.69c-0.33-0.24-0.6-0.49-0.81-0.75c-0.21-0.27-0.37-0.55-0.48-0.87c-0.11-0.32-0.16-0.69-0.16-1.13
		c0-1.1,0.39-2.02,1.17-2.78c0.77-0.77,1.72-1.16,2.84-1.16c1.7,0,2.94,0.8,3.71,2.38L353.25,985.65z"/>
	<path class="st0" d="M362.62,976.33c0,0.49-0.17,0.9-0.53,1.26c-0.34,0.34-0.77,0.5-1.27,0.5c-0.51,0-0.93-0.16-1.28-0.5
		c-0.35-0.36-0.52-0.77-0.52-1.26c0-0.5,0.17-0.93,0.52-1.3c0.35-0.36,0.77-0.53,1.28-0.53c0.5,0,0.93,0.17,1.27,0.53
		C362.45,975.4,362.62,975.83,362.62,976.33z M362.12,996.12h-2.61v-13.58h2.61V996.12z"/>
	<path class="st0" d="M379.02,995.86c0,2.55-0.49,4.52-1.46,5.94c-0.96,1.4-2.69,2.09-5.16,2.09c-1.91,0-3.48-0.55-4.7-1.66
		c-1.2-1.1-1.82-2.6-1.86-4.49h2.61c0,1.21,0.38,2.15,1.12,2.83c0.74,0.67,1.73,1,2.95,1c1.49,0,2.51-0.44,3.06-1.31
		c0.55-0.87,0.82-2.1,0.82-3.68V994h-0.05c-0.55,0.82-1.21,1.45-2.02,1.9c-0.81,0.46-1.67,0.69-2.6,0.69c-2.01,0-3.6-0.71-4.76-2.12
		c-1.16-1.41-1.74-3.16-1.74-5.22c0-1.96,0.59-3.62,1.77-4.99c1.19-1.41,2.72-2.12,4.61-2.12c2,0,3.57,0.91,4.73,2.73h0.05v-2.33
		h2.62V995.86z M372.14,994.26c1.37,0,2.44-0.47,3.22-1.42c0.79-0.96,1.19-2.14,1.19-3.51c0-1.35-0.39-2.5-1.19-3.46
		c-0.77-0.94-1.85-1.41-3.22-1.41c-1.3,0-2.34,0.47-3.14,1.45c-0.77,0.95-1.16,2.08-1.16,3.42c0,1.37,0.39,2.54,1.16,3.48
		C369.8,993.78,370.84,994.26,372.14,994.26z"/>
	<path class="st0" d="M385.03,984.36h0.05c0.39-0.71,0.96-1.27,1.69-1.65c0.73-0.39,1.54-0.58,2.41-0.58c0.89,0,1.64,0.14,2.26,0.4
		c0.62,0.27,1.12,0.66,1.5,1.16c0.38,0.5,0.65,1.12,0.81,1.84c0.17,0.73,0.25,1.55,0.25,2.49v8.09h-2.6v-7.77
		c0-1.34-0.2-2.31-0.59-2.93c-0.39-0.64-1.19-0.95-2.41-0.95c-0.45,0-0.82,0.04-1.13,0.12c-0.31,0.09-0.58,0.22-0.81,0.37
		c-0.23,0.17-0.42,0.37-0.58,0.57c-0.15,0.21-0.3,0.45-0.43,0.71c-0.06,0.13-0.12,0.3-0.16,0.52c-0.05,0.21-0.09,0.43-0.13,0.66
		c-0.04,0.22-0.08,0.44-0.09,0.66c-0.02,0.23-0.02,0.4-0.02,0.54v1.28v6.23h-2.62v-13.58h2.62V984.36z"/>
	<path class="st0" d="M405.77,970.93h2.61v13.87h0.05c1.2-1.77,2.78-2.67,4.73-2.67c1.9,0,3.43,0.71,4.62,2.12
		c1.18,1.37,1.77,3.03,1.77,4.99c0,2.06-0.59,3.81-1.74,5.22c-1.17,1.41-2.75,2.12-4.76,2.12c-0.93,0-1.8-0.23-2.6-0.69
		c-0.8-0.45-1.47-1.09-2.02-1.9h-0.05v2.12h-2.61V970.93z M412.52,994.26c1.38,0,2.45-0.47,3.23-1.42c0.79-0.96,1.18-2.14,1.18-3.51
		c0-1.35-0.39-2.5-1.18-3.46c-0.78-0.94-1.85-1.41-3.23-1.41c-1.3,0-2.34,0.47-3.13,1.45c-0.78,0.95-1.16,2.08-1.16,3.42
		c0,1.37,0.38,2.54,1.16,3.48C410.18,993.78,411.23,994.26,412.52,994.26z"/>
	<path class="st0" d="M419.93,982.54h3.04l4.58,8.62l4.26-8.62h2.94l-11,21.36h-2.96l5.34-10.1L419.93,982.54z"/>
	<path class="st0" d="M447.93,990.63l-2.5,5.49h-2.93l10.45-22.81l10.44,22.81h-2.92l-2.49-5.49H447.93z M452.95,979.29l-3.9,8.85
		h7.78L452.95,979.29z"/>
	<path class="st0" d="M467.66,996.12h-2.61v-25.19h2.61V996.12z"/>
	<path class="st0" d="M474.1,996.12h-2.61v-25.19h2.61V996.12z"/>
	<path class="st0" d="M484.02,985.74v2.17h-6.36v-2.17H484.02z"/>
	<path class="st0" d="M494.17,973.57c-0.81-0.37-1.38-0.55-1.73-0.55c-0.57,0-0.97,0.17-1.22,0.53c-0.26,0.36-0.43,0.79-0.52,1.32
		c-0.06,0.38-0.09,0.69-0.11,0.91c0,0.23,0,0.53,0,0.92v5.82h3.58v2.44h-3.58v11.15h-2.62v-11.15h-1.18v-2.44h1.18v-6.61
		c0-3.56,1.47-5.35,4.39-5.35c0.64,0,1.24,0.13,1.81,0.35V973.57z"/>
	<path class="st0" d="M498.2,984.74h0.09c0.33-0.81,0.81-1.45,1.46-1.91c0.64-0.46,1.39-0.7,2.26-0.7c0.72,0,1.43,0.22,2.16,0.67
		l-1.19,2.38c-0.43-0.38-0.96-0.55-1.6-0.55c-1.35,0-2.23,0.54-2.67,1.62c-0.2,0.5-0.33,1-0.39,1.49c-0.06,0.48-0.11,1.06-0.11,1.7
		v6.67h-2.6v-13.58h2.6V984.74z"/>
	<path class="st0" d="M507.18,989.76c0.03,1.21,0.42,2.27,1.16,3.17c0.75,0.89,1.72,1.33,2.92,1.33c0.94,0,1.73-0.21,2.34-0.65
		c0.61-0.43,1.19-1.1,1.72-1.99l2.2,1.25c-0.63,1.16-1.51,2.06-2.62,2.72c-1.11,0.65-2.34,0.99-3.67,0.99
		c-2.03,0-3.65-0.68-4.87-2.03c-1.2-1.38-1.8-3.08-1.8-5.11c0-2.14,0.57-3.91,1.71-5.29c1.12-1.35,2.75-2.03,4.9-2.03
		c2.09,0,3.67,0.68,4.74,2.03c1.07,1.35,1.61,3.08,1.61,5.2v0.4H507.18z M514.93,987.79c-0.16-1.04-0.56-1.88-1.2-2.48
		c-0.65-0.6-1.49-0.92-2.54-0.92c-0.5,0-0.97,0.09-1.41,0.26c-0.43,0.16-0.82,0.4-1.15,0.7c-0.34,0.32-0.63,0.69-0.86,1.1
		c-0.22,0.41-0.37,0.87-0.44,1.35H514.93z"/>
	<path class="st0" d="M521.35,989.76c0.03,1.21,0.42,2.27,1.15,3.17c0.75,0.89,1.73,1.33,2.93,1.33c0.95,0,1.73-0.21,2.33-0.65
		c0.61-0.43,1.18-1.1,1.73-1.99l2.2,1.25c-0.63,1.16-1.49,2.06-2.62,2.72c-1.12,0.65-2.33,0.99-3.67,0.99
		c-2.04,0-3.66-0.68-4.88-2.03c-1.19-1.38-1.79-3.08-1.79-5.11c0-2.14,0.56-3.91,1.71-5.29c1.12-1.35,2.76-2.03,4.9-2.03
		c2.08,0,3.66,0.68,4.72,2.03c1.09,1.35,1.63,3.08,1.63,5.2v0.4H521.35z M529.09,987.79c-0.15-1.04-0.56-1.88-1.22-2.48
		c-0.64-0.6-1.48-0.92-2.53-0.92c-0.51,0-0.97,0.09-1.41,0.26c-0.43,0.16-0.81,0.4-1.15,0.7c-0.34,0.32-0.63,0.69-0.84,1.1
		c-0.23,0.41-0.38,0.87-0.46,1.35H529.09z"/>
	<path class="st0" d="M540.14,985.74v2.17h-6.36v-2.17H540.14z"/>
	<path class="st0" d="M553.69,994h-0.06c-0.54,0.82-1.21,1.45-2.01,1.9c-0.81,0.46-1.68,0.69-2.6,0.69c-2.01,0-3.6-0.71-4.75-2.12
		c-1.17-1.41-1.75-3.16-1.75-5.22c0-1.96,0.59-3.62,1.78-4.99c1.18-1.41,2.72-2.12,4.61-2.12c1.95,0,3.53,0.89,4.73,2.67h0.06
		v-13.87h2.6v25.19h-2.6V994z M549.42,994.26c1.37,0,2.45-0.47,3.22-1.42c0.79-0.96,1.2-2.14,1.2-3.51c0-1.35-0.4-2.5-1.2-3.46
		c-0.77-0.94-1.85-1.41-3.22-1.41c-1.3,0-2.34,0.47-3.13,1.45c-0.77,0.95-1.16,2.08-1.16,3.42c0,1.37,0.39,2.54,1.16,3.48
		C547.08,993.78,548.13,994.26,549.42,994.26z"/>
	<path class="st0" d="M560.57,984.22c1.41-1.39,3.14-2.09,5.17-2.09c2.03,0,3.74,0.7,5.12,2.09c1.42,1.38,2.12,3.12,2.12,5.14
		c0,2.03-0.7,3.74-2.12,5.15c-1.38,1.38-3.09,2.08-5.12,2.08c-2.04,0-3.76-0.7-5.17-2.08c-1.39-1.41-2.09-3.12-2.09-5.15
		C558.47,987.34,559.17,985.6,560.57,984.22z M561.08,989.36c0,1.25,0.47,2.36,1.38,3.32c0.89,0.95,1.99,1.4,3.28,1.4
		c1.27,0,2.37-0.46,3.27-1.4c0.91-0.96,1.36-2.07,1.36-3.32c0-1.28-0.45-2.4-1.36-3.34c-0.9-0.93-2-1.39-3.27-1.39
		c-1.29,0-2.4,0.46-3.28,1.39C561.55,986.96,561.08,988.08,561.08,989.36z"/>
	<path class="st0" d="M580.01,991.19l3.99-9.41l3.98,9.41l3.95-8.66h2.95l-6.9,14.05l-3.98-9.08l-3.99,9.08l-6.91-14.05h2.96
		L580.01,991.19z"/>
	<path class="st0" d="M598.81,984.36h0.06c0.38-0.71,0.94-1.27,1.68-1.65c0.74-0.39,1.54-0.58,2.41-0.58c0.89,0,1.65,0.14,2.27,0.4
		c0.62,0.27,1.11,0.66,1.49,1.16c0.38,0.5,0.65,1.12,0.8,1.84c0.17,0.73,0.25,1.55,0.25,2.49v8.09h-2.61v-7.77
		c0-1.34-0.18-2.31-0.58-2.93c-0.39-0.64-1.18-0.95-2.42-0.95c-0.44,0-0.81,0.04-1.13,0.12c-0.3,0.09-0.58,0.22-0.81,0.37
		c-0.23,0.17-0.42,0.37-0.58,0.57c-0.16,0.21-0.3,0.45-0.43,0.71c-0.06,0.13-0.12,0.3-0.16,0.52c-0.05,0.21-0.1,0.43-0.13,0.66
		c-0.04,0.22-0.06,0.44-0.1,0.66c-0.01,0.23-0.02,0.4-0.02,0.54v1.28v6.23h-2.61v-13.58h2.61V984.36z"/>
	<path class="st0" d="M614.1,996.12h-2.62v-25.19h2.62V996.12z"/>
	<path class="st0" d="M618.69,984.22c1.4-1.39,3.13-2.09,5.17-2.09c2.03,0,3.73,0.7,5.14,2.09c1.4,1.38,2.1,3.12,2.1,5.14
		c0,2.03-0.7,3.74-2.1,5.15c-1.41,1.38-3.11,2.08-5.14,2.08c-2.04,0-3.77-0.7-5.17-2.08c-1.4-1.41-2.09-3.12-2.09-5.15
		C616.59,987.34,617.28,985.6,618.69,984.22z M619.21,989.36c0,1.25,0.46,2.36,1.36,3.32c0.89,0.95,1.99,1.4,3.29,1.4
		c1.27,0,2.36-0.46,3.28-1.4c0.9-0.96,1.35-2.07,1.35-3.32c0-1.28-0.45-2.4-1.35-3.34c-0.92-0.93-2.01-1.39-3.28-1.39
		c-1.3,0-2.4,0.46-3.29,1.39C619.67,986.96,619.21,988.08,619.21,989.36z"/>
	<path class="st0" d="M646.23,996.12h-2.62V994h-0.06c-1.16,1.72-2.7,2.59-4.62,2.59c-1.99,0-3.58-0.71-4.76-2.12
		c-1.16-1.41-1.74-3.16-1.74-5.22c0-1.96,0.58-3.62,1.77-4.99c1.18-1.41,2.73-2.12,4.63-2.12c1.94,0,3.51,0.89,4.71,2.67h0.06v-2.26
		h2.62V996.12z M639.34,994.26c1.38,0,2.45-0.47,3.22-1.42c0.79-0.96,1.19-2.14,1.19-3.51c0-1.35-0.4-2.5-1.19-3.46
		c-0.78-0.94-1.84-1.41-3.22-1.41c-1.29,0-2.34,0.47-3.13,1.45c-0.78,0.95-1.17,2.08-1.17,3.42c0,1.37,0.39,2.54,1.17,3.48
		C637,993.78,638.05,994.26,639.34,994.26z"/>
	<path class="st0" d="M659.74,994h-0.05c-0.55,0.82-1.23,1.45-2.02,1.9c-0.8,0.46-1.67,0.69-2.6,0.69c-2.02,0-3.61-0.71-4.77-2.12
		c-1.16-1.41-1.74-3.16-1.74-5.22c0-1.96,0.6-3.62,1.77-4.99c1.18-1.41,2.72-2.12,4.62-2.12c1.95,0,3.52,0.89,4.73,2.67h0.05v-13.87
		h2.62v25.19h-2.62V994z M655.48,994.26c1.37,0,2.44-0.47,3.21-1.42c0.79-0.96,1.19-2.14,1.19-3.51c0-1.35-0.4-2.5-1.19-3.46
		c-0.78-0.94-1.84-1.41-3.21-1.41c-1.3,0-2.34,0.47-3.13,1.45c-0.77,0.95-1.16,2.08-1.16,3.42c0,1.37,0.39,2.54,1.16,3.48
		C653.13,993.78,654.18,994.26,655.48,994.26z"/>
	<path class="st0" d="M669.84,994.9c0,0.47-0.16,0.86-0.48,1.19c-0.34,0.33-0.74,0.5-1.21,0.5c-0.47,0-0.86-0.17-1.18-0.5
		c-0.34-0.33-0.5-0.72-0.5-1.19c0-0.44,0.16-0.84,0.5-1.18c0.32-0.33,0.71-0.5,1.18-0.5c0.46,0,0.86,0.17,1.21,0.5
		C669.68,994.06,669.84,994.45,669.84,994.9z"/>
	<path class="st0" d="M684.11,986.39c-1.08-1.22-2.38-1.83-3.88-1.83c-1.26,0-2.34,0.48-3.23,1.42c-0.88,0.96-1.29,2.09-1.29,3.34
		c0,1.42,0.42,2.57,1.29,3.45c0.91,0.92,2.04,1.37,3.39,1.37c1.39,0,2.64-0.62,3.72-1.8v3.33c-1.12,0.6-2.37,0.91-3.74,0.91
		c-2.02,0-3.74-0.7-5.17-2.07c-1.41-1.34-2.1-3.04-2.1-5.07c0-2.09,0.69-3.84,2.1-5.23c1.42-1.39,3.19-2.09,5.32-2.09
		c1.4,0,2.6,0.3,3.6,0.89V986.39z"/>
	<path class="st0" d="M687.8,984.22c1.41-1.39,3.14-2.09,5.16-2.09c2.03,0,3.75,0.7,5.13,2.09c1.42,1.38,2.12,3.12,2.12,5.14
		c0,2.03-0.7,3.74-2.12,5.15c-1.38,1.38-3.1,2.08-5.13,2.08c-2.03,0-3.75-0.7-5.16-2.08c-1.39-1.41-2.09-3.12-2.09-5.15
		C685.71,987.34,686.41,985.6,687.8,984.22z M688.33,989.36c0,1.25,0.45,2.36,1.37,3.32c0.87,0.95,1.98,1.4,3.27,1.4
		c1.27,0,2.38-0.46,3.28-1.4c0.91-0.96,1.36-2.07,1.36-3.32c0-1.28-0.45-2.4-1.36-3.34c-0.9-0.93-2-1.39-3.28-1.39
		c-1.29,0-2.4,0.46-3.27,1.39C688.78,986.96,688.33,988.08,688.33,989.36z"/>
	<path class="st0" d="M705.13,984.25h0.06c0.39-0.62,0.89-1.12,1.55-1.52c0.65-0.4,1.33-0.6,2.04-0.6c1.69,0,2.99,0.8,3.93,2.41
		c0.42-0.73,1.01-1.32,1.76-1.77c0.74-0.43,1.55-0.65,2.41-0.65c3.01,0,4.5,1.96,4.5,5.86v8.13h-2.61v-7.69
		c0-0.34-0.01-0.69-0.05-1.02c-0.02-0.35-0.08-0.68-0.15-0.99c-0.08-0.33-0.19-0.63-0.35-0.9c-0.16-0.26-0.38-0.51-0.64-0.72
		c-0.35-0.23-0.8-0.34-1.33-0.34c-0.55,0-1.01,0.11-1.39,0.34c-0.38,0.21-0.66,0.48-0.86,0.79c-0.21,0.32-0.37,0.73-0.47,1.21
		c-0.12,0.48-0.19,0.92-0.22,1.31c-0.03,0.38-0.04,0.83-0.04,1.34v6.67h-2.62v-7.2c0-0.46,0-0.84-0.02-1.15
		c-0.03-0.32-0.08-0.7-0.18-1.16c-0.09-0.51-0.21-0.87-0.37-1.11c-0.16-0.27-0.4-0.5-0.72-0.72c-0.34-0.21-0.73-0.31-1.19-0.31
		c-1.33,0-2.2,0.57-2.59,1.73c-0.17,0.56-0.29,1.05-0.35,1.55c-0.06,0.47-0.08,1.04-0.08,1.71v6.67h-2.62v-13.58h2.62V984.25z"/>
</g>
<g>
	<g class="st1">
		<polygon class="st2" points="628.05,64.33 676.08,36.85 676.08,26.39 628.05,53.88 		"/>
		<polygon class="st2" points="603.42,78.43 620.72,68.53 620.72,58.08 603.42,67.97 		"/>
		<polygon class="st2" points="584.33,89.35 596.09,82.63 596.09,72.17 584.33,78.9 		"/>
		<polygon class="st2" points="649.91,75.71 676.08,60.73 676.08,50.27 649.91,65.25 		"/>
		<polygon class="st2" points="610.5,98.26 642.58,79.91 642.58,69.45 610.5,87.81 		"/>
		<polygon class="st2" points="591.42,109.19 603.17,102.46 603.17,92 591.42,98.73 		"/>
		<polygon class="st2" points="573.25,119.58 585,112.86 585,102.4 573.25,109.13 		"/>
		<polygon class="st2" points="657.15,95.45 676.08,84.61 676.08,74.16 657.15,84.99 		"/>
		<polygon class="st2" points="643.34,103.35 649.81,99.65 649.81,89.19 643.34,92.9 		"/>
		<polygon class="st2" points="624.25,114.28 636,107.55 636,97.1 624.25,103.82 		"/>
		<polygon class="st3" points="606.19,148.5 676.08,108.5 676.08,98.04 606.19,138.04 		"/>
		<polygon class="st4" points="581.56,162.59 598.86,152.7 598.86,142.24 581.56,152.14 		"/>
		<polygon class="st4" points="657.15,143.22 676.08,132.38 676.08,121.93 657.15,132.76 		"/>
		<polygon class="st3" points="612.71,168.65 649.81,147.42 649.81,136.96 612.71,158.2 		"/>
		<polygon class="st4" points="593.62,179.58 605.37,172.85 605.37,162.39 593.62,169.12 		"/>
		<polygon class="st3" points="637.34,178.44 676.08,156.27 676.08,145.81 637.34,167.98 		"/>
		<polygon class="st3" points="601.99,198.67 630,182.64 630,172.18 601.99,188.22 		"/>
		<polygon class="st4" points="575.71,213.71 594.65,202.87 594.65,192.42 575.71,203.25 		"/>
		<polygon class="st3" points="663,187.64 676.08,180.15 676.08,169.7 663,177.18 		"/>
		<polygon class="st3" points="638.37,201.74 655.66,191.84 655.66,181.38 638.37,191.28 		"/>
		<polygon class="st3" points="603.17,221.88 631.03,205.94 631.03,195.48 603.17,211.43 		"/>
		<polygon class="st3" points="636,226.97 676.08,204.03 676.08,193.58 636,216.52 		"/>
		<polygon class="st2" points="591.11,252.67 628.66,231.17 628.66,220.72 591.11,242.21 		"/>
		<polygon class="st5" points="572.02,263.59 583.77,256.87 583.77,246.41 572.02,253.14 		"/>
		<polygon class="st4" points="553.7,274.08 565.45,267.35 565.45,256.9 553.7,263.62 		"/>
		<polygon class="st4" points="652.07,241.66 676.08,227.92 676.08,217.46 652.07,231.21 		"/>
		<polygon class="st5" points="551.63,108.07 518.33,127.13 518.33,116.67 551.63,97.61 		"/>
		<polygon class="st4" points="544.5,136.04 518.33,151.01 518.33,140.56 544.5,125.58 		"/>
		<polygon class="st2" points="537.27,164.06 518.33,174.9 518.33,164.44 537.27,153.6 		"/>
		<polygon class="st2" points="545.87,183.02 518.33,198.78 518.33,188.33 545.87,172.56 		"/>
		<polygon class="st2" points="537.27,211.83 518.33,222.67 518.33,212.21 537.27,201.37 		"/>
		<polygon class="st2" points="542.35,232.81 518.33,246.55 518.33,236.09 542.35,222.35 		"/>
		<polygon class="st2" points="531.42,262.95 518.33,270.43 518.33,259.98 531.42,252.49 		"/>
		<polygon class="st2" points="543.69,279.81 518.33,294.32 518.33,283.86 543.69,269.35 		"/>
		<polygon class="st2" points="542.35,304.46 518.33,318.2 518.33,307.75 542.35,294 		"/>
		<polygon class="st4" points="634.52,251.71 644.73,245.86 644.73,235.41 634.52,241.25 		"/>
		<polygon class="st4" points="604.19,269.06 627.18,255.91 627.18,245.45 604.19,258.61 		"/>
		<polygon class="st3" points="441.8,170.52 489.83,143.03 489.83,132.57 441.8,160.06 		"/>
		<polygon class="st3" points="417.17,184.61 434.47,174.72 434.47,164.26 417.17,174.16 		"/>
		<polygon class="st5" points="398.09,195.54 409.84,188.81 409.84,178.36 398.09,185.08 		"/>
		<polygon class="st3" points="463.66,181.89 489.83,166.91 489.83,156.46 463.66,171.43 		"/>
		<polygon class="st3" points="424.26,204.44 456.33,186.09 456.33,175.63 424.26,193.99 		"/>
		<polygon class="st5" points="405.17,215.37 416.92,208.64 416.92,198.19 405.17,204.91 		"/>
		<polygon class="st4" points="387,225.76 398.75,219.04 398.75,208.58 387,215.31 		"/>
		<polygon class="st3" points="470.9,201.63 489.83,190.8 489.83,180.34 470.9,191.18 		"/>
		<polygon class="st3" points="457.09,209.54 463.56,205.83 463.56,195.38 457.09,199.08 		"/>
		<polygon class="st3" points="438,220.46 449.75,213.74 449.75,203.28 438,210.01 		"/>
		<polygon class="st3" points="419.95,254.68 489.83,214.68 489.83,204.23 419.95,244.22 		"/>
		<polygon class="st4" points="395.31,268.78 412.61,258.88 412.61,248.42 395.31,258.32 		"/>
		<polygon class="st3" points="470.9,249.4 489.83,238.57 489.83,228.11 470.9,238.95 		"/>
		<polygon class="st4" points="426.46,274.83 463.56,253.6 463.56,243.15 426.46,264.38 		"/>
		<polygon class="st4" points="407.37,285.76 419.12,279.03 419.12,268.58 407.37,275.3 		"/>
		<polygon class="st5" points="451.09,284.62 489.83,262.45 489.83,251.99 451.09,274.17 		"/>
		<polygon class="st4" points="415.74,304.86 443.75,288.82 443.75,278.37 415.74,294.4 		"/>
		<polygon class="st2" points="389.47,319.89 408.4,309.06 408.4,298.6 389.47,309.44 		"/>
		<polygon class="st4" points="476.75,293.82 489.83,286.33 489.83,275.88 476.75,283.37 		"/>
		<polygon class="st4" points="452.12,307.92 469.41,298.02 469.41,287.57 452.12,297.46 		"/>
		<polygon class="st2" points="416.92,328.07 444.78,312.12 444.78,301.66 416.92,317.61 		"/>
		<polygon class="st4" points="449.75,333.16 489.83,310.22 489.83,299.76 449.75,322.7 		"/>
		<polygon class="st2" points="404.86,358.85 442.41,337.36 442.41,326.9 404.86,348.4 		"/>
		<polygon class="st4" points="385.77,369.78 397.52,363.05 397.52,352.59 385.77,359.32 		"/>
		<polygon class="st4" points="367.45,380.26 379.2,373.53 379.2,363.08 367.45,369.8 		"/>
		<polygon class="st4" points="465.82,347.85 489.83,334.1 489.83,323.65 465.82,337.39 		"/>
		<polygon class="st2" points="365.39,214.25 332.08,233.31 332.08,222.86 365.39,203.8 		"/>
		<polygon class="st4" points="358.25,242.22 332.08,257.2 332.08,246.74 358.25,231.76 		"/>
		<polygon class="st2" points="351.02,270.24 332.08,281.08 332.08,270.62 351.02,259.79 		"/>
		<polygon class="st2" points="359.62,289.2 332.08,304.96 332.08,294.51 359.62,278.75 		"/>
		<polygon class="st2" points="351.02,318.01 332.08,328.85 332.08,318.39 351.02,307.56 		"/>
		<polygon class="st2" points="356.1,338.99 332.08,352.73 332.08,342.28 356.1,328.53 		"/>
		<polygon class="st4" points="345.17,369.13 332.08,376.62 332.08,366.16 345.17,358.67 		"/>
		<polygon class="st3" points="357.44,385.99 332.08,400.5 332.08,390.05 357.44,375.54 		"/>
		<polygon class="st3" points="356.1,410.64 332.08,424.39 332.08,413.93 356.1,400.19 		"/>
		<polygon class="st5" points="448.27,357.89 458.48,352.05 458.48,341.59 448.27,347.43 		"/>
		<polygon class="st3" points="417.94,375.25 440.93,362.09 440.93,351.63 417.94,364.79 		"/>
		<polygon class="st4" points="628.05,279.43 676.08,251.94 676.08,241.49 628.05,268.97 		"/>
		<polygon class="st4" points="603.42,293.53 620.72,283.63 620.72,273.17 603.42,283.07 		"/>
		<polygon class="st4" points="584.33,304.45 596.09,297.73 596.09,287.27 584.33,294 		"/>
		<polygon class="st4" points="649.91,290.8 676.08,275.83 676.08,265.37 649.91,280.35 		"/>
		<polygon class="st4" points="610.5,313.36 642.58,295 642.58,284.55 610.5,302.9 		"/>
		<polygon class="st4" points="591.42,324.28 603.17,317.56 603.17,307.1 591.42,313.83 		"/>
		<polygon class="st4" points="573.25,334.68 585,327.95 585,317.5 573.25,324.22 		"/>
		<polygon class="st4" points="657.15,310.55 676.08,299.71 676.08,289.26 657.15,300.09 		"/>
		<polygon class="st4" points="643.34,318.45 649.81,314.75 649.81,304.29 643.34,308 		"/>
		<polygon class="st4" points="624.25,329.38 636,322.65 636,312.19 624.25,318.92 		"/>
		<polygon class="st4" points="606.19,363.59 676.08,323.6 676.08,313.14 606.19,353.14 		"/>
		<polygon class="st4" points="581.56,377.69 598.86,367.79 598.86,357.34 581.56,367.23 		"/>
		<polygon class="st4" points="657.15,358.32 676.08,347.48 676.08,337.02 657.15,347.86 		"/>
		<polygon class="st4" points="612.71,383.75 649.81,362.52 649.81,352.06 612.71,373.29 		"/>
		<polygon class="st4" points="593.62,394.67 605.37,387.95 605.37,377.49 593.62,384.22 		"/>
		<polygon class="st4" points="637.34,393.54 676.08,371.36 676.08,360.91 637.34,383.08 		"/>
		<polygon class="st4" points="601.99,413.77 630,397.74 630,387.28 601.99,403.31 		"/>
		<polygon class="st4" points="575.71,428.81 594.65,417.97 594.65,407.51 575.71,418.35 		"/>
		<polygon class="st4" points="663,402.74 676.08,395.25 676.08,384.79 663,392.28 		"/>
		<polygon class="st4" points="638.37,416.83 655.66,406.94 655.66,396.48 638.37,406.38 		"/>
		<polygon class="st4" points="603.17,436.98 631.03,421.03 631.03,410.58 603.17,426.52 		"/>
		<polygon class="st4" points="636,442.07 676.08,419.13 676.08,408.68 636,431.62 		"/>
		<polygon class="st4" points="591.11,467.76 628.66,446.27 628.66,435.82 591.11,457.31 		"/>
		<polygon class="st4" points="572.02,478.69 583.77,471.96 583.77,461.51 572.02,468.23 		"/>
		<polygon class="st3" points="553.7,489.17 565.45,482.45 565.45,471.99 553.7,478.72 		"/>
		<polygon class="st4" points="652.07,456.76 676.08,443.02 676.08,432.56 652.07,446.3 		"/>
		<polygon class="st2" points="551.63,323.17 518.33,342.23 518.33,331.77 551.63,312.71 		"/>
		<polygon class="st4" points="544.5,351.13 518.33,366.11 518.33,355.65 544.5,340.68 		"/>
		<polygon class="st3" points="537.27,379.16 518.33,389.99 518.33,379.54 537.27,368.7 		"/>
		<polygon class="st3" points="545.87,398.12 518.33,413.88 518.33,403.42 545.87,387.66 		"/>
		<polygon class="st3" points="537.27,426.93 518.33,437.76 518.33,427.31 537.27,416.47 		"/>
		<polygon class="st3" points="542.35,447.9 518.33,461.65 518.33,451.19 542.35,437.45 		"/>
		<polygon class="st3" points="531.42,478.04 518.33,485.53 518.33,475.08 531.42,467.59 		"/>
		<polygon class="st3" points="543.69,494.9 518.33,509.42 518.33,498.96 543.69,484.45 		"/>
		<polygon class="st3" points="542.35,519.56 518.33,533.3 518.33,522.84 542.35,509.1 		"/>
		<polygon class="st4" points="634.52,466.8 644.73,460.96 644.73,450.5 634.52,456.35 		"/>
		<polygon class="st4" points="604.19,484.16 627.18,471 627.18,460.55 604.19,473.7 		"/>
		<polygon class="st4" points="585.18,564.5 623.97,542.3 623.97,531.85 585.18,554.05 		"/>
		<polygon class="st3" points="558.61,579.71 573.89,570.96 573.89,560.51 558.61,569.25 		"/>
		<polygon class="st3" points="441.8,385.61 489.83,358.13 489.83,347.67 441.8,375.16 		"/>
		<polygon class="st3" points="417.17,399.71 434.47,389.81 434.47,379.36 417.17,389.25 		"/>
		<polygon class="st3" points="398.09,410.63 409.84,403.91 409.84,393.45 398.09,400.18 		"/>
		<polygon class="st3" points="463.66,396.99 489.83,382.01 489.83,371.55 463.66,386.53 		"/>
		<polygon class="st3" points="424.26,419.54 456.33,401.19 456.33,390.73 424.26,409.09 		"/>
		<polygon class="st3" points="405.17,430.47 416.92,423.74 416.92,413.29 405.17,420.01 		"/>
		<polygon class="st4" points="387,440.86 398.75,434.14 398.75,423.68 387,430.41 		"/>
		<polygon class="st3" points="470.9,416.73 489.83,405.89 489.83,395.44 470.9,406.28 		"/>
		<polygon class="st3" points="457.09,424.63 463.56,420.93 463.56,410.47 457.09,414.18 		"/>
		<polygon class="st3" points="438,435.56 449.75,428.83 449.75,418.38 438,425.1 		"/>
		<polygon class="st3" points="419.95,469.78 489.83,429.78 489.83,419.32 419.95,459.32 		"/>
		<polygon class="st3" points="395.31,483.87 412.61,473.98 412.61,463.52 395.31,473.42 		"/>
		<polygon class="st3" points="470.9,464.5 489.83,453.66 489.83,443.21 470.9,454.04 		"/>
		<polygon class="st3" points="426.46,489.93 463.56,468.7 463.56,458.24 426.46,479.48 		"/>
		<polygon class="st3" points="407.37,500.86 419.12,494.13 419.12,483.68 407.37,490.4 		"/>
		<polygon class="st3" points="451.09,499.72 489.83,477.55 489.83,467.09 451.09,489.26 		"/>
		<polygon class="st3" points="415.74,519.95 443.75,503.92 443.75,493.46 415.74,509.5 		"/>
		<polygon class="st3" points="389.47,534.99 408.4,524.15 408.4,513.7 389.47,524.53 		"/>
		<polygon class="st3" points="476.75,508.92 489.83,501.43 489.83,490.98 476.75,498.46 		"/>
		<polygon class="st3" points="452.12,523.02 469.41,513.12 469.41,502.66 452.12,512.56 		"/>
		<polygon class="st3" points="416.92,543.16 444.78,527.22 444.78,516.76 416.92,532.71 		"/>
		<polygon class="st3" points="449.75,548.26 489.83,525.32 489.83,514.86 449.75,537.8 		"/>
		<polygon class="st3" points="404.86,573.95 442.41,552.45 442.41,542 404.86,563.49 		"/>
		<polygon class="st4" points="385.77,584.87 397.52,578.15 397.52,567.69 385.77,574.42 		"/>
		<polygon class="st3" points="367.45,595.36 379.2,588.63 379.2,578.18 367.45,584.9 		"/>
		<polygon class="st3" points="465.82,562.94 489.83,549.2 489.83,538.74 465.82,552.49 		"/>
		<polygon class="st3" points="365.39,429.35 332.08,448.41 332.08,437.95 365.39,418.89 		"/>
		<polygon class="st3" points="358.25,457.32 332.08,472.29 332.08,461.84 358.25,446.86 		"/>
		<polygon class="st3" points="351.02,485.34 332.08,496.18 332.08,485.72 351.02,474.89 		"/>
		<polygon class="st3" points="359.62,504.3 332.08,520.06 332.08,509.61 359.62,493.84 		"/>
		<polygon class="st3" points="351.02,533.11 332.08,543.95 332.08,533.49 351.02,522.65 		"/>
		<polygon class="st3" points="356.1,554.09 332.08,567.83 332.08,557.37 356.1,543.63 		"/>
		<polygon class="st3" points="345.17,584.23 332.08,591.71 332.08,581.26 345.17,573.77 		"/>
		<polygon class="st3" points="357.44,601.09 332.08,615.6 332.08,605.14 357.44,590.63 		"/>
		<polygon class="st4" points="356.1,625.74 332.08,639.48 332.08,629.03 356.1,615.28 		"/>
		<polygon class="st3" points="448.27,572.99 458.48,567.14 458.48,556.69 448.27,562.53 		"/>
		<polygon class="st3" points="417.94,590.34 440.93,577.19 440.93,566.73 417.94,579.89 		"/>
		<polygon class="st4" points="398.93,670.69 437.72,648.48 437.72,638.03 398.93,660.23 		"/>
		<polygon class="st4" points="372.36,685.89 387.64,677.15 387.64,666.69 372.36,675.44 		"/>
	</g>
	<path class="st6" d="M329.1,932.07c-5.7,0-11.65-1.39-16.38-4.13l-119.63-69.06c-5.34-3.09-8.4-7.51-8.4-12.13
		c0-4.08,2.41-7.81,6.61-10.24l575.61-332.33c7.79-4.49,20.76-4.03,29.53,1.04l119.63,69.06c5.34,3.09,8.4,7.51,8.4,12.13
		c0,4.08-2.41,7.81-6.61,10.24L342.25,928.98l0,0C338.67,931.05,333.98,932.07,329.1,932.07z M339.95,925h0.04H339.95z
		 M779.98,510.29c-3.24,0-6.3,0.61-8.46,1.86L195.9,844.49c-1.26,0.73-2.02,1.58-2.02,2.27c0,0.98,1.18,2.64,3.81,4.16l119.63,69.06
		c5.89,3.41,15.4,3.89,20.33,1.04l575.61-332.33c1.26-0.73,2.02-1.57,2.02-2.27c0-0.98-1.18-2.64-3.81-4.16l-119.63-69.06
		C788.54,511.28,784.11,510.29,779.98,510.29z"/>
	<path class="st7" d="M314.43,864.99c-4.83,0-9.88-1.18-13.89-3.5l-101.41-58.55c-4.53-2.62-7.12-6.36-7.12-10.28
		c0-3.46,2.04-6.62,5.61-8.68l487.98-281.74c6.6-3.8,17.6-3.42,25.04,0.88l101.41,58.55c4.53,2.62,7.12,6.36,7.12,10.28
		c0,3.46-2.04,6.62-5.61,8.68L325.58,862.38l0,0C322.54,864.13,318.56,864.99,314.43,864.99z M323.63,859h0.03H323.63z
		 M696.66,507.43c-2.75,0-5.34,0.52-7.18,1.58L201.51,790.74c-1.07,0.61-1.71,1.34-1.71,1.93c0,0.83,1,2.24,3.23,3.53l101.41,58.55
		c5,2.89,13.06,3.29,17.24,0.88l487.98-281.74c1.07-0.62,1.71-1.34,1.71-1.92c0-0.83-1-2.24-3.23-3.53l-101.42-58.55
		C703.92,508.27,700.16,507.43,696.66,507.43z"/>
	<g>
		<polygon class="st8" points="323.23,795.4 263.37,760.15 320.38,689 335.36,713.49 		"/>
		<path class="st9" d="M757.82,404.94l-95.53-54.96c0,0,3.59,54.85,3.59,54.96s54.88,17,54.88,17L757.82,404.94z"/>
		<path class="st9" d="M306.59,616.5c7.27-4.2,14.21-6.65,20.67-7.66c9.63-50.62,44.85-104.37,86.85-128.62
			c12.63-7.29,24.64-11.19,35.54-12.03c5.73-61.35,48.39-131.07,100.19-160.98c27.06-15.62,51.61-17.47,69.73-7.9l0-0.05l0.88,0.51
			c0.46,0.26,0.92,0.52,1.38,0.79l56.33,33.27l-18.72,14.78c16.8,7.34,27.42,26.19,27.42,54.04c0,51.37-36.06,113.83-80.55,139.51
			L306.59,756.18c-33.4,19.29-60.48,3.65-60.48-34.92C246.11,682.69,273.19,635.79,306.59,616.5z"/>
		<path class="st10" d="M684.07,380.04L554.79,304.5c25.1-13.09,47.77-14.17,64.78-5.19l0-0.05l0.88,0.51
			c0.46,0.26,0.92,0.52,1.38,0.79l56.33,33.27l-18.72,14.78C671.18,353.74,679.88,364.51,684.07,380.04z"/>
		<path class="st10" d="M445.32,602.25l-94.33-55.36c16.18-27.98,38.46-52.43,63.12-66.67c3.26-1.89,6.49-3.53,9.66-4.97
			l119.98,70.17L445.32,602.25z"/>
		<path class="st11" d="M651.57,340.01l-42.04,24.27l-76.99-45.34c5.62-4.37,11.4-8.32,17.3-11.72c9.32-5.38,18.34-9.09,26.9-11.3
			L651.57,340.01z"/>
		<path class="st11" d="M361.39,530.61l75.29,44.36l-26.19,29.21l-68.35-40.35C347.55,552.24,354.05,541.05,361.39,530.61z"/>
		<path class="st12" d="M365.73,651.34c7.27-4.2,14.21-6.65,20.67-7.66c9.63-50.62,44.85-104.37,86.85-128.62
			c12.63-7.29,24.64-11.19,35.54-12.03c5.73-61.35,48.39-131.07,100.19-160.98c55.71-32.16,100.87-6.09,100.87,58.23
			c0,2.18-0.06,4.38-0.16,6.59c40.74-18.89,72.57,2.39,72.57,50.65c0,51.37-36.06,113.83-80.55,139.51L365.73,791.01
			c-33.4,19.29-60.48,3.65-60.48-34.92C305.25,717.52,332.33,670.62,365.73,651.34z"/>
		<g>
			<path class="st13" d="M709.68,406.88c0.1-2.21,0.16-4.41,0.16-6.59c0-0.09-0.01-0.18-0.01-0.27c22.51-8.75,41.85-4.94,53.98,9.1
				C750.64,398.26,731.47,396.78,709.68,406.88z"/>
			<path class="st13" d="M360.81,646.54c7.27-4.2,14.21-6.65,20.67-7.66c9.63-50.62,44.85-104.37,86.85-128.62
				c12.63-7.29,24.64-11.19,35.54-12.03c5.73-61.35,48.39-131.07,100.19-160.98c34.71-20.04,65.32-17.46,83.46,2.87
				c-18.49-15.8-46.8-16.41-78.55,1.92c-51.8,29.91-94.46,99.63-100.19,160.98c-10.9,0.84-22.91,4.74-35.54,12.03
				c-42,24.25-77.22,78-86.85,128.62c-6.46,1.01-13.4,3.46-20.67,7.66c-33.4,19.29-60.48,66.19-60.48,104.76
				c0,13.92,3.57,24.8,9.64,32.18c-9.06-6.98-14.56-19.63-14.56-36.97C300.33,712.73,327.41,665.83,360.81,646.54z"/>
		</g>
		<g>
			<path class="st14" d="M716.79,422.2l-25.26,11.71l1.28-27.81c0.09-1.95,0.15-3.89,0.15-5.82c0-24.82-7.49-42.82-21.1-50.68
				c-13.61-7.85-32.95-5.34-54.44,7.07c-46.23,26.69-86.57,91.67-91.82,147.93l-1.33,14.17l-14.19,1.09
				c-8.72,0.67-18.28,3.97-28.39,9.81c-36.72,21.2-69.82,70.47-78.7,117.15l-2.22,11.68l-11.75,1.84c-4.68,0.74-9.67,2.62-14.84,5.6
				c-28.21,16.29-52.04,57.56-52.04,90.13c0,12.19,3.38,21.13,9.27,24.54c5.89,3.4,15.32,1.86,25.88-4.24l335.98-193.98
				c39.08-22.56,72.1-79.76,72.1-124.89c0-17.71-5.22-31.2-14.33-37.02c-3.75-2.39-8.28-3.58-13.39-3.58
				C731.43,416.93,724.35,418.69,716.79,422.2z"/>
		</g>
	</g>
	<g>
		<polygon class="st15" points="571.47,599.5 560.17,594.7 570.89,586.67 		"/>
		<polygon class="st15" points="538.69,568.07 527.24,563.19 548.35,543.41 		"/>
		<g>
			<path class="st9" d="M563.42,594.27l51.8-30.4c2.63-1.54,4.67-5.28,4.57-8.35l-1.95-56.37l-61.32,35.99l1.95,56.37
				C558.57,594.58,560.79,595.81,563.42,594.27z"/>
			<path class="st9" d="M589.67,454.84l57.99,31.98c2.46,1.36,0.68,6.77-2.93,8.89l-57.14,33.54l-57.14,33.54
				c-3.6,2.12-5.68-1.03-3.41-5.17l53.51-97.42C582.87,455.98,587.17,453.46,589.67,454.84z"/>
		</g>
		<g>
			<path class="st12" d="M574.89,599.16l51.8-30.4c2.63-1.54,4.67-5.28,4.57-8.35l-1.95-56.37l-61.32,35.99l1.95,56.37
				C570.04,599.47,572.26,600.7,574.89,599.16z"/>
			<path class="st12" d="M601.14,459.73l57.99,31.98c2.46,1.36,0.68,6.77-2.93,8.89l-57.14,33.54l-57.14,33.54
				c-3.61,2.12-5.68-1.03-3.41-5.17l53.51-97.42C594.33,460.87,598.63,458.35,601.14,459.73z"/>
		</g>
	</g>
	<g class="st16">
		<path class="st9" d="M153.98,511.72l86.58-49.99c1.71-0.99,3.26-1.03,4.48-0.36l-0.01-0.06l8.4,4.85c0,0-3.72,1.36-5.9,2.16v63.05
			c0,5.13-3.12,11.09-6.97,13.31l-82.76,47.78v7.4l-8.48-4.89l0.05-0.02c-1.43-0.87-2.35-2.79-2.35-5.55v-64.38
			C147.02,519.9,150.13,513.94,153.98,511.72z"/>
		<path class="st12" d="M162.53,599.61l86.58-49.99c3.85-2.22,6.97-8.18,6.97-13.31v-64.38c0-5.13-3.12-7.49-6.97-5.27l-86.58,49.99
			c-3.85,2.22-6.97,8.18-6.97,13.31v64.38C155.57,599.47,158.69,601.83,162.53,599.61z"/>
		<path class="st0" d="M160.41,515.66L247,465.67c2.11-1.22,3.97-1.02,5.25,0.21c-0.95-0.09-2,0.12-3.13,0.78l-86.58,49.99
			c-3.85,2.22-6.97,8.18-6.97,13.31v64.38c0,2.32,0.66,4.03,1.71,5.05c-2.27-0.23-3.83-2.42-3.83-6.04v-64.38
			C153.45,523.84,156.57,517.88,160.41,515.66z"/>
		<g class="st17">
			<path class="st0" d="M220,527.43c0,3.73,2.62,5.24,5.84,3.37c3.23-1.86,5.84-6.39,5.84-10.12s-2.62-5.24-5.84-3.37
				C222.62,519.18,220,523.71,220,527.43z"/>
			<path class="st0" d="M202.3,537.65c0,3.73,2.62,5.24,5.84,3.37c3.23-1.86,5.84-6.39,5.84-10.12c0-3.73-2.62-5.24-5.84-3.37
				C204.92,529.4,202.3,533.93,202.3,537.65z"/>
			<path class="st0" d="M184.61,547.87c0,3.73,2.62,5.24,5.84,3.37c3.23-1.86,5.84-6.39,5.84-10.12c0-3.73-2.62-5.23-5.84-3.37
				C187.22,539.61,184.61,544.14,184.61,547.87z"/>
		</g>
	</g>
	<g>
		<path class="st9" d="M211.98,417.72l86.58-49.99c1.71-0.99,3.26-1.03,4.48-0.36l-0.01-0.06l8.4,4.85c0,0-3.72,1.36-5.9,2.16v63.05
			c0,5.13-3.12,11.09-6.97,13.31l-82.76,47.78v7.4l-8.48-4.89l0.05-0.02c-1.43-0.87-2.35-2.79-2.35-5.55v-64.38
			C205.02,425.9,208.13,419.94,211.98,417.72z"/>
		<path class="st12" d="M220.53,505.61l86.58-49.99c3.85-2.22,6.97-8.18,6.97-13.31v-64.38c0-5.13-3.12-7.49-6.97-5.27l-86.58,49.99
			c-3.85,2.22-6.97,8.18-6.97,13.31v64.38C213.57,505.47,216.69,507.83,220.53,505.61z"/>
		<path class="st0" d="M218.41,421.66L305,371.67c2.11-1.22,3.97-1.02,5.25,0.21c-0.95-0.09-2,0.12-3.13,0.78l-86.58,49.99
			c-3.85,2.22-6.97,8.18-6.97,13.31v64.38c0,2.32,0.66,4.03,1.71,5.05c-2.27-0.23-3.83-2.42-3.83-6.04v-64.38
			C211.45,429.84,214.57,423.88,218.41,421.66z"/>
		<g class="st17">
			<path class="st0" d="M278,433.43c0,3.73,2.62,5.24,5.84,3.37c3.23-1.86,5.84-6.39,5.84-10.12c0-3.73-2.62-5.24-5.84-3.37
				C280.62,425.18,278,429.71,278,433.43z"/>
			<path class="st0" d="M260.3,443.65c0,3.73,2.62,5.24,5.84,3.37c3.23-1.86,5.84-6.39,5.84-10.12c0-3.73-2.62-5.24-5.84-3.37
				C262.92,435.4,260.3,439.93,260.3,443.65z"/>
			<path class="st0" d="M242.61,453.87c0,3.73,2.62,5.24,5.84,3.37c3.23-1.86,5.84-6.39,5.84-10.12c0-3.73-2.62-5.23-5.84-3.37
				C245.22,445.61,242.61,450.14,242.61,453.87z"/>
		</g>
	</g>
</g>
</svg>
