<?xml version="1.0" encoding="utf-8"?>
<!-- Generator: Adobe Illustrator 16.0.0, SVG Export Plug-In . SVG Version: 6.00 Build 0)  -->
<!DOCTYPE svg PUBLIC "-//W3C//DTD SVG 1.1//EN" "http://www.w3.org/Graphics/SVG/1.1/DTD/svg11.dtd">
<svg version="1.1" id="Layer_1" xmlns="http://www.w3.org/2000/svg" xmlns:xlink="http://www.w3.org/1999/xlink" x="0px" y="0px"
	 width="1024px" height="1098.727px" viewBox="0 0 1024 1098.727" enable-background="new 0 0 1024 1098.727" xml:space="preserve">
<rect x="-0.002" fill="#FFFFFF" width="1024.004" height="1024"/>
<rect x="-0.002" y="660.885" fill="#D0DEE2" width="1024.004" height="363.115"/>
<g>
	<rect x="0.001" y="1024.002" fill="#132028" width="1024.003" height="74.725"/>
	<g>
		<g>
			<path fill="#FFFFFF" d="M334.035,1050.005h3.956c3.112,0,5.677,0.819,7.691,2.458c2.029,1.621,3.042,3.957,3.042,7.001
				c0,3.135-1.002,5.525-3.021,7.182c-2.007,1.659-4.605,2.486-7.786,2.486h-3.883V1050.005z M336.421,1066.957h0.832
				c1.241,0,2.406-0.127,3.509-0.376c1.094-0.242,2.059-0.661,2.879-1.245c0.822-0.58,1.478-1.344,1.964-2.279
				c0.494-0.941,0.737-2.105,0.737-3.491c0-1.366-0.243-2.531-0.724-3.515c-0.48-0.97-1.153-1.728-2.018-2.275
				c-0.863-0.55-1.812-0.958-2.857-1.216c-1.04-0.249-2.197-0.385-3.49-0.385h-0.832V1066.957z"/>
			<path fill="#FFFFFF" d="M352.226,1063.576c0.032,1.059,0.375,1.984,1.017,2.769c0.661,0.775,1.51,1.162,2.561,1.162
				c0.833,0,1.512-0.183,2.046-0.567c0.532-0.382,1.04-0.964,1.511-1.741l1.926,1.095c-0.557,1.015-1.32,1.807-2.296,2.383
				c-0.97,0.571-2.044,0.868-3.211,0.868c-1.772,0-3.197-0.595-4.259-1.776c-1.053-1.206-1.574-2.689-1.574-4.467
				c0-1.871,0.496-3.422,1.495-4.627c0.983-1.182,2.407-1.772,4.29-1.772c1.826,0,3.203,0.591,4.138,1.772
				c0.945,1.184,1.418,2.697,1.418,4.55v0.353H352.226z M359.006,1061.849c-0.139-0.913-0.48-1.642-1.053-2.168
				c-0.571-0.528-1.308-0.81-2.222-0.81c-0.44,0-0.851,0.077-1.23,0.226c-0.385,0.138-0.718,0.353-1.022,0.614
				c-0.287,0.279-0.534,0.604-0.729,0.961c-0.196,0.362-0.325,0.764-0.391,1.177H359.006z"/>
			<path fill="#FFFFFF" d="M368.012,1059.981c-0.345-0.7-0.846-1.044-1.518-1.044c-0.319,0-0.611,0.107-0.867,0.338
				c-0.255,0.226-0.378,0.513-0.378,0.828c0,0.306,0.095,0.562,0.291,0.766c0.195,0.215,0.459,0.416,0.794,0.605
				c0.224,0.097,0.392,0.181,0.512,0.232c0.115,0.063,0.313,0.15,0.584,0.269c0.135,0.064,0.255,0.127,0.358,0.154
				c0.095,0.037,0.172,0.059,0.223,0.104c0.845,0.384,1.515,0.84,2.005,1.343c0.492,0.511,0.735,1.184,0.735,2.036
				c0,1.117-0.404,2.052-1.217,2.811c-0.794,0.751-1.746,1.121-2.87,1.121c-0.453,0-0.896-0.066-1.314-0.193
				c-0.427-0.125-0.823-0.306-1.183-0.535c-0.365-0.236-0.681-0.503-0.968-0.835c-0.276-0.331-0.495-0.701-0.64-1.111l1.954-0.879
				c0.551,1.012,1.274,1.517,2.15,1.517c0.36,0,0.688-0.094,0.995-0.285c0.302-0.193,0.524-0.442,0.671-0.745
				c0.143-0.295,0.173-0.61,0.088-0.957c-0.084-0.35-0.351-0.683-0.788-0.979l-2.235-1.194c-0.391-0.201-0.723-0.395-1.013-0.602
				c-0.286-0.212-0.526-0.43-0.71-0.654c-0.186-0.232-0.327-0.481-0.416-0.761c-0.091-0.277-0.142-0.602-0.142-0.982
				c0-0.962,0.335-1.764,1.018-2.432c0.67-0.679,1.504-1.014,2.485-1.014c1.485,0,2.57,0.696,3.248,2.081L368.012,1059.981z"/>
			<path fill="#FFFFFF" d="M376.211,1051.826c0,0.426-0.152,0.785-0.459,1.099c-0.303,0.301-0.676,0.438-1.116,0.438
				c-0.442,0-0.81-0.138-1.116-0.438c-0.303-0.313-0.457-0.673-0.457-1.099c0-0.439,0.153-0.812,0.457-1.136
				c0.306-0.315,0.673-0.46,1.116-0.46c0.44,0,0.813,0.145,1.116,0.46C376.059,1051.015,376.211,1051.387,376.211,1051.826z
				 M375.773,1069.132h-2.286v-11.878h2.286V1069.132z"/>
			<path fill="#FFFFFF" d="M390.551,1068.91c0,2.23-0.43,3.955-1.274,5.194c-0.84,1.223-2.354,1.828-4.515,1.828
				c-1.672,0-3.046-0.481-4.111-1.448c-1.048-0.964-1.597-2.272-1.625-3.929h2.278c0,1.062,0.334,1.88,0.981,2.473
				c0.648,0.589,1.508,0.876,2.58,0.876c1.299,0,2.192-0.384,2.675-1.143c0.478-0.765,0.72-1.841,0.72-3.218v-2.265h-0.047
				c-0.476,0.713-1.062,1.268-1.764,1.663c-0.704,0.403-1.462,0.602-2.272,0.602c-1.762,0-3.147-0.618-4.165-1.854
				c-1.012-1.239-1.52-2.765-1.52-4.569c0-1.716,0.514-3.169,1.545-4.369c1.039-1.229,2.378-1.85,4.035-1.85
				c1.747,0,3.124,0.799,4.14,2.389h0.047v-2.036h2.29V1068.91z M384.533,1067.507c1.2,0,2.139-0.407,2.815-1.245
				c0.696-0.838,1.04-1.867,1.04-3.068c0-1.178-0.344-2.191-1.04-3.022c-0.676-0.823-1.615-1.233-2.815-1.233
				c-1.133,0-2.044,0.413-2.743,1.266c-0.671,0.829-1.015,1.819-1.015,2.99c0,1.201,0.343,2.226,1.015,3.045
				C382.488,1067.086,383.399,1067.507,384.533,1067.507z"/>
			<path fill="#FFFFFF" d="M395.807,1058.852h0.04c0.343-0.621,0.838-1.108,1.479-1.441c0.637-0.34,1.346-0.509,2.104-0.509
				c0.778,0,1.436,0.122,1.98,0.353c0.544,0.238,0.976,0.577,1.309,1.018c0.328,0.44,0.565,0.982,0.704,1.607
				c0.151,0.642,0.216,1.359,0.216,2.176v7.077h-2.277v-6.796c0-1.175-0.174-2.021-0.511-2.566
				c-0.338-0.561-1.039-0.832-2.104-0.832c-0.395,0-0.722,0.034-0.995,0.107c-0.271,0.077-0.503,0.189-0.708,0.327
				c-0.204,0.147-0.371,0.321-0.51,0.494c-0.13,0.187-0.261,0.393-0.374,0.616c-0.052,0.113-0.104,0.266-0.143,0.453
				c-0.043,0.181-0.078,0.376-0.112,0.576c-0.034,0.19-0.066,0.382-0.081,0.578c-0.013,0.201-0.019,0.348-0.019,0.47v1.121v5.451
				h-2.289v-11.878h2.289V1058.852z"/>
			<path fill="#FFFFFF" d="M413.945,1047.105h2.284v12.129h0.048c1.053-1.554,2.429-2.333,4.14-2.333c1.66,0,3.001,0.62,4.037,1.85
				c1.03,1.2,1.548,2.653,1.548,4.369c0,1.805-0.518,3.33-1.524,4.569c-1.021,1.236-2.4,1.854-4.159,1.854
				c-0.81,0-1.571-0.198-2.276-0.602c-0.7-0.396-1.289-0.95-1.765-1.663h-0.048v1.853h-2.284V1047.105z M419.853,1067.507
				c1.209,0,2.145-0.407,2.826-1.245c0.693-0.838,1.032-1.867,1.032-3.068c0-1.178-0.339-2.191-1.032-3.022
				c-0.681-0.823-1.617-1.233-2.826-1.233c-1.133,0-2.044,0.413-2.738,1.266c-0.678,0.829-1.013,1.819-1.013,2.99
				c0,1.201,0.335,2.226,1.013,3.045C417.809,1067.086,418.72,1067.507,419.853,1067.507z"/>
			<path fill="#FFFFFF" d="M426.329,1057.254h2.665l4.007,7.544l3.728-7.544h2.569l-9.619,18.679h-2.591l4.671-8.833
				L426.329,1057.254z"/>
			<path fill="#FFFFFF" d="M450.817,1064.332l-2.183,4.8h-2.565l9.139-19.945l9.129,19.945h-2.559l-2.176-4.8H450.817z
				 M455.208,1054.418l-3.408,7.736h6.805L455.208,1054.418z"/>
			<path fill="#FFFFFF" d="M468.075,1069.132h-2.282v-22.026h2.282V1069.132z"/>
			<path fill="#FFFFFF" d="M473.708,1069.132h-2.285v-22.026h2.285V1069.132z"/>
			<path fill="#FFFFFF" d="M482.385,1060.053v1.899h-5.557v-1.899H482.385z"/>
			<path fill="#FFFFFF" d="M491.259,1049.418c-0.706-0.322-1.21-0.482-1.514-0.482c-0.495,0-0.846,0.148-1.063,0.466
				c-0.224,0.312-0.375,0.692-0.46,1.156c-0.05,0.335-0.075,0.604-0.095,0.799c-0.003,0.199-0.003,0.462-0.003,0.806v5.092h3.135
				v2.131h-3.135v9.747h-2.292v-9.747h-1.036v-2.131h1.036v-5.779c0-3.115,1.281-4.677,3.841-4.677c0.556,0,1.086,0.111,1.586,0.308
				V1049.418z"/>
			<path fill="#FFFFFF" d="M494.789,1059.181h0.076c0.29-0.705,0.705-1.266,1.273-1.669c0.563-0.404,1.221-0.61,1.98-0.61
				c0.632,0,1.248,0.193,1.886,0.586l-1.044,2.078c-0.375-0.331-0.842-0.479-1.396-0.479c-1.177,0-1.949,0.475-2.339,1.42
				c-0.169,0.44-0.289,0.877-0.344,1.307c-0.054,0.425-0.092,0.932-0.092,1.488v5.831h-2.275v-11.878h2.275V1059.181z"/>
			<path fill="#FFFFFF" d="M502.641,1063.576c0.027,1.059,0.371,1.984,1.018,2.769c0.655,0.775,1.503,1.162,2.556,1.162
				c0.819,0,1.514-0.183,2.043-0.567c0.533-0.382,1.038-0.964,1.505-1.741l1.927,1.095c-0.551,1.015-1.316,1.807-2.289,2.383
				c-0.973,0.571-2.047,0.868-3.213,0.868c-1.769,0-3.195-0.595-4.254-1.776c-1.053-1.206-1.577-2.689-1.577-4.467
				c0-1.871,0.5-3.422,1.493-4.627c0.981-1.182,2.407-1.772,4.288-1.772c1.827,0,3.21,0.591,4.146,1.772
				c0.938,1.184,1.406,2.697,1.406,4.55v0.353H502.641z M509.414,1061.849c-0.138-0.913-0.488-1.642-1.053-2.168
				c-0.565-0.528-1.304-0.81-2.224-0.81c-0.44,0-0.847,0.077-1.231,0.226c-0.375,0.138-0.72,0.353-1.008,0.614
				c-0.302,0.279-0.546,0.604-0.75,0.961c-0.188,0.362-0.319,0.764-0.381,1.177H509.414z"/>
			<path fill="#FFFFFF" d="M515.031,1063.576c0.027,1.059,0.364,1.984,1.007,2.769c0.654,0.775,1.515,1.162,2.562,1.162
				c0.831,0,1.515-0.183,2.041-0.567c0.537-0.382,1.035-0.964,1.515-1.741l1.923,1.095c-0.548,1.015-1.309,1.807-2.293,2.383
				c-0.978,0.571-2.043,0.868-3.212,0.868c-1.782,0-3.197-0.595-4.27-1.776c-1.041-1.206-1.563-2.689-1.563-4.467
				c0-1.871,0.493-3.422,1.5-4.627c0.976-1.182,2.41-1.772,4.286-1.772c1.819,0,3.203,0.591,4.129,1.772
				c0.956,1.184,1.423,2.697,1.423,4.55v0.353H515.031z M521.801,1061.849c-0.132-0.913-0.49-1.642-1.063-2.168
				c-0.562-0.528-1.298-0.81-2.211-0.81c-0.446,0-0.851,0.077-1.236,0.226c-0.379,0.138-0.712,0.353-1.008,0.614
				c-0.302,0.279-0.552,0.604-0.736,0.961c-0.198,0.362-0.33,0.764-0.398,1.177H521.801z"/>
			<path fill="#FFFFFF" d="M531.47,1060.053v1.899h-5.565v-1.899H531.47z"/>
			<path fill="#FFFFFF" d="M543.317,1067.279h-0.054c-0.471,0.713-1.061,1.268-1.762,1.663c-0.704,0.403-1.465,0.602-2.269,0.602
				c-1.764,0-3.149-0.618-4.159-1.854c-1.018-1.239-1.535-2.765-1.535-4.569c0-1.716,0.52-3.169,1.555-4.369
				c1.034-1.229,2.376-1.85,4.035-1.85c1.708,0,3.087,0.779,4.135,2.333h0.054v-12.129h2.279v22.026h-2.279V1067.279z
				 M539.586,1067.507c1.197,0,2.145-0.407,2.814-1.245c0.694-0.838,1.046-1.867,1.046-3.068c0-1.178-0.352-2.191-1.046-3.022
				c-0.67-0.823-1.617-1.233-2.814-1.233c-1.136,0-2.049,0.413-2.739,1.266c-0.677,0.829-1.016,1.819-1.016,2.99
				c0,1.201,0.339,2.226,1.016,3.045C537.537,1067.086,538.45,1067.507,539.586,1067.507z"/>
			<path fill="#FFFFFF" d="M549.331,1058.728c1.237-1.216,2.743-1.826,4.524-1.826c1.772,0,3.268,0.61,4.477,1.826
				c1.24,1.211,1.854,2.728,1.854,4.496c0,1.771-0.614,3.268-1.854,4.499c-1.209,1.211-2.704,1.821-4.477,1.821
				c-1.781,0-3.287-0.61-4.524-1.821c-1.219-1.231-1.83-2.729-1.83-4.499C547.501,1061.455,548.112,1059.938,549.331,1058.728z
				 M549.784,1063.224c0,1.094,0.41,2.068,1.203,2.906c0.773,0.827,1.737,1.228,2.868,1.228c1.106,0,2.07-0.4,2.859-1.228
				c0.799-0.838,1.192-1.813,1.192-2.906c0-1.119-0.394-2.101-1.192-2.92c-0.789-0.815-1.753-1.218-2.859-1.218
				c-1.131,0-2.095,0.402-2.868,1.218C550.194,1061.123,549.784,1062.104,549.784,1063.224z"/>
			<path fill="#FFFFFF" d="M566.339,1064.826l3.491-8.228l3.48,8.228l3.458-7.572h2.58l-6.038,12.29l-3.48-7.942l-3.491,7.942
				l-6.043-12.29h2.587L566.339,1064.826z"/>
			<path fill="#FFFFFF" d="M582.782,1058.852h0.049c0.336-0.621,0.825-1.108,1.468-1.441c0.646-0.34,1.349-0.509,2.105-0.509
				c0.781,0,1.447,0.122,1.984,0.353c0.54,0.238,0.974,0.577,1.309,1.018c0.327,0.44,0.563,0.982,0.7,1.607
				c0.146,0.642,0.218,1.359,0.218,2.176v7.077h-2.282v-6.796c0-1.175-0.156-2.021-0.505-2.566
				c-0.339-0.561-1.035-0.832-2.113-0.832c-0.381,0-0.711,0.034-0.986,0.107c-0.264,0.077-0.505,0.189-0.711,0.327
				c-0.2,0.147-0.37,0.321-0.505,0.494c-0.14,0.187-0.265,0.393-0.376,0.616c-0.05,0.113-0.102,0.266-0.143,0.453
				c-0.045,0.181-0.086,0.376-0.113,0.576c-0.037,0.19-0.054,0.382-0.084,0.578c-0.004,0.201-0.015,0.348-0.015,0.47v1.121v5.451
				h-2.284v-11.878h2.284V1058.852z"/>
			<path fill="#FFFFFF" d="M596.153,1069.132h-2.288v-22.026h2.288V1069.132z"/>
			<path fill="#FFFFFF" d="M600.16,1058.728c1.225-1.216,2.74-1.826,4.521-1.826c1.774,0,3.264,0.61,4.494,1.826
				c1.229,1.211,1.84,2.728,1.84,4.496c0,1.771-0.61,3.268-1.84,4.499c-1.23,1.211-2.72,1.821-4.494,1.821
				c-1.781,0-3.297-0.61-4.521-1.821c-1.225-1.231-1.829-2.729-1.829-4.499C598.331,1061.455,598.936,1059.938,600.16,1058.728z
				 M600.619,1063.224c0,1.094,0.399,2.068,1.188,2.906c0.779,0.827,1.738,1.228,2.874,1.228c1.109,0,2.069-0.4,2.87-1.228
				c0.788-0.838,1.185-1.813,1.185-2.906c0-1.119-0.396-2.101-1.185-2.92c-0.801-0.815-1.761-1.218-2.87-1.218
				c-1.136,0-2.095,0.402-2.874,1.218C601.019,1061.123,600.619,1062.104,600.619,1063.224z"/>
			<path fill="#FFFFFF" d="M624.246,1069.132h-2.288v-1.853h-0.047c-1.017,1.502-2.365,2.265-4.039,2.265
				c-1.742,0-3.13-0.618-4.161-1.854c-1.016-1.239-1.523-2.765-1.523-4.569c0-1.716,0.512-3.169,1.55-4.369
				c1.03-1.229,2.387-1.85,4.054-1.85c1.699,0,3.07,0.779,4.12,2.333h0.047v-1.98h2.288V1069.132z M618.229,1067.507
				c1.21,0,2.136-0.407,2.817-1.245c0.691-0.838,1.039-1.867,1.039-3.068c0-1.178-0.348-2.191-1.039-3.022
				c-0.682-0.823-1.607-1.233-2.817-1.233c-1.132,0-2.049,0.413-2.736,1.266c-0.679,0.829-1.024,1.819-1.024,2.99
				c0,1.201,0.346,2.226,1.024,3.045C616.18,1067.086,617.097,1067.507,618.229,1067.507z"/>
			<path fill="#FFFFFF" d="M636.064,1067.279h-0.043c-0.478,0.713-1.074,1.268-1.766,1.663c-0.703,0.403-1.459,0.602-2.271,0.602
				c-1.764,0-3.153-0.618-4.168-1.854c-1.012-1.239-1.522-2.765-1.522-4.569c0-1.716,0.526-3.169,1.553-4.369
				c1.031-1.229,2.374-1.85,4.041-1.85c1.704,0,3.074,0.779,4.134,2.333h0.043v-12.129h2.288v22.026h-2.288V1067.279z
				 M632.339,1067.507c1.197,0,2.132-0.407,2.81-1.245c0.694-0.838,1.043-1.867,1.043-3.068c0-1.178-0.349-2.191-1.043-3.022
				c-0.678-0.823-1.612-1.233-2.81-1.233c-1.137,0-2.052,0.413-2.741,1.266c-0.675,0.829-1.018,1.819-1.018,2.99
				c0,1.201,0.343,2.226,1.018,3.045C630.287,1067.086,631.202,1067.507,632.339,1067.507z"/>
			<path fill="#FFFFFF" d="M644.898,1068.066c0,0.407-0.141,0.749-0.419,1.037c-0.299,0.29-0.649,0.44-1.056,0.44
				c-0.407,0-0.752-0.15-1.03-0.44c-0.293-0.288-0.438-0.63-0.438-1.037c0-0.388,0.146-0.733,0.438-1.027
				c0.278-0.293,0.623-0.438,1.03-0.438c0.406,0,0.757,0.146,1.056,0.438C644.758,1067.333,644.898,1067.679,644.898,1068.066z"/>
			<path fill="#FFFFFF" d="M657.382,1060.629c-0.943-1.063-2.082-1.597-3.393-1.597c-1.105,0-2.051,0.417-2.822,1.244
				c-0.768,0.84-1.132,1.826-1.132,2.917c0,1.239,0.364,2.245,1.132,3.019c0.797,0.802,1.789,1.196,2.964,1.196
				c1.219,0,2.308-0.539,3.251-1.572v2.915c-0.981,0.522-2.069,0.793-3.271,0.793c-1.76,0-3.269-0.61-4.522-1.81
				c-1.231-1.177-1.842-2.656-1.842-4.434c0-1.826,0.61-3.362,1.842-4.573c1.241-1.216,2.791-1.826,4.648-1.826
				c1.227,0,2.27,0.264,3.146,0.779V1060.629z"/>
			<path fill="#FFFFFF" d="M660.606,1058.728c1.237-1.216,2.745-1.826,4.518-1.826c1.774,0,3.28,0.61,4.486,1.826
				c1.245,1.211,1.855,2.728,1.855,4.496c0,1.771-0.61,3.268-1.855,4.499c-1.206,1.211-2.712,1.821-4.486,1.821
				c-1.772,0-3.28-0.61-4.518-1.821c-1.218-1.231-1.83-2.729-1.83-4.499C658.776,1061.455,659.389,1059.938,660.606,1058.728z
				 M661.064,1063.224c0,1.094,0.401,2.068,1.194,2.906c0.767,0.827,1.737,1.228,2.865,1.228c1.113,0,2.077-0.4,2.866-1.228
				c0.797-0.838,1.192-1.813,1.192-2.906c0-1.119-0.396-2.101-1.192-2.92c-0.789-0.815-1.753-1.218-2.866-1.218
				c-1.128,0-2.099,0.402-2.865,1.218C661.466,1061.123,661.064,1062.104,661.064,1063.224z"/>
			<path fill="#FFFFFF" d="M675.759,1058.751h0.051c0.336-0.542,0.776-0.981,1.355-1.328c0.567-0.353,1.163-0.521,1.783-0.521
				c1.48,0,2.617,0.7,3.434,2.109c0.369-0.643,0.885-1.16,1.538-1.545c0.645-0.378,1.359-0.564,2.109-0.564
				c2.63,0,3.938,1.708,3.938,5.121v7.109h-2.279v-6.727c0-0.301-0.01-0.604-0.047-0.894c-0.016-0.306-0.073-0.592-0.133-0.862
				c-0.073-0.288-0.168-0.546-0.306-0.783c-0.138-0.226-0.328-0.447-0.557-0.632c-0.305-0.202-0.698-0.297-1.166-0.297
				c-0.481,0-0.879,0.095-1.216,0.297c-0.331,0.185-0.574,0.421-0.756,0.689c-0.181,0.283-0.322,0.641-0.415,1.061
				c-0.099,0.42-0.167,0.807-0.193,1.146c-0.03,0.333-0.038,0.725-0.038,1.171v5.831h-2.288v-6.293c0-0.405,0-0.736-0.018-1.01
				c-0.023-0.281-0.073-0.614-0.157-1.021c-0.081-0.438-0.188-0.756-0.326-0.969c-0.14-0.234-0.354-0.438-0.63-0.631
				c-0.3-0.181-0.636-0.271-1.042-0.271c-1.17,0-1.924,0.499-2.266,1.513c-0.15,0.485-0.248,0.921-0.301,1.352
				c-0.054,0.414-0.075,0.913-0.075,1.499v5.831h-2.288v-11.878h2.288V1058.751z"/>
		</g>
		<g>
			<g>
				<path fill="#FFFFFF" d="M280.801,1062.124c10.778,0,21.548,0,32.324,0c0.978,0,0.978-1.507,0-1.507c-10.776,0-21.546,0-32.324,0
					C279.826,1060.617,279.826,1062.124,280.801,1062.124L280.801,1062.124z"/>
			</g>
			<g>
				<path fill="#FFFFFF" d="M710.875,1062.124c10.775,0,21.551,0,32.318,0c0.986,0,0.986-1.507,0-1.507c-10.768,0-21.543,0-32.318,0
					C709.897,1060.617,709.897,1062.124,710.875,1062.124L710.875,1062.124z"/>
			</g>
		</g>
	</g>
</g>
<g>
	<path fill="#0C3A8E" d="M522.659,949.01L339.487,842.63c-4.916-2.84-7.367-6.621-7.445-10.595c-0.003-0.128-0.003-13.71,0-13.839
		c0.087-4.827,3.655,3.558,10.536-0.417l160.753-61.836c12.737-7.354,32.007-8.15,43.034-1.784l123.109,72.128
		c3.683,2.124,6.353-6.901,7.306-4.033c0.32,0.957,0.117,13.618,0.137,14.609c0.105,4.946-3.466,10.188-10.532,14.27
		l-100.691,96.093C552.958,954.581,533.69,955.38,522.659,949.01z"/>
	<path fill="#00AEEF" d="M522.659,935.428l-183.172-106.38c-11.032-6.371-9.646-17.495,3.09-24.848l160.753-61.839
		c12.737-7.353,32.007-8.15,43.034-1.784l123.109,72.127c11.028,6.367,9.647,17.491-3.09,24.847l-100.691,96.093
		C552.958,940.999,533.69,941.797,522.659,935.428z"/>
	
		<linearGradient id="SVGID_1_" gradientUnits="userSpaceOnUse" x1="8349.9189" y1="831.8545" x2="8382.2891" y2="777.5812" gradientTransform="matrix(1 0 0 1 -7819.2695 0)">
		<stop  offset="0" style="stop-color:#FFFFFF"/>
		<stop  offset="1" style="stop-color:#000000"/>
	</linearGradient>
	<path opacity="0.8182" fill="url(#SVGID_1_)" d="M669.475,812.704l-123.109-72.127c-11.027-6.366-30.297-5.568-43.034,1.784
		l-80.989,31.155c0.761,0.607,1.577,1.192,2.516,1.735l183.171,106.383c2.54,1.464,5.527,2.534,8.761,3.248l49.595-47.332
		C679.122,830.195,680.503,819.071,669.475,812.704z"/>
	
		<radialGradient id="SVGID_2_" cx="8350.998" cy="905.6064" r="129.4154" gradientTransform="matrix(1 0 0 1 -7819.2695 0)" gradientUnits="userSpaceOnUse">
		<stop  offset="0" style="stop-color:#AF8AFC"/>
		<stop  offset="1" style="stop-color:#10054D"/>
	</radialGradient>
	<path opacity="0.6" fill="url(#SVGID_2_)" d="M666.385,835.245l-100.691,96.093c-12.735,7.355-32.003,8.153-43.034,1.784
		L339.487,826.74c-4.577-2.644-6.982-6.106-7.361-9.776c-0.575,4.507,1.833,8.891,7.361,12.084l183.172,106.38
		c11.031,6.369,30.299,5.571,43.034-1.784l100.691-96.093c7.451-4.303,10.984-9.895,10.451-15.072
		C676.264,826.968,672.739,831.574,666.385,835.245z"/>
	<path fill="#00AEEF" d="M761.974,936.02L312.11,676.08c-22.999-13.279-41.645-48.9-41.645-79.568V252.46
		c0-30.665,18.646-44.761,41.645-31.481l449.864,259.936c22.998,13.282,41.641,48.907,41.641,79.569v344.054
		C803.614,935.203,784.972,949.299,761.974,936.02z"/>
	<path fill="#0C3A8E" d="M767.334,912.065L323.812,655.831c-18.51-11.767-29.955-35.27-29.955-59.319V250.199
		c0-5.699,6.198-9.238,11.116-6.359c0.571,0.337,1.026,0.601,1.306,0.761l443.992,256.564
		c22.033,12.705,29.956,35.269,29.956,59.322v345.221c0,6.109-6.608,9.944-11.92,6.917
		C767.889,912.383,767.556,912.193,767.334,912.065z"/>
	<path fill="#BCBEC0" d="M750.271,501.165L306.279,244.601c-0.28-0.16-0.735-0.426-1.306-0.761
		c-4.917-2.879-11.119,0.66-11.119,6.359v346.313c0,24.05,11.448,47.553,29.958,59.315l443.522,256.238
		c0.222,0.128,0.555,0.317,0.974,0.559c5.312,3.027,11.92-0.804,11.92-6.917V560.483
		C780.228,536.434,772.305,513.869,750.271,501.165z M775.55,905.707c0,2.034-1.718,3.297-3.307,3.297
		c-0.556,0-1.102-0.149-1.617-0.443L326.153,651.778c-16.713-10.627-27.62-32.359-27.62-55.267V250.199
		c0-1.669,1.411-2.704,2.72-2.704c0.466,0,0.924,0.126,1.355,0.38L747.93,505.217c22.83,13.16,27.62,37.318,27.62,55.267V905.707z"
		/>
	<path fill="#0C3A8E" d="M773.773,474.647l-449.86-259.938c-9.101-5.253-17.518-6.223-24.368-3.577
		c-0.872,0.338-12.484,6.507-13.303,6.959l-0.038,0.024c7.096-3.445,16.095-2.801,25.905,2.863l449.864,259.939
		c22.998,13.279,41.641,48.903,41.641,79.565v344.054c0,19.137-7.262,31.818-18.313,35.421c0.901,0.05,2.023-0.3,3.65-1.241
		c0.525-0.304,13.127-7.413,13.632-7.764c7.909-5.543,12.836-16.927,12.836-32.687v-344.05
		C815.419,523.547,796.772,487.926,773.773,474.647z"/>
	
		<radialGradient id="SVGID_3_" cx="8610.8398" cy="557.0762" r="74.5811" gradientTransform="matrix(1 0 0 1 -7819.2695 0)" gradientUnits="userSpaceOnUse">
		<stop  offset="0" style="stop-color:#AF8AFC"/>
		<stop  offset="1" style="stop-color:#10054D"/>
	</radialGradient>
	<path opacity="0.6" fill="url(#SVGID_3_)" d="M763.971,479.918L314.11,219.98c-9.431-5.446-18.101-6.222-25.083-3.206
		c5.959-0.944,12.801,0.496,20.086,4.704l449.86,259.938c23.002,13.279,41.646,48.901,41.646,79.569v344.051
		c0,18.09-6.519,30.348-16.563,34.689c12.848-2.038,21.559-15.238,21.559-36.188V559.487
		C805.614,528.818,786.969,493.197,763.971,479.918z"/>
	<g>
		
			<linearGradient id="SVGID_4_" gradientUnits="userSpaceOnUse" x1="67.5244" y1="3180.6611" x2="-708.5753" y2="2861.7549" gradientTransform="matrix(0.866 0.5 0 1.1547 701.6426 -2941.3701)">
			<stop  offset="0.0354" style="stop-color:#138BBD"/>
			<stop  offset="0.2257" style="stop-color:#169AC7"/>
			<stop  offset="0.5946" style="stop-color:#1FC3DF"/>
			<stop  offset="1" style="stop-color:#2AF6FF"/>
		</linearGradient>
		<polygon fill="url(#SVGID_4_)" points="764.218,729.828 311.358,469.609 311.358,300.011 764.218,560.23 		"/>
	</g>
	<path fill="#00AEEF" d="M378.286,316.016c0,5.253-3.711,7.37-8.291,4.728c-4.58-2.646-8.291-9.049-8.291-14.302
		c0-5.253,3.711-7.37,8.291-4.729C374.575,304.361,378.286,310.763,378.286,316.016z"/>
	<path fill="#00AEEF" d="M352.137,301.439c0,5.253-3.714,7.37-8.291,4.729c-4.581-2.644-8.292-9.049-8.292-14.302
		s3.711-7.37,8.292-4.725C348.423,289.784,352.137,296.186,352.137,301.439z"/>
	<path fill="#00AEEF" d="M325.771,286.508c0,5.253-3.711,7.37-8.291,4.728c-4.58-2.647-8.291-9.047-8.291-14.302
		c0-5.255,3.711-7.37,8.291-4.727C322.06,274.851,325.771,281.253,325.771,286.508z"/>
	<polygon fill="#9F79C8" points="717.979,517.356 764.404,544.158 764.404,531.521 717.979,504.718 	"/>
	<polygon fill="#9F79C8" points="658.84,482.708 705.266,509.51 705.266,496.873 658.84,470.07 	"/>
	<linearGradient id="SVGID_5_" gradientUnits="userSpaceOnUse" x1="421.0752" y1="777.2822" x2="367.3417" y2="484.7327">
		<stop  offset="0.0354" style="stop-color:#138BBD"/>
		<stop  offset="0.2257" style="stop-color:#169AC7"/>
		<stop  offset="0.5946" style="stop-color:#1FC3DF"/>
		<stop  offset="1" style="stop-color:#2AF6FF"/>
	</linearGradient>
	<polygon fill="url(#SVGID_5_)" points="451.754,639.418 311.716,557.89 311.716,486.78 451.754,568.309 	"/>
	<g>
		<polygon fill="#8969C3" points="451.617,665.025 312.18,583.848 312.18,571.282 451.617,652.461 		"/>
		<polygon fill="#8969C3" points="451.617,679.221 312.18,598.044 312.18,592.324 451.617,673.506 		"/>
		<polygon fill="#8969C3" points="451.617,691.161 312.18,609.985 312.18,604.266 451.617,685.447 		"/>
		<polygon fill="#8969C3" points="451.617,703.102 312.18,621.926 312.18,616.207 451.617,697.388 		"/>
	</g>
	<linearGradient id="SVGID_6_" gradientUnits="userSpaceOnUse" x1="570.3477" y1="832.5684" x2="516.6141" y2="540.0189">
		<stop  offset="0.0354" style="stop-color:#138BBD"/>
		<stop  offset="0.2257" style="stop-color:#169AC7"/>
		<stop  offset="0.5946" style="stop-color:#1FC3DF"/>
		<stop  offset="1" style="stop-color:#2AF6FF"/>
	</linearGradient>
	<polygon fill="url(#SVGID_6_)" points="607.732,731.213 467.694,649.686 467.694,578.576 607.732,660.104 	"/>
	<g>
		<polygon fill="#8969C3" points="607.596,756.818 468.158,675.64 468.158,663.078 607.596,744.257 		"/>
		<polygon fill="#8969C3" points="607.596,771.016 468.158,689.837 468.158,684.123 607.596,765.301 		"/>
		<polygon fill="#8969C3" points="607.596,782.957 468.158,701.778 468.158,696.064 607.596,777.242 		"/>
		<polygon fill="#8969C3" points="607.596,794.897 468.158,713.72 468.158,708.005 607.596,789.184 		"/>
	</g>
	<g>
		<polygon fill="#D1B4E3" points="609.834,537.407 470.397,456.229 470.397,443.664 609.834,524.842 		"/>
		<polygon fill="#D1B4E3" points="640.325,571.382 436.067,452.515 436.067,446.795 640.325,565.662 		"/>
	</g>
	<g>
		<g opacity="0.3">
			<linearGradient id="SVGID_7_" gradientUnits="userSpaceOnUse" x1="493.6025" y1="464.0039" x2="555.4242" y2="581.8862">
				<stop  offset="0.0101" style="stop-color:#9F19AB"/>
				<stop  offset="0.4293" style="stop-color:#5F27BD"/>
				<stop  offset="0.904" style="stop-color:#3D065F"/>
			</linearGradient>
			<path opacity="0" fill="url(#SVGID_7_)" d="M506.664,515.286c-6.589-3.802-11.93-0.759-11.93,6.802v17.456
				c0,7.559,5.341,16.771,11.93,20.572l70.49,40.534c6.589,3.802,14.571,0.338,14.571-7.218v-17.456
				c0-7.563-7.982-16.355-14.571-20.156L506.664,515.286z"/>
			<linearGradient id="SVGID_8_" gradientUnits="userSpaceOnUse" x1="493.5195" y1="465.0132" x2="554.6451" y2="581.5682">
				<stop  offset="0.0101" style="stop-color:#9F19AB"/>
				<stop  offset="0.4293" style="stop-color:#5F27BD"/>
				<stop  offset="0.904" style="stop-color:#3D065F"/>
			</linearGradient>
			<path opacity="0.0909" fill="url(#SVGID_8_)" d="M506.31,515.817c-6.557-3.783-11.872-0.755-11.872,6.769v16.618
				c0,7.521,5.314,16.689,11.872,20.472l70.099,40.309c6.556,3.782,14.272,0.372,14.272-7.147V576.22
				c0-7.525-7.717-16.313-14.272-20.094L506.31,515.817z"/>
			<linearGradient id="SVGID_9_" gradientUnits="userSpaceOnUse" x1="493.4365" y1="466.0225" x2="553.8671" y2="581.2522">
				<stop  offset="0.0101" style="stop-color:#9F19AB"/>
				<stop  offset="0.4293" style="stop-color:#5F27BD"/>
				<stop  offset="0.904" style="stop-color:#3D065F"/>
			</linearGradient>
			<path opacity="0.1818" fill="url(#SVGID_9_)" d="M505.955,516.35c-6.524-3.765-11.813-0.752-11.813,6.735v15.779
				c0,7.485,5.289,16.608,11.813,20.372l69.707,40.082c6.524,3.765,13.975,0.406,13.975-7.076v-15.779
				c0-7.488-7.45-16.269-13.975-20.032L505.955,516.35z"/>
			<linearGradient id="SVGID_10_" gradientUnits="userSpaceOnUse" x1="493.356" y1="467.0313" x2="553.0909" y2="580.9348">
				<stop  offset="0.0101" style="stop-color:#9F19AB"/>
				<stop  offset="0.4293" style="stop-color:#5F27BD"/>
				<stop  offset="0.904" style="stop-color:#3D065F"/>
			</linearGradient>
			<path opacity="0.2727" fill="url(#SVGID_10_)" d="M505.601,516.881c-6.492-3.746-11.755-0.748-11.755,6.702v14.941
				c0,7.448,5.263,16.526,11.755,20.271l69.315,39.855c6.492,3.746,13.677,0.441,13.677-7.005v-14.941
				c0-7.451-7.185-16.224-13.677-19.969L505.601,516.881z"/>
			<linearGradient id="SVGID_11_" gradientUnits="userSpaceOnUse" x1="493.2769" y1="468.04" x2="552.3163" y2="580.6173">
				<stop  offset="0.0101" style="stop-color:#9F19AB"/>
				<stop  offset="0.4293" style="stop-color:#5F27BD"/>
				<stop  offset="0.904" style="stop-color:#3D065F"/>
			</linearGradient>
			<path opacity="0.3636" fill="url(#SVGID_11_)" d="M505.247,517.412c-6.459-3.727-11.696-0.743-11.696,6.67v14.103
				c0,7.412,5.237,16.445,11.696,20.172l68.925,39.629c6.459,3.728,13.377,0.476,13.377-6.934v-14.103
				c0-7.414-6.918-16.182-13.377-19.907L505.247,517.412z"/>
			<linearGradient id="SVGID_12_" gradientUnits="userSpaceOnUse" x1="493.1997" y1="469.0469" x2="551.5447" y2="580.2998">
				<stop  offset="0.0101" style="stop-color:#9F19AB"/>
				<stop  offset="0.4293" style="stop-color:#5F27BD"/>
				<stop  offset="0.904" style="stop-color:#3D065F"/>
			</linearGradient>
			<path opacity="0.4545" fill="url(#SVGID_12_)" d="M504.894,517.944c-6.428-3.709-11.638-0.74-11.638,6.636v13.266
				c0,7.375,5.21,16.363,11.638,20.071l68.532,39.402c6.427,3.709,13.08,0.511,13.08-6.862v-13.266
				c0-7.377-6.653-16.137-13.08-19.845L504.894,517.944z"/>
			<linearGradient id="SVGID_13_" gradientUnits="userSpaceOnUse" x1="493.123" y1="470.0532" x2="550.7729" y2="579.9808">
				<stop  offset="0.0101" style="stop-color:#9F19AB"/>
				<stop  offset="0.4293" style="stop-color:#5F27BD"/>
				<stop  offset="0.904" style="stop-color:#3D065F"/>
			</linearGradient>
			<path opacity="0.5455" fill="url(#SVGID_13_)" d="M504.539,518.476c-6.395-3.69-11.58-0.736-11.58,6.603v12.428
				c0,7.338,5.185,16.281,11.58,19.971l68.142,39.177c6.395,3.689,12.78,0.544,12.78-6.792v-12.427
				c0-7.34-6.386-16.093-12.78-19.782L504.539,518.476z"/>
			<linearGradient id="SVGID_14_" gradientUnits="userSpaceOnUse" x1="493.0479" y1="471.0566" x2="550.0033" y2="579.66">
				<stop  offset="0.0101" style="stop-color:#9F19AB"/>
				<stop  offset="0.4293" style="stop-color:#5F27BD"/>
				<stop  offset="0.904" style="stop-color:#3D065F"/>
			</linearGradient>
			<path opacity="0.6364" fill="url(#SVGID_14_)" d="M504.185,519.008c-6.363-3.672-11.522-0.733-11.522,6.568v11.59
				c0,7.301,5.159,16.199,11.522,19.871l67.75,38.95c6.362,3.671,12.482,0.579,12.482-6.722v-11.588
				c0-7.303-6.12-16.049-12.482-19.721L504.185,519.008z"/>
			<linearGradient id="SVGID_15_" gradientUnits="userSpaceOnUse" x1="492.9761" y1="472.0605" x2="549.237" y2="579.3396">
				<stop  offset="0.0101" style="stop-color:#9F19AB"/>
				<stop  offset="0.4293" style="stop-color:#5F27BD"/>
				<stop  offset="0.904" style="stop-color:#3D065F"/>
			</linearGradient>
			<path opacity="0.7273" fill="url(#SVGID_15_)" d="M503.831,519.539c-6.33-3.653-11.463-0.729-11.463,6.536v10.751
				c0,7.264,5.133,16.118,11.463,19.771l67.358,38.724c6.33,3.652,12.184,0.614,12.184-6.649v-10.75
				c0-7.266-5.854-16.006-12.184-19.658L503.831,519.539z"/>
			<linearGradient id="SVGID_16_" gradientUnits="userSpaceOnUse" x1="492.9053" y1="473.0635" x2="548.4717" y2="579.0182">
				<stop  offset="0.0101" style="stop-color:#9F19AB"/>
				<stop  offset="0.4293" style="stop-color:#5F27BD"/>
				<stop  offset="0.904" style="stop-color:#3D065F"/>
			</linearGradient>
			<path opacity="0.8182" fill="url(#SVGID_16_)" d="M503.477,520.07c-6.297-3.635-11.405-0.725-11.405,6.504v9.912
				c0,7.228,5.107,16.036,11.405,19.671l66.968,38.497c6.297,3.635,11.885,0.648,11.885-6.579v-9.911
				c0-7.229-5.588-15.963-11.885-19.596L503.477,520.07z"/>
			<linearGradient id="SVGID_17_" gradientUnits="userSpaceOnUse" x1="492.8369" y1="474.0645" x2="547.7093" y2="578.6958">
				<stop  offset="0.0101" style="stop-color:#9F19AB"/>
				<stop  offset="0.4293" style="stop-color:#5F27BD"/>
				<stop  offset="0.904" style="stop-color:#3D065F"/>
			</linearGradient>
			<path opacity="0.9091" fill="url(#SVGID_17_)" d="M503.123,520.603c-6.265-3.617-11.346-0.722-11.346,6.47v9.074
				c0,7.191,5.081,15.955,11.346,19.571l66.577,38.271c6.264,3.615,11.586,0.683,11.586-6.508v-9.074
				c0-7.191-5.322-15.918-11.586-19.533L503.123,520.603z"/>
			<linearGradient id="SVGID_18_" gradientUnits="userSpaceOnUse" x1="492.7705" y1="475.063" x2="546.9494" y2="578.372">
				<stop  offset="0.0101" style="stop-color:#9F19AB"/>
				<stop  offset="0.4293" style="stop-color:#5F27BD"/>
				<stop  offset="0.904" style="stop-color:#3D065F"/>
			</linearGradient>
			<path fill="url(#SVGID_18_)" d="M502.769,521.134c-6.233-3.598-11.288-0.718-11.288,6.437v8.236
				c0,7.154,5.055,15.873,11.288,19.471l66.185,38.045c6.232,3.597,11.288,0.717,11.288-6.438v-8.235
				c0-7.154-5.056-15.874-11.288-19.471L502.769,521.134z"/>
		</g>
		<path fill="#FFFFFF" d="M576.516,600.114l-77.062-44.318c-5.391-3.11-9.799-11.532-9.799-18.722v-10.603
			c0-7.187,4.408-10.518,9.799-7.407l77.062,44.317c5.388,3.107,9.796,11.532,9.796,18.719v10.603
			C586.312,599.89,581.903,603.222,576.516,600.114z"/>
		<radialGradient id="SVGID_19_" cx="533.2168" cy="545.2432" r="91.493" gradientUnits="userSpaceOnUse">
			<stop  offset="0" style="stop-color:#711F56"/>
			<stop  offset="0.1614" style="stop-color:#6C1E52"/>
			<stop  offset="0.3626" style="stop-color:#5C1946"/>
			<stop  offset="0.5849" style="stop-color:#431233"/>
			<stop  offset="0.8208" style="stop-color:#200918"/>
			<stop  offset="1" style="stop-color:#000000"/>
		</radialGradient>
		<path fill="url(#SVGID_19_)" d="M576.516,563.382l-77.062-44.317c-5.391-3.11-9.799,0.221-9.799,7.407v1.099
			c0-7.184,4.408-10.518,9.799-7.404l77.062,44.312c5.388,3.114,9.796,11.539,9.796,18.723v-1.1
			C586.312,574.914,581.903,566.489,576.516,563.382z"/>
	</g>
</g>
<g>
	<g enable-background="new    ">
		<path fill="#0C3A8E" d="M630.553,345.839l12.398-7.207c1.756-1.02,3.706-2.414,6.893-4.413c2.226-1.94,4.649-28.11-2.118-48.415
			c-12.82-38.461-42.735-48.611-42.735-48.611c-6.944-36.592-36.058-76.389-63.836-89.523c-13.727-6.49-24.773-7.334-32.443-6.531
			c-0.029,0.017-0.061,0.03-0.09,0.047l-18.348,10.662c11.26-6.543,26.854-5.62,44.064,4.317
			c28.986,16.734,53.255,53.663,59.918,88.462c2.332,0.878,4.73,2.014,7.182,3.429c22.809,13.168,41.234,45.088,41.16,71.295
			C642.56,332.372,637.965,341.531,630.553,345.839z"/>
		<path fill="#0C3A8E" d="M455.722,156.974l-18.162,10.554c7.508-4.363,17.905-3.748,29.382,2.877
			c2.447,1.414,4.847,3.049,7.177,4.862l10.349-6.014C474.906,161.056,464.561,157.878,455.722,156.974z"/>
		<g>
			<path fill="#00AEEF" d="M534.338,156.166c-28.986-16.735-53.383-7.904-60.218,19.101c-2.33-1.813-4.73-3.449-7.177-4.862
				c-22.809-13.167-41.354-2.594-41.428,23.614c-0.07,24.55,16.098,54.115,36.896,68.581l138.758,80.36
				c22.809,13.168,41.354,2.6,41.43-23.608c0.074-26.208-18.352-58.127-41.16-71.295c-2.451-1.415-4.85-2.551-7.182-3.429
				C587.593,209.829,563.324,172.9,534.338,156.166z"/>
			<g>
				<path fill="#CDDCFB" d="M603.126,339.582l-138.568-80.251l-0.095-0.06c-19.716-13.818-35.109-42.475-35.045-65.241
					c0.045-15.894,7.147-25.384,18.996-25.384c5.019,0,10.75,1.778,16.575,5.141c2.242,1.294,4.507,2.829,6.731,4.561l4.718,3.672
					l1.467-5.796c4.023-15.895,14.196-24.649,28.644-24.649c7.869,0,16.802,2.757,25.836,7.972
					c27.539,15.899,51.404,51.188,58.036,85.814l0.411,2.149l2.047,0.771c2.173,0.818,4.395,1.88,6.605,3.157
					c21.69,12.521,39.277,42.983,39.208,67.903c-0.046,15.891-7.146,25.379-18.993,25.379
					C614.68,344.721,608.949,342.944,603.126,339.582z M480.429,176.864l-2.445,9.659l-7.861-6.12
					c-2.132-1.659-4.296-3.126-6.435-4.361c-5.431-3.135-10.712-4.792-15.273-4.792c-10.225,0-16.352,8.519-16.393,22.788
					c-0.063,21.986,14.82,49.677,33.89,63.07l138.518,80.221c5.427,3.133,10.707,4.79,15.271,4.79
					c10.222,0,16.35-8.518,16.389-22.785c0.069-24.087-16.936-53.534-37.904-65.64c-2.089-1.206-4.182-2.207-6.221-2.975
					l-3.414-1.284l-0.686-3.582c-6.5-33.939-29.849-68.501-56.779-84.05c-8.639-4.988-17.123-7.624-24.535-7.624
					C493.408,154.178,484.131,162.235,480.429,176.864z"/>
			</g>
		</g>
	</g>
	<g>
		<polygon fill="#FFFFFF" points="522.261,197.976 513.303,192.803 513.303,232.726 504.382,227.575 517.78,262.108 
			531.181,243.049 522.261,237.898 		"/>
		<polygon fill="#FFFFFF" points="558.056,245.438 544.655,210.904 531.255,229.965 540.177,235.115 540.177,275.038 
			549.134,280.209 549.135,240.287 		"/>
	</g>
</g>
<g>
	<polygon fill="#062D66" points="120.578,229.398 136.33,229.398 237.292,285.785 237.292,409.643 227.368,414.364 	"/>
	<g>
		<polygon fill="#0C3A8E" points="227.368,414.364 120.578,352.708 120.578,229.398 227.374,291.054 		"/>
		<polygon fill="#00AEEF" points="205.869,349.308 181.5,364.707 142.794,288.568 120.578,321.024 120.578,352.708 227.368,414.364 
			227.374,383.533 		"/>
		<path fill="#00AEEF" d="M205.869,312.568c0-9.141-6.421-20.254-14.333-24.825c-7.918-4.572-14.339-0.866-14.339,8.275
			s6.421,20.256,14.339,24.828C199.448,325.416,205.869,321.712,205.869,312.568z"/>
	</g>
</g>
<g>
	<path fill="#0C3A8E" d="M782.03,349.404c-26.656-10.752-51.431-1.848-51.431,15.114c0,13.332,16.886,29.259,34.274,43.964v22.384
		l20.09-8.49c22.957,23.103,57.562,15.24,57.562-6.573C842.525,393.113,813.305,362.019,782.03,349.404z M760.139,381.547
		c-3.494-1.821-6.272-6.347-6.272-10.142c0-3.794,2.778-5.535,6.272-3.858c3.564,1.712,6.512,6.32,6.512,10.26
		C766.65,381.748,763.703,383.406,760.139,381.547z M781.619,392.748c-3.948-2.059-7.085-6.961-7.085-10.992
		c0-4.029,3.137-5.79,7.085-3.894c4.034,1.937,7.372,6.94,7.372,11.134C788.991,393.19,785.653,394.851,781.619,392.748z
		 M806,405.459c-4.493-2.342-8.061-7.686-8.061-11.983c0-4.296,3.567-6.065,8.061-3.908c4.604,2.21,8.416,7.676,8.416,12.16
		C814.416,406.212,810.604,407.86,806,405.459z"/>
	<path fill="#00AEEF" d="M775.794,353.139c-26.657-10.752-45.538-4.616-45.538,12.347c0,13.332,11.404,31.278,28.792,45.983v22.384
		l20.09-8.49c30.028,16.695,57.562,15.24,57.562-6.573C836.699,396.1,807.067,365.754,775.794,353.139z M754.313,384.534
		c-3.493-1.821-6.272-6.347-6.272-10.142c0-3.794,2.779-5.535,6.272-3.858c3.565,1.712,6.513,6.321,6.513,10.26
		C760.825,384.735,757.878,386.393,754.313,384.534z M775.794,395.734c-3.949-2.059-7.086-6.961-7.086-10.992
		c0-4.029,3.137-5.79,7.086-3.894c4.033,1.937,7.371,6.94,7.371,11.133C783.165,396.177,779.827,397.837,775.794,395.734z
		 M800.174,408.446c-4.493-2.342-8.061-7.686-8.061-11.983c0-4.296,3.567-6.065,8.061-3.908c4.604,2.21,8.417,7.676,8.417,12.159
		C808.591,409.198,804.778,410.847,800.174,408.446z"/>
</g>
<g>
	<g>
		<path fill="#0C3A8E" d="M929.819,599.366v-10.765c0-21.317-15.023-47.326-33.487-57.985
			c-18.453-10.656-40.939-5.841-40.939,15.474l7.463,14.62c-3.932,0.428-6.574,3.849-6.574,9.521v50.425
			c-0.01,8.563,6.004,18.977,13.424,23.256l53.256,30.753c7.419,4.278,13.433,0.806,13.433-7.753v-50.425
			C936.394,610.814,933.751,604.34,929.819,599.366z M896.332,542.264c12.907,7.444,23.398,25.622,23.398,40.519v8.576
			l-46.786-27.014v-8.578C872.944,540.871,883.436,534.814,896.332,542.264z M902.986,630.082v15.328l-13.31-7.692v-15.326
			c-2.914-4.084-4.829-9.101-4.829-13.548c0-7.327,5.146-10.291,11.484-6.63c6.341,3.66,11.483,12.561,11.483,19.887
			C907.815,626.546,905.902,629.357,902.986,630.082z"/>
	</g>
	<path fill="#0C3A8E" d="M920.094,676.475l9.885,0.022l-6.543-4.472c0,0-1.937,3.139-2.204,3.139
		C920.965,675.164,920.094,676.475,920.094,676.475z"/>
	<g>
		<path fill="#00AEEF" d="M921.539,599.366v-10.765c0-21.317-15.022-47.326-33.487-57.985c-18.453-10.656-33.477-1.984-33.477,19.33
			v10.764c-3.931,0.428-6.574,3.849-6.574,9.521v50.425c-0.009,8.563,6.004,18.977,13.424,23.256l53.257,30.753
			c7.418,4.278,13.432,0.806,13.432-7.753v-50.425C928.113,610.814,925.471,604.34,921.539,599.366z M888.052,542.264
			c12.907,7.444,23.398,25.622,23.398,40.519v8.576l-46.785-27.014v-8.578C864.665,540.871,875.155,534.814,888.052,542.264z
			 M894.707,630.082v15.328l-13.311-7.692v-15.326c-2.914-4.084-4.828-9.101-4.828-13.548c0-7.327,5.146-10.291,11.483-6.63
			c6.341,3.66,11.483,12.561,11.483,19.887C899.535,626.546,897.623,629.357,894.707,630.082z"/>
	</g>
</g>
<g>
	<g>
		<path fill="#062D66" d="M178.935,531.334v3.836c0,3.354,2.357,7.432,5.265,9.108l7.271,4.202c0.697,3.152,1.697,6.327,2.979,9.451
			l-4.894,2.827c-2.052,1.187-2.052,5.03,0,8.588l2.352,4.069c2.051,3.556,5.379,5.48,7.437,4.293l5.14-2.967
			c2.122,2.575,4.419,4.93,6.842,6.986v7.993c0,3.354,2.357,7.432,5.26,9.111l3.323,1.915c2.908,1.678,5.26,0.318,5.26-3.034v-8.4
			c2.381,0.576,4.633,0.714,6.696,0.43l4.893,8.477c2.058,3.558,5.386,5.479,7.438,4.296l2.352-1.358
			c2.052-1.187,2.052-5.03,0-8.589l-5.145-8.906c1.171-1.775,2.062-3.918,2.633-6.383l6.921,3.996
			c2.908,1.677,5.259,0.318,5.259-3.037v-3.836c0-3.354-2.352-7.433-5.259-9.108l-7.271-4.202c-0.69-3.149-1.703-6.331-2.978-9.451
			l4.894-2.824c2.053-1.188,2.053-5.033,0-8.589l-2.347-4.071c-2.057-3.558-5.385-5.479-7.437-4.295l-5.145,2.971
			c-2.123-2.577-4.424-4.93-6.847-6.986v-7.995c0-3.354-2.352-7.432-5.255-9.108l-3.323-1.919c-2.907-1.677-5.26-0.318-5.26,3.034
			v8.403c-2.388-0.578-4.634-0.716-6.701-0.43l-4.896-8.479c-2.051-3.558-5.384-5.479-7.437-4.294l-2.352,1.356
			c-2.051,1.187-2.051,5.029,0,8.589l5.145,8.904c-1.17,1.78-2.056,3.917-2.632,6.387l-6.916-3.999
			C181.297,526.62,178.935,527.98,178.935,531.334z M204.598,547.294c0-8.275,5.815-11.63,12.983-7.492
			c7.166,4.14,12.971,14.2,12.971,22.477c0,8.274-5.805,11.628-12.971,7.491C210.414,565.632,204.598,555.569,204.598,547.294z"/>
	</g>
	<path fill="#062D66" d="M181.487,527.608l-6.344-0.023l0.802,4.126l5.542,0.356c0,0,1.314-0.979,1.314-1.336
		C182.801,530.376,181.487,527.608,181.487,527.608z"/>
	<path fill="#062D66" d="M186.095,506.708h5.876l3.472,4.169l-7.034,0.534c0,0-2.493-1.691-2.315-1.958
		C186.273,509.186,186.095,506.708,186.095,506.708z"/>
	<path fill="#062D66" d="M206.218,508.112h6.677l2.669,4.367c0,0-6.589,1.692-6.944,1.603c-0.356-0.088-2.222-1.78-2.402-2.671
		c-0.18-0.89,0-1.691,0-1.691V508.112z"/>
	<path fill="#062D66" d="M231.224,531.593h5.293l1.662,3.324c0,0-0.623,0.622-3.027,0.622s-5.164-0.622-5.164-0.979
		c0-0.355,0.178-1.603,0.356-1.958C230.522,532.246,231.224,531.593,231.224,531.593z"/>
	<path fill="#062D66" d="M247.26,581.927c0,0,6.188,0.262,6.098,0.063c-0.089-0.198-1.603-3.049-1.736-3.093
		c-0.134-0.044-6.455-0.53-6.366-0.398c0.089,0.132,1.068,1.066,1.068,1.245C246.325,579.922,247.26,581.927,247.26,581.927z"/>
	<polygon fill="#062D66" points="236.621,602.865 242.987,602.865 240.538,598.975 235.775,598.975 236.977,601.734 	"/>
	<path fill="#062D66" d="M215.698,601.464c0.451-0.05,6.627,0,6.627,0s-1.417-3.914-1.596-4.003
		c-0.178-0.089-5.476-0.045-5.476,0.534s-0.133,1.824,0,1.958C215.387,600.087,215.698,601.464,215.698,601.464z"/>
	<polygon fill="#062D66" points="191.733,578.026 197.893,578.055 196.512,575.782 193.173,574.714 192.016,576.093 	"/>
	<g>
		<path fill="#00AEEF" d="M172.257,531.334v3.836c0,3.354,2.357,7.432,5.265,9.108l7.271,4.202c0.697,3.152,1.697,6.327,2.979,9.451
			l-4.895,2.827c-2.052,1.187-2.052,5.03,0,8.588l2.352,4.069c2.051,3.556,5.379,5.48,7.437,4.293l5.139-2.967
			c2.122,2.575,4.42,4.93,6.842,6.986v7.993c0,3.354,2.357,7.432,5.26,9.111l3.323,1.915c2.908,1.678,5.261,0.318,5.261-3.034v-8.4
			c2.381,0.576,4.633,0.714,6.696,0.43l4.893,8.477c2.058,3.558,5.386,5.479,7.438,4.296l2.352-1.358
			c2.052-1.187,2.052-5.03,0-8.589l-5.145-8.906c1.17-1.775,2.062-3.918,2.633-6.383l6.92,3.996c2.908,1.677,5.26,0.318,5.26-3.037
			v-3.836c0-3.354-2.352-7.433-5.26-9.108l-7.271-4.202c-0.69-3.149-1.703-6.331-2.978-9.451l4.893-2.824
			c2.053-1.188,2.053-5.033,0-8.589l-2.346-4.071c-2.057-3.558-5.385-5.479-7.437-4.295l-5.145,2.971
			c-2.122-2.577-4.423-4.93-6.846-6.986v-7.995c0-3.354-2.352-7.432-5.255-9.108l-3.323-1.919c-2.907-1.677-5.259-0.318-5.259,3.034
			v8.403c-2.388-0.578-4.635-0.716-6.701-0.43l-4.896-8.479c-2.051-3.558-5.384-5.479-7.437-4.294l-2.352,1.356
			c-2.051,1.187-2.051,5.029,0,8.589l5.145,8.904c-1.17,1.78-2.056,3.917-2.632,6.387l-6.917-3.999
			C174.62,526.62,172.257,527.98,172.257,531.334z M197.92,547.294c0-8.275,5.816-11.63,12.983-7.492
			c7.166,4.14,12.971,14.2,12.971,22.477c0,8.274-5.805,11.628-12.971,7.491C203.736,565.632,197.92,555.569,197.92,547.294z"/>
	</g>
</g>
</svg>
